{
.appVersion = "3151";
.formatVersion = 3;
customParameters = (
{
name = vendorID;
value = COMM;
},
{
name = panose;
value = (
2,
13,
3,
4,
3,
5,
2,
12,
2,
3
);
},
{
name = unicodeRanges;
value = (
0,
1,
2
);
},
{
name = codePageRanges;
value = (
"1252",
"1250",
"1254",
"1257",
"bit 29"
);
},
{
name = fsType;
value = (
2
);
},
{
name = glyphOrder;
value = (
.notdef,
Eth,
eth,
Lslash,
lslash,
Scaron,
scaron,
Yacute,
yacute,
Thorn,
thorn,
Zcaron,
zcaron,
onehalf,
onequarter,
onesuperior,
threequarters,
threesuperior,
twosuperior,
brokenbar,
minus,
multiply,
space,
exclam,
quotedbl,
numbersign,
dollar,
percent,
ampersand,
quotesingle,
parenleft,
parenright,
asterisk,
plus,
comma,
hyphen,
period,
slash,
zero,
one,
two,
three,
four,
five,
six,
seven,
eight,
nine,
colon,
semicolon,
less,
equal,
greater,
question,
at,
A,
B,
C,
D,
E,
F,
G,
H,
I,
J,
K,
L,
M,
N,
O,
P,
Q,
R,
S,
T,
U,
V,
W,
X,
Y,
Z,
bracketleft,
backslash,
bracketright,
asciicircum,
underscore,
grave,
a,
b,
c,
d,
e,
f,
g,
h,
i,
j,
k,
l,
m,
n,
o,
p,
q,
r,
s,
t,
u,
v,
w,
x,
y,
z,
braceleft,
bar,
braceright,
asciitilde,
Adieresis,
Aring,
Ccedilla,
Eacute,
Ntilde,
Odieresis,
Udieresis,
aacute,
agrave,
acircumflex,
adieresis,
atilde,
aring,
ccedilla,
eacute,
egrave,
ecircumflex,
edieresis,
iacute,
igrave,
icircumflex,
idieresis,
ntilde,
oacute,
ograve,
ocircumflex,
odieresis,
otilde,
uacute,
ugrave,
ucircumflex,
udieresis,
dagger,
degree,
cent,
sterling,
section,
bullet,
paragraph,
germandbls,
registered,
copyright,
trademark,
acute,
dieresis,
notequal,
AE,
Oslash,
infinity,
plusminus,
lessequal,
greaterequal,
yen,
mu,
partialdiff,
summation,
product,
pi,
integral,
ordfeminine,
ordmasculine,
Omega,
ae,
oslash,
questiondown,
exclamdown,
logicalnot,
radical,
florin,
approxequal,
Delta,
guillemotleft,
guillemotright,
ellipsis,
uni00A0,
Agrave,
Atilde,
Otilde,
OE,
oe,
endash,
emdash,
quotedblleft,
quotedblright,
quoteleft,
quoteright,
divide,
lozenge,
ydieresis,
Ydieresis,
fraction,
Euro,
guilsinglleft,

glyphs = (
{
glyphname = Eth;
kernLeft = Eth;
kernRight = Eth;
layers = (
{
hints = (
{
horizontal = 1;
place = (0, 58);
place = (0, 58);
type = Stem;
},
{
horizontal = 1;
place = (331, 56);
place = (331, 56);
type = Stem;
},
{
horizontal = 1;
place = (657, 58);
place = (657, 58);
type = Stem;
},
{
place = (581, 69);
place = (581, 69);
type = Stem;
}
);
layerId = m01;
shapes = (
{
closed = 1;
nodes = (
(23,0,l),
(278,0,ls),
(533,0,o),
(650,205,o),
(650,434,cs),
(650,604,o),
(570,715,o),
(383,715,cs),
(161,715,l),
(98,387,l),
(28,387,l),
(16,331,l),
(87,331,l)
);
},
{
closed = 1;
nodes = (
(215,657,l),
(379,657,ls),
(525,657,o),
(581,569,o),
(581,430,cs),
(581,226,o),
(487,58,o),
(275,58,cs),
(100,58,l),
(152,331,l),
(381,331,l),
(392,387,l),
(163,387,l)
);
}
);
width = 660;
}
);
note = Eth;
unicode = 208;
},
{
glyphname = eth;
kernLeft = eth;
kernRight = eth;
layers = (
{
hints = (
{
horizontal = 1;
place = (-13, 51);
place = (-13, 51);
type = Stem;
},
{
horizontal = 1;
place = (477, 50);
place = (477, 50);
type = Stem;
},
{
horizontal = 1;
place = (715, -20);
target = down;
type = TopGhost;
},
{
place = (22, 62);
place = (22, 62);
type = Stem;
},
{
place = (431, 64);
place = (431, 64);
type = Stem;
},
{
horizontal = 1;
place = (700, -20);
target = down;
type = TopGhost;
},
{
horizontal = 1;
place = (644, 71);
place = (644, 71);
type = Stem;
}
);
layerId = m01;
shapes = (
{
closed = 1;
nodes = (
(199,562,l),
(342,612,l),
(377,569,o),
(404,520,o),
(425,458,c),
(424,458,l),
(396,499,o),
(354,527,o),
(288,527,cs),
(113,527,o),
(22,355,o),
(22,207,cs),
(22,76,o),
(104,-13,o),
(230,-13,cs),
(407,-13,o),
(495,157,o),
(495,336,cs),
(495,469,o),
(450,565,o),
(398,631,c),
(485,662,l),
(473,700,l),
(370,664,l),
(350,685,o),
(330,702,o),
(312,715,c),
(233,715,l),
(263,692,o),
(290,669,o),
(314,644,c),
(187,599,l)
);
},
{
closed = 1;
nodes = (
(133,38,o),
(84,112,o),
(84,210,cs),
(84,337,o),
(151,477,o),
(286,477,cs),
(390,477,o),
(431,399,o),
(431,312,cs),
(431,177,o),
(366,38,o),
(232,38,cs)
);
}
);
width = 518;
}
);
note = eth;
unicode = 240;
},
{
glyphname = Lslash;
layers = (
{
hints = (
{
horizontal = 1;
place = (0, 61);
place = (0, 61);
type = Stem;
},
{
horizontal = 1;
place = (715, -20);
target = down;
type = TopGhost;
},
{
place = (-12, 482);
place = (-12, 482);
type = Stem;
}
);
layerId = m01;
shapes = (
{
closed = 1;
nodes = (
(233,715,l),
(167,715,l),
(88,307,l),
(1,266,l),
(-12,202,l),
(76,244,l),
(29,0,l),
(458,0,l),
(470,61,l),
(107,61,l),
(149,279,l),
(424,410,l),
(437,473,l),
(161,342,l)
);
}
);
width = 532;
}
);
note = Lslash;
unicode = 321;
},
{
glyphname = lslash;
layers = (
{
hints = (
{
horizontal = 1;
place = (0, 21);
target = up;
type = BottomGhost;
},
{
horizontal = 1;
place = (715, -20);
target = down;
type = TopGhost;
},
{
place = (10, 248);
place = (10, 248);
type = Stem;
}
);
layerId = m01;
shapes = (
{
closed = 1;
nodes = (
(246,441,l),
(258,505,l),
(170,443,l),
(223,715,l),
(162,715,l),
(100,393,l),
(22,338,l),
(10,275,l),
(88,330,l),
(24,0,l),
(85,0,l),
(158,379,l)
);
}
);
width = 210;
}
);
note = lslash;
unicode = 322;
},
{
glyphname = Scaron;
kernLeft = Scaron;
kernRight = Scaron;
layers = (
{
hints = (
{
horizontal = 1;
place = (-13, 55);
place = (-13, 55);
type = Stem;
},
{
horizontal = 1;
place = (674, 55);
place = (674, 55);
type = Stem;
},
{
place = (7, 65);
place = (7, 65);
type = Stem;
},
{
place = (90, 64);
place = (90, 64);
type = Stem;
},
{
place = (466, 66);
place = (466, 66);
type = Stem;
},
{
horizontal = 1;
place = (753, 103);
place = (753, 103);
type = Stem;
}
);
layerId = m01;
shapes = (
{
closed = 1;
nodes = (
(7,232,l),
(4,56,o),
(126,-13,o),
(273,-13,cs),
(422,-13,o),
(532,69,o),
(532,209,cs),
(532,328,o),
(439,365,o),
(306,410,cs),
(206,444,o),
(154,472,o),
(154,537,cs),
(154,636,o),
(233,674,o),
(325,674,cs),
(430,674,o),
(498,624,o),
(502,520,c),
(565,520,l),
(560,667,o),
(461,729,o),
(326,729,cs),
(196,729,o),
(90,656,o),
(90,533,cs),
(90,435,o),
(158,393,o),
(284,351,cs),
(408,309,o),
(466,279,o),
(466,205,cs),
(466,92,o),
(380,42,o),
(275,42,cs),
(148,42,o),
(70,101,o),
(72,232,c)
);
},
{
closed = 1;
nodes = (
(306,753,l),
(379,753,l),
(487,856,l),
(418,856,l),
(348,789,l),
(346,789,l),
(297,856,l),
(233,856,l)
);
}
);
width = 576;
}
);
note = Scaron;
unicode = 352;
},
{
glyphname = scaron;
kernLeft = scaron;
kernRight = scaron;
layers = (
{
hints = (
{
horizontal = 1;
place = (-14, 52);
place = (-14, 52);
type = Stem;
},
{
horizontal = 1;
place = (478, 50);
place = (478, 50);
type = Stem;
},
{
horizontal = 1;
place = (596, 106);
place = (596, 106);
type = Stem;
},
{
place = (58, 59);
place = (58, 59);
type = Stem;
},
{
place = (332, 60);
place = (332, 60);
type = Stem;
}
);
layerId = m01;
shapes = (
{
closed = 1;
nodes = (
(215,596,l),
(288,596,l),
(388,702,l),
(319,702,l),
(257,631,l),
(255,631,l),
(214,702,l),
(149,702,l)
);
},
{
closed = 1;
nodes = (
(-3,161,l),
(-2,38,o),
(92,-14,o),
(200,-14,cs),
(308,-14,o),
(392,44,o),
(392,144,cs),
(392,230,o),
(329,260,o),
(242,293,cs),
(150,328,o),
(117,347,o),
(117,393,cs),
(117,458,o),
(173,478,o),
(234,478,cs),
(302,478,o),
(351,445,o),
(357,375,c),
(416,375,l),
(410,477,o),
(337,528,o),
(235,528,cs),
(137,528,o),
(58,480,o),
(58,390,cs),
(58,310,o),
(115,279,o),
(209,244,cs),
(297,210,o),
(332,189,o),
(332,143,cs),
(332,70,o),
(275,38,o),
(204,38,cs),
(112,38,o),
(61,78,o),
(57,161,c)
);
}
);
width = 439;
}
);
note = scaron;
unicode = 353;
},
{
glyphname = Yacute;
kernLeft = Yacute;
kernRight = Yacute;
layers = (
{
hints = (
{
horizontal = 1;
place = (0, 21);
target = up;
type = BottomGhost;
},
{
horizontal = 1;
place = (715, -20);
target = down;
type = TopGhost;
},
{
horizontal = 1;
place = (753, 114);
place = (753, 114);
type = Stem;
},
{
place = (82, 561);
place = (82, 561);
type = Stem;
}
);
layerId = m01;
shapes = (
{
closed = 1;
nodes = (
(152,715,l),
(82,715,l),
(258,312,l),
(198,0,l),
(264,0,l),
(322,306,l),
(643,715,l),
(570,715,l),
(302,366,l),
(300,366,l)
);
},
{
closed = 1;
nodes = (
(332,753,l),
(386,753,l),
(482,867,l),
(402,867,l)
);
}
);
width = 560;
}
);
note = Yacute;
unicode = 221;
},
{
glyphname = yacute;
kernLeft = yacute;
kernRight = yacute;
layers = (
{
hints = (
{
horizontal = 1;
place = (-171, 55);
place = (-171, 55);
type = Stem;
},
{
horizontal = 1;
place = (517, -20);
target = down;
type = TopGhost;
},
{
horizontal = 1;
place = (592, 127);
place = (592, 127);
type = Stem;
},
{
place = (-12, 501);
place = (-12, 501);
type = Stem;
},
{
horizontal = 1;
place = (-163, 21);
target = up;
type = BottomGhost;
}
);
layerId = m01;
shapes = (
{
closed = 1;
nodes = (
(489,517,l),
(426,517,l),
(259,183,ls),
(234,132,o),
(204,65,o),
(204,65,c),
(202,65,l),
(202,65,o),
(193,134,o),
(182,185,cs),
(113,517,l),
(51,517,l),
(163,2,l),
(134,-53,ls),
(112,-97,o),
(83,-116,o),
(46,-116,cs),
(20,-116,o),
(10,-111,o),
(1,-108,c),
(-1,-108,l),
(-12,-163,l),
(1,-168,o),
(18,-171,o),
(43,-171,cs),
(103,-171,o),
(149,-145,o),
(187,-71,cs)
);
},
{
closed = 1;
nodes = (
(246,592,l),
(299,592,l),
(396,719,l),
(316,719,l)
);
}
);
width = 452;
}
);
note = yacute;
unicode = 253;
},
{
glyphname = Thorn;
kernRight = Thorn;
layers = (
{
hints = (
{
horizontal = 1;
place = (0, 21);
target = up;
type = BottomGhost;
},
{
horizontal = 1;
place = (178, 56);
place = (178, 56);
type = Stem;
},
{
horizontal = 1;
place = (523, 58);
place = (523, 58);
type = Stem;
},
{
place = (501, 67);
place = (501, 67);
type = Stem;
},
{
horizontal = 1;
place = (523, 192);
place = (523, 192);
type = Stem;
}
);
layerId = m01;
shapes = (
{
closed = 1;
nodes = (
(310,178,ls),
(464,178,o),
(568,255,o),
(568,405,cs),
(568,460,o),
(551,498,o),
(521,529,cs),
(486,564,o),
(433,581,o),
(366,581,cs),
(191,581,l),
(217,715,l),
(151,715,l),
(13,0,l),
(79,0,l),
(113,178,l)
);
},
{
closed = 1;
nodes = (
(179,523,l),
(361,523,ls),
(455,523,o),
(501,477,o),
(501,401,cs),
(501,277,o),
(414,234,o),
(310,234,cs),
(123,234,l)
);
}
);
width = 573;
}
);
note = Thorn;
unicode = 222;
},
{
glyphname = thorn;
kernRight = thorn;
layers = (
{
hints = (
{
horizontal = 1;
place = (-166, 21);
target = up;
type = BottomGhost;
},
{
horizontal = 1;
place = (-13, 51);
place = (-13, 51);
type = Stem;
},
{
horizontal = 1;
place = (477, 51);
place = (477, 51);
type = Stem;
},
{
horizontal = 1;
place = (715, -20);
target = down;
type = TopGhost;
},
{
place = (439, 63);
place = (439, 63);
type = Stem;
}
);
layerId = m01;
shapes = (
{
closed = 1;
nodes = (
(503,444,o),
(433,528,o),
(321,528,cs),
(246,528,o),
(190,494,o),
(148,435,c),
(146,435,l),
(200,715,l),
(139,715,l),
(-32,-166,l),
(29,-166,l),
(79,89,l),
(81,89,l),
(108,25,o),
(169,-13,o),
(244,-13,cs),
(420,-13,o),
(502,158,o),
(502,317,cs)
);
},
{
closed = 1;
nodes = (
(439,191,o),
(382,38,o),
(245,38,cs),
(149,38,o),
(101,104,o),
(102,202,cs),
(103,328,o),
(173,477,o),
(307,477,cs),
(403,477,o),
(439,400,o),
(439,315,cs)
);
}
);
width = 524;
}
);
note = thorn;
unicode = 254;
},
{
glyphname = Zcaron;
kernLeft = Zcaron;
kernRight = Zcaron;
layers = (
{
hints = (
{
horizontal = 1;
place = (0, 59);
place = (0, 59);
type = Stem;
},
{
horizontal = 1;
place = (659, 197);
place = (659, 197);
type = Stem;
},
{
place = (-21, 632);
place = (-21, 632);
type = Stem;
},
{
horizontal = 1;
place = (659, 56);
place = (659, 56);
type = Stem;
},
{
horizontal = 1;
place = (753, 36);
place = (753, 36);
type = Stem;
}
);
layerId = m01;
shapes = (
{
closed = 1;
nodes = (
(342,753,l),
(415,753,l),
(523,856,l),
(454,856,l),
(384,789,l),
(382,789,l),
(333,856,l),
(269,856,l)
);
},
{
closed = 1;
nodes = (
(502,59,l),
(70,59,l),
(70,62,l),
(601,660,l),
(611,715,l),
(141,715,l),
(130,659,l),
(518,659,l),
(518,656,l),
(-9,64,l),
(-21,0,l),
(491,0,l)
);
}
);
width = 569;
}
);
note = Zcaron;
unicode = 381;
},
{
glyphname = zcaron;
kernLeft = zcaron;
kernRight = zcaron;
layers = (
{
hints = (
{
horizontal = 1;
place = (0, 54);
place = (0, 54);
type = Stem;
},
{
horizontal = 1;
place = (464, 53);
place = (464, 53);
type = Stem;
},
{
horizontal = 1;
place = (596, 106);
place = (596, 106);
type = Stem;
},
{
place = (-25, 467);
place = (-25, 467);
type = Stem;
}
);
layerId = m01;
shapes = (
{
closed = 1;
nodes = (
(240,596,l),
(313,596,l),
(413,702,l),
(344,702,l),
(282,631,l),
(280,631,l),
(239,702,l),
(174,702,l)
);
},
{
closed = 1;
nodes = (
(-25,0,l),
(353,0,l),
(363,54,l),
(62,54,l),
(62,57,l),
(434,475,l),
(442,517,l),
(93,517,l),
(83,464,l),
(349,464,l),
(349,461,l),
(-15,51,l)
);
}
);
width = 425;
}
);
note = zcaron;
unicode = 382;
},
{
glyphname = onehalf;
layers = (
{
hints = (
{
horizontal = 1;
place = (0, 46);
place = (0, 46);
type = Stem;
},
{
horizontal = 1;
place = (365, 46);
place = (365, 46);
type = Stem;
},
{
horizontal = 1;
place = (604, 39);
place = (604, 39);
type = Stem;
},
{
horizontal = 1;
place = (715, -20);
target = down;
type = TopGhost;
},
{
place = (662, 58);
place = (662, 58);
type = Stem;
},
{
horizontal = 1;
place = (604, 114);
place = (604, 114);
type = Stem;
}
);
layerId = m01;
shapes = (
{
closed = 1;
nodes = (
(677,46,l),
(462,46,l),
(476,92,o),
(525,120,o),
(581,148,cs),
(665,191,o),
(719,224,o),
(720,301,cs),
(720,379,o),
(658,411,o),
(597,411,cs),
(521,412,o),
(458,365,o),
(444,269,c),
(498,269,l),
(509,334,o),
(547,365,o),
(592,365,cs),
(633,365,o),
(662,341,o),
(662,300,cs),
(662,241,o),
(617,218,o),
(559,188,cs),
(479,146,o),
(408,103,o),
(389,0,c),
(668,0,l)
);
},
{
closed = 1;
nodes = (
(218,718,l),
(201,667,o),
(170,646,o),
(99,643,c),
(92,604,l),
(186,604,l),
(130,312,l),
(186,312,l),
(264,718,l)
);
},
{
closed = 1;
nodes = (
(28,0,l),
(88,0,l),
(683,715,l),
(623,715,l)
);
}
);
width = 755;
}
);
note = onehalf;
unicode = 189;
},
{
glyphname = onequarter;
layers = (
{
hints = (
{
horizontal = 1;
place = (0, 140);
place = (0, 140);
type = Stem;
},
{
horizontal = 1;
place = (604, 39);
place = (604, 39);
type = Stem;
},
{
horizontal = 1;
place = (715, -20);
target = down;
type = TopGhost;
},
{
place = (38, 655);
place = (38, 655);
type = Stem;
},
{
horizontal = 1;
place = (98, 42);
place = (98, 42);
type = Stem;
},
{
horizontal = 1;
place = (604, 114);
place = (604, 114);
type = Stem;
}
);
layerId = m01;
shapes = (
{
closed = 1;
nodes = (
(585,0,l),
(604,98,l),
(665,98,l),
(674,140,l),
(613,140,l),
(664,408,l),
(613,408,l),
(365,151,l),
(354,98,l),
(550,98,l),
(532,0,l)
);
},
{
closed = 1;
nodes = (
(559,140,l),
(413,140,l),
(413,142,l),
(594,329,l),
(595,329,l)
);
},
{
closed = 1;
nodes = (
(218,718,l),
(201,667,o),
(170,646,o),
(99,643,c),
(92,604,l),
(186,604,l),
(130,312,l),
(186,312,l),
(264,718,l)
);
},
{
closed = 1;
nodes = (
(38,0,l),
(98,0,l),
(693,715,l),
(633,715,l)
);
}
);
width = 723;
}
);
note = onequarter;
unicode = 188;
},
{
glyphname = onesuperior;
layers = (
{
hints = (
{
horizontal = 1;
place = (574, 114);
place = (574, 114);
type = Stem;
},
{
place = (80, 171);
place = (80, 171);
type = Stem;
},
{
horizontal = 1;
place = (574, 39);
place = (574, 39);
type = Stem;
}
);
layerId = m01;
shapes = (
{
closed = 1;
nodes = (
(205,688,l),
(189,637,o),
(157,616,o),
(87,613,c),
(80,574,l),
(174,574,l),
(117,282,l),
(173,282,l),
(251,688,l)
);
}
);
width = 230;
}
);
note = onesuperior;
unicode = 185;
},
{
glyphname = threequarters;
layers = (
{
hints = (
{
horizontal = 1;
place = (98, 42);
place = (98, 42);
type = Stem;
},
{
horizontal = 1;
place = (303, 46);
place = (303, 46);
type = Stem;
},
{
horizontal = 1;
place = (503, 44);
place = (503, 44);
type = Stem;
},
{
horizontal = 1;
place = (681, 42);
place = (681, 42);
type = Stem;
},
{
place = (296, 56);
place = (296, 56);
type = Stem;
},
{
horizontal = 1;
place = (522, -20);
target = down;
type = TopGhost;
},
{
horizontal = 1;
place = (0, 140);
place = (0, 140);
type = Stem;
},
{
place = (310, 55);
place = (310, 55);
type = Stem;
},
{
horizontal = 1;
place = (715, -20);
target = down;
type = TopGhost;
}
);
layerId = m01;
shapes = (
{
closed = 1;
nodes = (
(214,503,ls),
(267,503,o),
(296,475,o),
(296,431,cs),
(295,378,o),
(257,349,o),
(206,349,cs),
(142,349,o),
(110,387,o),
(107,441,c),
(55,441,l),
(57,353,o),
(118,303,o),
(205,303,cs),
(285,303,o),
(352,353,o),
(352,435,cs),
(352,475,o),
(327,510,o),
(289,522,c),
(289,524,l),
(333,538,o),
(365,573,o),
(365,623,cs),
(365,693,o),
(308,723,o),
(245,723,cs),
(166,723,o),
(108,675,o),
(95,593,c),
(147,593,l),
(157,649,o),
(193,681,o),
(244,681,cs),
(283,681,o),
(310,659,o),
(310,619,cs),
(310,569,o),
(274,545,o),
(230,547,cs),
(201,547,l),
(193,503,l)
);
},
{
closed = 1;
nodes = (
(650,0,l),
(669,98,l),
(730,98,l),
(739,140,l),
(678,140,l),
(729,408,l),
(678,408,l),
(430,151,l),
(419,98,l),
(615,98,l),
(597,0,l)
);
},
{
closed = 1;
nodes = (
(624,140,l),
(478,140,l),
(478,142,l),
(659,329,l),
(660,329,l)
);
},
{
closed = 1;
nodes = (
(111,0,l),
(171,0,l),
(766,715,l),
(706,715,l)
);
}
);
width = 787;
}
);
note = threequarters;
unicode = 190;
},
{
glyphname = threesuperior;
layers = (
{
hints = (
{
horizontal = 1;
place = (273, 46);
place = (273, 46);
type = Stem;
},
{
horizontal = 1;
place = (473, 44);
place = (473, 44);
type = Stem;
},
{
horizontal = 1;
place = (651, 42);
place = (651, 42);
type = Stem;
},
{
place = (285, 57);
place = (285, 57);
type = Stem;
},
{
place = (299, 55);
place = (299, 55);
type = Stem;
}
);
layerId = m01;
shapes = (
{
closed = 1;
nodes = (
(203,473,ls),
(257,473,o),
(286,445,o),
(285,401,cs),
(284,348,o),
(246,319,o),
(196,319,cs),
(131,319,o),
(100,358,o),
(98,411,c),
(44,411,l),
(47,323,o),
(107,273,o),
(194,273,cs),
(274,273,o),
(342,323,o),
(342,405,cs),
(342,445,o),
(317,480,o),
(279,492,c),
(279,494,l),
(322,508,o),
(354,543,o),
(354,593,cs),
(354,663,o),
(297,693,o),
(234,693,cs),
(156,693,o),
(97,645,o),
(84,563,c),
(136,563,l),
(146,619,o),
(182,651,o),
(233,651,cs),
(272,651,o),
(299,629,o),
(299,589,cs),
(299,539,o),
(264,515,o),
(219,517,cs),
(191,517,l),
(182,473,l)
);
}
);
width = 344;
}
);
note = threesuperior;
unicode = 179;
},
{
glyphname = twosuperior;
layers = (
{
hints = (
{
horizontal = 1;
place = (282, 46);
place = (282, 46);
type = Stem;
},
{
horizontal = 1;
place = (647, 46);
place = (647, 46);
type = Stem;
},
{
place = (299, 57);
place = (299, 57);
type = Stem;
}
);
layerId = m01;
shapes = (
{
closed = 1;
nodes = (
(314,328,l),
(99,328,l),
(112,374,o),
(162,402,o),
(217,430,cs),
(302,473,o),
(355,506,o),
(356,582,cs),
(357,660,o),
(294,693,o),
(233,693,cs),
(158,693,o),
(94,646,o),
(81,550,c),
(135,550,l),
(145,616,o),
(183,647,o),
(229,647,cs),
(270,647,o),
(299,622,o),
(299,581,cs),
(299,523,o),
(254,500,o),
(196,470,cs),
(115,428,o),
(44,385,o),
(26,282,c),
(304,282,l)
);
}
);
width = 322;
}
);
note = twosuperior;
unicode = 178;
},
{
glyphname = brokenbar;
layers = (
{
hints = (
{
horizontal = 1;
place = (-118, 872);
place = (-118, 872);
type = Stem;
},
{
place = (97, 55);
place = (97, 55);
type = Stem;
}
);
layerId = m01;
shapes = (
{
closed = 1;
nodes = (
(97,-118,l),
(152,-118,l),
(152,293,l),
(97,293,l)
);
},
{
closed = 1;
nodes = (
(152,754,l),
(97,754,l),
(97,359,l),
(152,359,l)
);
}
);
width = 207;
}
);
note = brokenbar;
unicode = 166;
},
{
glyphname = minus;
kernLeft = minus;
kernRight = minus;
layers = (
{
hints = (
{
horizontal = 1;
place = (300, 53);
place = (300, 53);
type = Stem;
},
{
place = (61, 425);
place = (61, 425);
type = Stem;
}
);
layerId = m01;
shapes = (
{
closed = 1;
nodes = (
(61,300,l),
(475,300,l),
(486,353,l),
(72,353,l)
);
}
);
width = 522;
}
);
note = minus;
unicode = 8722;
},
{
glyphname = multiply;
layers = (
{
hints = (
{
horizontal = 1;
place = (516, -20);
target = down;
type = TopGhost;
},
{
place = (65, 407);
place = (65, 407);
type = Stem;
}
);
layerId = m01;
shapes = (
{
closed = 1;
nodes = (
(107,483,l),
(234,326,l),
(65,170,l),
(98,133,l),
(265,287,l),
(390,133,l),
(430,166,l),
(303,323,l),
(472,479,l),
(439,516,l),
(272,361,l),
(147,516,l)
);
}
);
width = 512;
}
);
note = multiply;
unicode = 215;
},
{
glyphname = exclam;
kernLeft = exclam;
layers = (
{
hints = (
{
horizontal = 1;
place = (0, 87);
place = (0, 87);
type = Stem;
},
{
horizontal = 1;
place = (715, -20);
target = down;
type = TopGhost;
},
{
place = (17, 209);
place = (17, 209);
type = Stem;
}
);
layerId = m01;
shapes = (
{
closed = 1;
nodes = (
(181,480,l),
(226,715,l),
(159,715,l),
(115,486,l),
(67,173,l),
(106,173,l)
);
},
{
closed = 1;
nodes = (
(108,87,l),
(34,87,l),
(17,0,l),
(91,0,l)
);
}
);
width = 209;
}
);
note = exclam;
unicode = 33;
},
{
glyphname = quotedbl;
kernLeft = quotedbl;
kernRight = quotedbl;
layers = (
{
hints = (
{
horizontal = 1;
place = (501, 214);
place = (501, 214);
type = Stem;
},
{
place = (89, 228);
place = (89, 228);
type = Stem;
}
);
layerId = m01;
shapes = (
{
closed = 1;
nodes = (
(189,715,l),
(130,715,l),
(89,501,l),
(148,501,l)
);
},
{
closed = 1;
nodes = (
(317,715,l),
(259,715,l),
(218,501,l),
(276,501,l)
);
}
);
width = 272;
}
);
note = quotedbl;
unicode = 34;
},
{
glyphname = numbersign;
layers = (
{
hints = (
{
horizontal = 1;
place = (0, 21);
target = up;
type = BottomGhost;
},
{
horizontal = 1;
place = (208, 54);
place = (208, 54);
type = Stem;
},
{
horizontal = 1;
place = (432, 55);
place = (432, 55);
type = Stem;
},
{
horizontal = 1;
place = (686, -20);
target = down;
type = TopGhost;
},
{
place = (23, 527);
place = (23, 527);
type = Stem;
}
);
layerId = m01;
shapes = (
{
closed = 1;
nodes = (
(85,432,l),
(186,432,l),
(140,262,l),
(39,262,l),
(23,208,l),
(125,208,l),
(69,0,l),
(123,0,l),
(179,208,l),
(321,208,l),
(265,0,l),
(319,0,l),
(375,208,l),
(471,208,l),
(487,262,l),
(389,262,l),
(436,432,l),
(534,432,l),
(550,487,l),
(450,487,l),
(504,686,l),
(451,686,l),
(397,487,l),
(255,487,l),
(308,686,l),
(255,686,l),
(200,487,l),
(101,487,l)
);
},
{
closed = 1;
nodes = (
(240,432,l),
(382,432,l),
(336,262,l),
(194,262,l)
);
}
);
width = 542;
}
);
note = numbersign;
unicode = 35;
},
{
glyphname = dollar;
layers = (
{
hints = (
{
horizontal = 1;
place = (1, 51);
place = (1, 51);
type = Stem;
},
{
horizontal = 1;
place = (647, 53);
place = (647, 53);
type = Stem;
},
{
place = (90, 61);
place = (90, 61);
type = Stem;
},
{
place = (435, 63);
place = (435, 63);
type = Stem;
},
{
place = (476, 60);
place = (476, 60);
type = Stem;
},
{
place = (6, 63);
place = (6, 63);
type = Stem;
}
);
layerId = m01;
shapes = (
{
closed = 1;
nodes = (
(181,-85,l),
(227,-85,l),
(243,1,l),
(264,1,ls),
(397,1,o),
(498,75,o),
(498,206,cs),
(498,300,o),
(431,345,o),
(318,385,c),
(368,640,l),
(427,625,o),
(471,584,o),
(476,515,c),
(536,515,l),
(530,619,o),
(466,675,o),
(378,693,c),
(391,757,l),
(345,757,l),
(334,699,l),
(327,700,o),
(319,700,o),
(312,700,cs),
(188,700,o),
(90,632,o),
(90,513,cs),
(90,424,o),
(149,382,o),
(264,341,c),
(209,57,l),
(127,73,o),
(73,129,o),
(69,228,c),
(6,228,l),
(12,97,o),
(90,26,o),
(199,6,c)
);
},
{
closed = 1;
nodes = (
(435,94,o),
(356,52,o),
(265,52,cs),
(253,52,l),
(307,326,l),
(399,292,o),
(435,258,o),
(435,204,cs)
);
},
{
closed = 1;
nodes = (
(151,614,o),
(228,647,o),
(310,647,cs),
(314,647,o),
(319,646,o),
(323,646,c),
(275,399,l),
(185,430,o),
(151,463,o),
(151,515,cs)
);
}
);
width = 538;
}
);
note = dollar;
unicode = 36;
},
{
glyphname = percent;
kernLeft = percent;
layers = (
{
hints = (
{
horizontal = 1;
place = (0, 21);
target = up;
type = BottomGhost;
},
{
horizontal = 1;
place = (310, 46);
place = (310, 46);
type = Stem;
},
{
horizontal = 1;
place = (685, -20);
target = down;
type = TopGhost;
},
{
place = (75, 57);
place = (75, 57);
type = Stem;
},
{
place = (324, 57);
place = (324, 57);
type = Stem;
},
{
place = (436, 57);
place = (436, 57);
type = Stem;
},
{
place = (685, 57);
place = (685, 57);
type = Stem;
},
{
horizontal = 1;
place = (-14, 47);
place = (-14, 47);
type = Stem;
},
{
horizontal = 1;
place = (330, 46);
place = (330, 46);
type = Stem;
},
{
horizontal = 1;
place = (653, 47);
place = (653, 47);
type = Stem;
}
);
layerId = m01;
shapes = (
{
closed = 1;
nodes = (
(118,0,l),
(173,0,l),
(701,685,l),
(646,685,l)
);
},
{
closed = 1;
nodes = (
(682,-14,o),
(742,106,o),
(742,224,cs),
(742,318,o),
(692,376,o),
(612,376,cs),
(499,376,o),
(436,256,o),
(436,139,cs),
(436,45,o),
(488,-14,o),
(570,-14,cs)
);
},
{
closed = 1;
nodes = (
(517,33,o),
(493,79,o),
(493,139,cs),
(493,226,o),
(530,330,o),
(609,330,cs),
(664,330,o),
(685,283,o),
(685,223,cs),
(685,138,o),
(652,32,o),
(571,33,cs)
);
},
{
closed = 1;
nodes = (
(321,310,o),
(381,430,o),
(381,547,cs),
(381,641,o),
(331,700,o),
(251,700,cs),
(137,700,o),
(75,579,o),
(75,463,cs),
(75,369,o),
(127,310,o),
(209,310,cs)
);
},
{
closed = 1;
nodes = (
(155,357,o),
(132,403,o),
(132,462,cs),
(132,549,o),
(168,653,o),
(248,653,cs),
(303,653,o),
(324,607,o),
(324,547,cs),
(324,461,o),
(291,356,o),
(210,356,cs)
);
}
);
width = 786;
}
);
note = percent;
unicode = 37;
},
{
glyphname = ampersand;
kernLeft = ampersand;
kernRight = ampersand;
layers = (
{
hints = (
{
horizontal = 1;
place = (0, 21);
target = up;
type = BottomGhost;
},
{
horizontal = 1;
place = (654, 52);
place = (654, 52);
type = Stem;
},
{
place = (14, 65);
place = (14, 65);
type = Stem;
},
{
place = (153, 63);
place = (153, 63);
type = Stem;
},
{
place = (388, 62);
place = (388, 62);
type = Stem;
},
{
horizontal = 1;
place = (-13, 54);
place = (-13, 54);
type = Stem;
}
);
layerId = m01;
shapes = (
{
closed = 1;
nodes = (
(519,0,l),
(448,115,l),
(487,169,o),
(515,237,o),
(527,325,c),
(471,325,l),
(460,258,o),
(442,207,o),
(418,166,c),
(291,380,l),
(368,419,o),
(450,472,o),
(450,571,cs),
(450,657,o),
(389,706,o),
(312,706,cs),
(218,706,o),
(153,636,o),
(153,549,cs),
(153,498,o),
(171,457,o),
(211,397,c),
(103,345,o),
(14,290,o),
(14,169,cs),
(14,42,o),
(111,-13,o),
(215,-13,cs),
(289,-13,o),
(358,18,o),
(406,67,c),
(448,0,l)
);
},
{
closed = 1;
nodes = (
(136,41,o),
(79,88,o),
(79,171,cs),
(79,274,o),
(162,319,o),
(236,354,c),
(379,115,l),
(338,70,o),
(279,41,o),
(217,41,cs)
);
},
{
closed = 1;
nodes = (
(216,612,o),
(252,654,o),
(308,654,cs),
(359,654,o),
(388,617,o),
(388,569,cs),
(388,490,o),
(322,452,o),
(266,422,c),
(229,479,o),
(216,513,o),
(216,552,cs)
);
}
);
width = 565;
}
);
note = ampersand;
unicode = 38;
},
{
glyphname = quotesingle;
kernLeft = quotedbl;
kernRight = quotedbl;
layers = (
{
hints = (
{
horizontal = 1;
place = (715, -20);
target = down;
type = TopGhost;
},
{
place = (89, 100);
place = (89, 100);
type = Stem;
},
{
horizontal = 1;
place = (501, 214);
place = (501, 214);
type = Stem;
}
);
layerId = m01;
shapes = (
{
closed = 1;
nodes = (
(189,715,l),
(130,715,l),
(89,501,l),
(148,501,l)
);
}
);
width = 143;
}
);
note = quotesingle;
unicode = 39;
},
{
glyphname = parenleft;
kernRight = parenleft;
layers = (
{
hints = (
{
horizontal = 1;
place = (-118, 872);
place = (-118, 872);
type = Stem;
},
{
place = (70, 68);
place = (70, 68);
type = Stem;
}
);
layerId = m01;
shapes = (
{
closed = 1;
nodes = (
(306,754,l),
(156,594,o),
(67,414,o),
(70,174,cs),
(72,60,o),
(95,-31,o),
(136,-118,c),
(189,-118,l),
(157,-31,o),
(138,59,o),
(138,169,cs),
(138,396,o),
(221,586,o),
(364,754,c)
);
}
);
width = 280;
}
);
note = parenleft;
unicode = 40;
},
{
glyphname = parenright;
kernLeft = parenright;
layers = (
{
hints = (
{
horizontal = 1;
place = (-118, 872);
place = (-118, 872);
type = Stem;
},
{
place = (167, 68);
place = (167, 68);
type = Stem;
}
);
layerId = m01;
shapes = (
{
closed = 1;
nodes = (
(0,-118,l),
(149,42,o),
(238,222,o),
(235,462,cs),
(234,576,o),
(210,667,o),
(169,754,c),
(116,754,l),
(149,667,o),
(167,577,o),
(167,467,cs),
(167,240,o),
(85,50,o),
(-58,-118,c)
);
}
);
width = 280;
}
);
note = parenright;
unicode = 41;
},
{
glyphname = asterisk;
kernLeft = asterisk;
kernRight = asterisk;
layers = (
{
hints = (
{
horizontal = 1;
place = (715, -20);
target = down;
type = TopGhost;
},
{
place = (106, 272);
place = (106, 272);
type = Stem;
}
);
layerId = m01;
shapes = (
{
closed = 1;
nodes = (
(145,447,l),
(230,541,l),
(278,442,l),
(317,462,l),
(271,558,l),
(378,587,l),
(368,628,l),
(264,599,l),
(286,715,l),
(240,715,l),
(217,599,l),
(125,642,l),
(106,605,l),
(195,563,l),
(115,476,l)
);
}
);
width = 354;
}
);
note = asterisk;
unicode = 42;
},
{
glyphname = plus;
kernLeft = minus;
kernRight = minus;
layers = (
{
hints = (
{
horizontal = 1;
place = (300, 53);
place = (300, 53);
type = Stem;
},
{
place = (61, 425);
place = (61, 425);
type = Stem;
}
);
layerId = m01;
shapes = (
{
closed = 1;
nodes = (
(61,300,l),
(240,300,l),
(203,106,l),
(259,106,l),
(296,300,l),
(475,300,l),
(486,353,l),
(307,353,l),
(344,545,l),
(288,545,l),
(251,353,l),
(72,353,l)
);
}
);
width = 522;
}
);
note = plus;
unicode = 43;
},
{
glyphname = comma;
kernLeft = comma;
kernRight = comma;
layers = (
{
hints = (
{
horizontal = 1;
place = (0, 87);
place = (0, 87);
type = Stem;
},
{
place = (-30, 112);
place = (-30, 112);
type = Stem;
}
);
layerId = m01;
shapes = (
{
closed = 1;
nodes = (
(-30,-108,l),
(21,-100,o),
(51,-73,o),
(63,-11,cs),
(82,87,l),
(8,87,l),
(-9,0,l),
(25,0,l),
(24,-3,ls),
(15,-52,o),
(-1,-66,o),
(-24,-72,c)
);
}
);
width = 157;
}
);
note = comma;
unicode = 44;
},
{
glyphname = hyphen;
kernLeft = hyphen;
kernRight = hyphen;
layers = (
{
hints = (
{
horizontal = 1;
place = (253, 55);
place = (253, 55);
type = Stem;
},
{
place = (32, 264);
place = (32, 264);
type = Stem;
}
);
layerId = m01;
shapes = (
{
closed = 1;
nodes = (
(32,253,l),
(285,253,l),
(296,308,l),
(43,308,l)
);
}
);
width = 321;
}
);
note = hyphen;
unicode = 45;
},
{
glyphname = period;
kernLeft = comma;
kernRight = comma;
layers = (
{
hints = (
{
horizontal = 1;
place = (0, 87);
place = (0, 87);
type = Stem;
},
{
place = (-9, 91);
place = (-9, 91);
type = Stem;
}
);
layerId = m01;
shapes = (
{
closed = 1;
nodes = (
(82,87,l),
(8,87,l),
(-9,0,l),
(66,0,l)
);
}
);
width = 157;
}
);
note = period;
unicode = 46;
},
{
glyphname = slash;
kernLeft = slash;
kernRight = slash;
layers = (
{
hints = (
{
horizontal = 1;
place = (0, 21);
target = up;
type = BottomGhost;
},
{
horizontal = 1;
place = (715, -20);
target = down;
type = TopGhost;
},
{
place = (-34, 481);
place = (-34, 481);
type = Stem;
}
);
layerId = m01;
shapes = (
{
closed = 1;
nodes = (
(447,715,l),
(381,715,l),
(-34,0,l),
(32,0,l)
);
}
);
width = 375;
}
);
note = slash;
unicode = 47;
},
{
glyphname = zero;
kernLeft = zero;
kernRight = zero;
layers = (
{
hints = (
{
horizontal = 1;
place = (-14, 55);
place = (-14, 55);
type = Stem;
},
{
horizontal = 1;
place = (646, 54);
place = (646, 54);
type = Stem;
},
{
place = (44, 66);
place = (44, 66);
type = Stem;
},
{
place = (495, 66);
place = (495, 66);
type = Stem;
}
);
layerId = m01;
shapes = (
{
closed = 1;
nodes = (
(483,-14,o),
(561,260,o),
(561,440,cs),
(561,589,o),
(491,700,o),
(348,700,cs),
(128,700,o),
(44,426,o),
(44,247,cs),
(44,96,o),
(116,-14,o),
(262,-14,cs)
);
},
{
closed = 1;
nodes = (
(145,41,o),
(110,146,o),
(110,246,cs),
(110,392,o),
(170,646,o),
(347,646,cs),
(462,646,o),
(495,538,o),
(495,439,cs),
(494,292,o),
(439,41,o),
(264,41,cs)
);
}
);
width = 573;
}
);
note = zero;
unicode = 48;
},
{
glyphname = one;
kernLeft = one;
kernRight = one;
layers = (
{
hints = (
{
horizontal = 1;
place = (0, 21);
target = up;
type = BottomGhost;
},
{
horizontal = 1;
place = (515, 174);
place = (515, 174);
type = Stem;
},
{
place = (65, 239);
place = (65, 239);
type = Stem;
}
);
layerId = m01;
shapes = (
{
closed = 1;
nodes = (
(256,689,l),
(229,594,o),
(176,564,o),
(74,559,c),
(65,515,l),
(207,515,l),
(107,0,l),
(171,0,l),
(304,689,l)
);
}
);
width = 309;
}
);
note = one;
unicode = 49;
},
{
glyphname = two;
kernLeft = two;
kernRight = two;
layers = (
{
hints = (
{
horizontal = 1;
place = (0, 60);
place = (0, 60);
type = Stem;
},
{
horizontal = 1;
place = (645, 54);
place = (645, 54);
type = Stem;
},
{
place = (443, 65);
place = (443, 65);
type = Stem;
}
);
layerId = m01;
shapes = (
{
closed = 1;
nodes = (
(437,60,l),
(68,60,l),
(95,152,o),
(185,207,o),
(281,258,cs),
(400,320,o),
(508,378,o),
(508,519,cs),
(508,640,o),
(417,699,o),
(314,699,cs),
(189,699,o),
(95,624,o),
(71,465,c),
(134,465,l),
(157,588,o),
(218,645,o),
(312,645,cs),
(392,645,o),
(442,599,o),
(443,519,cs),
(443,408,o),
(362,362,o),
(260,308,cs),
(143,246,o),
(15,176,o),
(-14,0,c),
(425,0,l)
);
}
);
width = 507;
}
);
note = two;
unicode = 50;
},
{
glyphname = three;
kernLeft = three;
kernRight = three;
layers = (
{
hints = (
{
horizontal = 1;
place = (-14, 56);
place = (-14, 56);
type = Stem;
},
{
horizontal = 1;
place = (338, 52);
place = (338, 52);
type = Stem;
},
{
horizontal = 1;
place = (648, 52);
place = (648, 52);
type = Stem;
},
{
place = (411, 66);
place = (411, 66);
type = Stem;
},
{
place = (440, 64);
place = (440, 64);
type = Stem;
}
);
layerId = m01;
shapes = (
{
closed = 1;
nodes = (
(10,212,l),
(11,67,o),
(105,-14,o),
(243,-14,cs),
(376,-14,o),
(477,73,o),
(477,205,cs),
(477,277,o),
(439,334,o),
(380,359,c),
(380,362,l),
(455,388,o),
(504,449,o),
(504,532,cs),
(504,651,o),
(410,700,o),
(314,700,cs),
(187,700,o),
(95,613,o),
(76,483,c),
(140,483,l),
(154,579,o),
(218,648,o),
(312,648,cs),
(386,648,o),
(440,610,o),
(440,530,cs),
(440,433,o),
(371,390,o),
(288,390,cs),
(233,390,l),
(223,338,l),
(264,338,ls),
(352,338,o),
(411,287,o),
(411,203,cs),
(411,99,o),
(340,42,o),
(245,42,cs),
(129,42,o),
(77,112,o),
(74,212,c)
);
}
);
width = 518;
}
);
note = three;
unicode = 51;
},
{
glyphname = four;
kernLeft = four;
kernRight = four;
layers = (
{
hints = (
{
horizontal = 1;
place = (0, 21);
target = up;
type = BottomGhost;
},
{
horizontal = 1;
place = (176, 53);
place = (176, 53);
type = Stem;
},
{
horizontal = 1;
place = (692, -20);
target = down;
type = TopGhost;
},
{
place = (7, 491);
place = (7, 491);
type = Stem;
}
);
layerId = m01;
shapes = (
{
closed = 1;
nodes = (
(351,0,l),
(384,176,l),
(488,176,l),
(498,229,l),
(394,229,l),
(485,692,l),
(431,692,l),
(19,235,l),
(7,176,l),
(321,176,l),
(288,0,l)
);
},
{
closed = 1;
nodes = (
(398,580,l),
(400,580,l),
(332,229,l),
(85,229,l),
(85,232,l)
);
}
);
width = 529;
}
);
note = four;
unicode = 52;
},
{
glyphname = five;
kernLeft = five;
kernRight = five;
layers = (
{
hints = (
{
horizontal = 1;
place = (-14, 58);
place = (-14, 58);
type = Stem;
},
{
horizontal = 1;
place = (392, 56);
place = (392, 56);
type = Stem;
},
{
horizontal = 1;
place = (628, 57);
place = (628, 57);
type = Stem;
},
{
place = (403, 66);
place = (403, 66);
type = Stem;
},
{
horizontal = 1;
place = (321, 71);
place = (321, 71);
type = Stem;
}
);
layerId = m01;
shapes = (
{
closed = 1;
nodes = (
(503,685,l),
(162,685,l),
(54,321,l),
(116,321,l),
(147,360,o),
(191,392,o),
(263,392,cs),
(352,392,o),
(403,335,o),
(403,243,cs),
(403,127,o),
(341,44,o),
(227,44,cs),
(133,44,o),
(79,99,o),
(72,185,c),
(8,185,l),
(15,58,o),
(112,-14,o),
(226,-14,cs),
(378,-14,o),
(469,103,o),
(469,244,cs),
(469,374,o),
(386,448,o),
(276,448,cs),
(221,448,o),
(171,430,o),
(133,392,c),
(131,392,l),
(201,628,l),
(492,628,l)
);
}
);
width = 499;
}
);
note = five;
unicode = 53;
},
{
glyphname = six;
kernLeft = six;
kernRight = six;
layers = (
{
hints = (
{
horizontal = 1;
place = (-14, 53);
place = (-14, 53);
type = Stem;
},
{
horizontal = 1;
place = (388, 53);
place = (388, 53);
type = Stem;
},
{
horizontal = 1;
place = (645, 55);
place = (645, 55);
type = Stem;
},
{
place = (44, 62);
place = (44, 62);
type = Stem;
},
{
place = (472, 63);
place = (472, 63);
type = Stem;
},
{
place = (434, 62);
place = (434, 62);
type = Stem;
}
);
layerId = m01;
shapes = (
{
closed = 1;
nodes = (
(535,522,l),
(529,638,o),
(462,700,o),
(354,700,cs),
(137,700,o),
(44,425,o),
(44,234,cs),
(44,140,o),
(67,78,o),
(117,35,cs),
(150,6,o),
(197,-14,o),
(258,-14,cs),
(404,-13,o),
(496,101,o),
(496,238,cs),
(496,367,o),
(408,441,o),
(299,441,cs),
(228,441,o),
(161,407,o),
(118,342,c),
(116,342,l),
(151,528,o),
(227,645,o),
(351,645,cs),
(425,645,o),
(468,600,o),
(472,522,c)
);
},
{
closed = 1;
nodes = (
(106,303,o),
(182,388,o),
(291,388,cs),
(381,388,o),
(434,325,o),
(434,237,cs),
(434,125,o),
(373,39,o),
(258,39,cs),
(170,39,o),
(106,97,o),
(106,194,cs)
);
}
);
width = 540;
}
);
note = six;
unicode = 54;
},
{
glyphname = seven;
kernLeft = seven;
kernRight = seven;
layers = (
{
hints = (
{
horizontal = 1;
place = (0, 21);
target = up;
type = BottomGhost;
},
{
horizontal = 1;
place = (629, 56);
place = (629, 56);
type = Stem;
},
{
place = (91, 448);
place = (91, 448);
type = Stem;
}
);
layerId = m01;
shapes = (
{
closed = 1;
nodes = (
(168,0,l),
(225,269,o),
(374,497,o),
(528,631,c),
(539,685,l),
(103,685,l),
(91,629,l),
(457,629,l),
(457,627,l),
(298,488,o),
(152,239,o),
(100,0,c)
);
}
);
width = 476;
}
);
note = seven;
unicode = 55;
},
{
glyphname = eight;
kernLeft = eight;
kernRight = eight;
layers = (
{
hints = (
{
horizontal = 1;
place = (-14, 54);
place = (-14, 54);
type = Stem;
},
{
horizontal = 1;
place = (346, 52);
place = (346, 52);
type = Stem;
},
{
horizontal = 1;
place = (647, 53);
place = (647, 53);
type = Stem;
},
{
place = (20, 66);
place = (20, 66);
type = Stem;
},
{
place = (431, 64);
place = (431, 64);
type = Stem;
},
{
place = (107, 63);
place = (107, 63);
type = Stem;
},
{
place = (453, 63);
place = (453, 63);
type = Stem;
}
);
layerId = m01;
shapes = (
{
closed = 1;
nodes = (
(390,-14,o),
(496,70,o),
(495,209,cs),
(495,284,o),
(451,341,o),
(388,365,c),
(388,368,l),
(465,395,o),
(516,450,o),
(516,532,cs),
(516,652,o),
(414,700,o),
(325,700,cs),
(204,700,o),
(107,621,o),
(107,504,cs),
(107,448,o),
(136,403,o),
(184,379,c),
(184,376,l),
(86,348,o),
(20,284,o),
(20,176,cs),
(20,42,o),
(144,-14,o),
(246,-14,cs)
);
},
{
closed = 1;
nodes = (
(164,40,o),
(86,84,o),
(86,179,cs),
(86,291,o),
(171,346,o),
(271,346,cs),
(355,346,o),
(430,303,o),
(431,208,cs),
(431,96,o),
(350,40,o),
(250,40,cs)
);
},
{
closed = 1;
nodes = (
(227,398,o),
(170,435,o),
(170,506,cs),
(170,594,o),
(239,647,o),
(322,647,cs),
(393,647,o),
(453,605,o),
(453,529,cs),
(453,435,o),
(376,398,o),
(300,398,cs)
);
}
);
width = 536;
}
);
note = eight;
unicode = 56;
},
{
glyphname = nine;
kernLeft = nine;
kernRight = nine;
layers = (
{
hints = (
{
horizontal = 1;
place = (-14, 55);
place = (-14, 55);
type = Stem;
},
{
horizontal = 1;
place = (245, 53);
place = (245, 53);
type = Stem;
},
{
horizontal = 1;
place = (647, 53);
place = (647, 53);
type = Stem;
},
{
place = (66, 63);
place = (66, 63);
type = Stem;
},
{
place = (458, 63);
place = (458, 63);
type = Stem;
}
);
layerId = m01;
shapes = (
{
closed = 1;
nodes = (
(21,168,l),
(26,44,o),
(108,-14,o),
(216,-14,cs),
(280,-14,o),
(335,6,o),
(380,46,cs),
(479,134,o),
(521,316,o),
(521,454,cs),
(521,546,o),
(498,609,o),
(448,652,cs),
(415,680,o),
(366,700,o),
(306,700,cs),
(167,699,o),
(66,586,o),
(66,450,cs),
(66,321,o),
(155,245,o),
(264,245,cs),
(335,245,o),
(406,280,o),
(449,346,c),
(451,346,l),
(430,231,o),
(394,138,o),
(346,90,cs),
(310,55,o),
(269,41,o),
(219,41,cs),
(145,41,o),
(87,79,o),
(84,168,c)
);
},
{
closed = 1;
nodes = (
(458,383,o),
(381,298,o),
(269,298,cs),
(182,298,o),
(129,361,o),
(129,451,cs),
(129,561,o),
(196,647,o),
(305,647,cs),
(394,647,o),
(458,589,o),
(458,492,cs)
);
}
);
width = 537;
}
);
note = nine;
unicode = 57;
},
{
glyphname = colon;
kernLeft = colon;
kernRight = colon;
layers = (
{
hints = (
{
horizontal = 1;
place = (0, 87);
place = (0, 87);
type = Stem;
},
{
horizontal = 1;
place = (307, 87);
place = (307, 87);
type = Stem;
},
{
place = (-5, 151);
place = (-5, 151);
type = Stem;
}
);
layerId = m01;
shapes = (
{
closed = 1;
nodes = (
(86,87,l),
(12,87,l),
(-5,0,l),
(70,0,l)
);
},
{
closed = 1;
nodes = (
(146,394,l),
(72,394,l),
(55,307,l),
(129,307,l)
);
}
);
width = 166;
}
);
note = colon;
unicode = 58;
},
{
glyphname = semicolon;
kernLeft = colon;
kernRight = colon;
layers = (
{
hints = (
{
horizontal = 1;
place = (0, 87);
place = (0, 87);
type = Stem;
},
{
horizontal = 1;
place = (307, 87);
place = (307, 87);
type = Stem;
},
{
place = (-26, 172);
place = (-26, 172);
type = Stem;
}
);
layerId = m01;
shapes = (
{
closed = 1;
nodes = (
(146,394,l),
(72,394,l),
(55,307,l),
(129,307,l)
);
},
{
closed = 1;
nodes = (
(-26,-108,l),
(25,-100,o),
(55,-73,o),
(67,-11,cs),
(86,87,l),
(12,87,l),
(-5,0,l),
(29,0,l),
(28,-3,ls),
(19,-52,o),
(3,-66,o),
(-19,-72,c)
);
}
);
width = 166;
}
);
note = semicolon;
unicode = 59;
},
{
glyphname = less;
layers = (
{
hints = (
{
horizontal = 1;
place = (109, 405);
place = (109, 405);
type = Stem;
},
{
place = (53, 435);
place = (53, 435);
type = Stem;
}
);
layerId = m01;
shapes = (
{
closed = 1;
nodes = (
(408,109,l),
(420,165,l),
(110,310,l),
(110,312,l),
(476,453,l),
(488,514,l),
(66,348,l),
(53,280,l)
);
}
);
width = 491;
}
);
note = less;
unicode = 60;
},
{
glyphname = equal;
layers = (
{
hints = (
{
horizontal = 1;
place = (205, 52);
place = (205, 52);
type = Stem;
},
{
horizontal = 1;
place = (365, 52);
place = (365, 52);
type = Stem;
},
{
place = (43, 456);
place = (43, 456);
type = Stem;
}
);
layerId = m01;
shapes = (
{
closed = 1;
nodes = (
(74,365,l),
(488,365,l),
(499,417,l),
(85,417,l)
);
},
{
closed = 1;
nodes = (
(43,205,l),
(457,205,l),
(468,257,l),
(54,257,l)
);
}
);
width = 522;
}
);
note = equal;
unicode = 61;
},
{
glyphname = greater;
layers = (
{
hints = (
{
horizontal = 1;
place = (109, 405);
place = (109, 405);
type = Stem;
},
{
place = (23, 435);
place = (23, 435);
type = Stem;
}
);
layerId = m01;
shapes = (
{
closed = 1;
nodes = (
(103,514,l),
(91,458,l),
(401,313,l),
(401,311,l),
(35,170,l),
(23,109,l),
(445,275,l),
(458,343,l)
);
}
);
width = 491;
}
);
note = greater;
unicode = 62;
},
{
glyphname = question;
kernLeft = question;
layers = (
{
hints = (
{
horizontal = 1;
place = (0, 87);
place = (0, 87);
type = Stem;
},
{
horizontal = 1;
place = (673, 55);
place = (673, 55);
type = Stem;
},
{
place = (439, 65);
place = (439, 65);
type = Stem;
}
);
layerId = m01;
shapes = (
{
closed = 1;
nodes = (
(244,173,l),
(263,278,o),
(293,306,o),
(369,359,cs),
(448,415,o),
(504,467,o),
(504,564,cs),
(504,675,o),
(414,728,o),
(317,728,cs),
(178,728,o),
(90,632,o),
(72,504,c),
(135,504,l),
(155,613,o),
(221,673,o),
(313,673,cs),
(384,673,o),
(439,635,o),
(439,563,cs),
(439,476,o),
(381,438,o),
(325,397,cs),
(241,337,o),
(207,297,o),
(185,173,c)
);
},
{
closed = 1;
nodes = (
(237,87,l),
(163,87,l),
(146,0,l),
(220,0,l)
);
}
);
width = 486;
}
);
note = question;
unicode = 63;
},
{
glyphname = at;
kernLeft = at;
kernRight = at;
layers = (
{
hints = (
{
horizontal = 1;
place = (-102, 50);
place = (-102, 50);
type = Stem;
},
{
horizontal = 1;
place = (90, 49);
place = (90, 49);
type = Stem;
},
{
horizontal = 1;
place = (474, 49);
place = (474, 49);
type = Stem;
},
{
horizontal = 1;
place = (661, 51);
place = (661, 51);
type = Stem;
},
{
place = (39, 56);
place = (39, 56);
type = Stem;
},
{
place = (230, 61);
place = (230, 61);
type = Stem;
},
{
place = (781, 55);
place = (781, 55);
type = Stem;
},
{
horizontal = 1;
place = (82, 49);
place = (82, 49);
type = Stem;
},
{
place = (533, 51);
place = (533, 51);
type = Stem;
}
);
layerId = m01;
shapes = (
{
closed = 1;
nodes = (
(649,514,l),
(593,514,l),
(576,444,l),
(574,444,l),
(554,493,o),
(513,523,o),
(448,523,cs),
(303,523,o),
(230,376,o),
(230,252,cs),
(230,146,o),
(288,82,o),
(384,82,cs),
(444,82,o),
(500,117,o),
(531,164,c),
(533,164,l),
(538,125,o),
(570,90,o),
(638,90,cs),
(773,90,o),
(836,229,o),
(836,365,cs),
(836,591,o),
(664,712,o),
(472,712,cs),
(233,712,o),
(39,523,o),
(39,267,cs),
(39,45,o),
(186,-102,o),
(423,-102,cs),
(498,-102,o),
(567,-86,o),
(631,-59,c),
(614,-14,l),
(553,-37,o),
(491,-52,o),
(422,-52,cs),
(208,-52,o),
(95,80,o),
(95,268,cs),
(95,505,o),
(265,661,o),
(470,661,cs),
(649,661,o),
(781,562,o),
(781,364,cs),
(781,241,o),
(731,139,o),
(643,139,cs),
(591,139,o),
(576,176,o),
(588,230,cs)
);
},
{
closed = 1;
nodes = (
(544,234,o),
(494,131,o),
(389,131,cs),
(318,131,o),
(291,183,o),
(291,252,cs),
(291,351,o),
(339,474,o),
(446,474,cs),
(524,474,o),
(555,420,o),
(551,343,cs)
);
}
);
width = 856;
}
);
note = at;
unicode = 64;
},
{
glyphname = A;
kernLeft = A;
kernRight = A;
layers = (
{
hints = (
{
horizontal = 1;
place = (0, 21);
target = up;
type = BottomGhost;
},
{
horizontal = 1;
place = (225, 55);
place = (225, 55);
type = Stem;
},
{
horizontal = 1;
place = (715, -20);
target = down;
type = TopGhost;
},
{
place = (-43, 601);
place = (-43, 601);
type = Stem;
},
{
horizontal = 1;
place = (651, 64);
place = (651, 64);
type = Stem;
}
);
layerId = m01;
shapes = (
{
closed = 1;
nodes = (
(489,0,l),
(558,0,l),
(417,715,l),
(342,715,l),
(-43,0,l),
(25,0,l),
(144,225,l),
(447,225,l)
);
},
{
closed = 1;
nodes = (
(316,546,ls),
(340,592,o),
(368,651,o),
(368,651,c),
(370,651,l),
(370,651,o),
(379,587,o),
(387,547,cs),
(437,280,l),
(174,280,l)
);
}
);
width = 616;
}
);
note = A;
unicode = 65;
},
{
glyphname = B;
layers = (
{
hints = (
{
horizontal = 1;
place = (0, 60);
place = (0, 60);
type = Stem;
},
{
horizontal = 1;
place = (344, 57);
place = (344, 57);
type = Stem;
},
{
horizontal = 1;
place = (657, 58);
place = (657, 58);
type = Stem;
},
{
place = (525, 67);
place = (525, 67);
type = Stem;
},
{
place = (504, 67);
place = (504, 67);
type = Stem;
}
);
layerId = m01;
shapes = (
{
closed = 1;
nodes = (
(592,604,o),
(571,646,o),
(538,674,cs),
(504,701,o),
(460,715,o),
(404,715,cs),
(151,715,l),
(13,0,l),
(313,0,ls),
(393,0,o),
(465,21,o),
(511,68,cs),
(548,104,o),
(571,159,o),
(571,222,cs),
(571,302,o),
(529,352,o),
(462,373,c),
(462,375,l),
(541,400,o),
(592,461,o),
(592,550,cs)
);
},
{
closed = 1;
nodes = (
(370,344,ls),
(457,344,o),
(504,299,o),
(504,221,cs),
(504,173,o),
(489,134,o),
(462,108,cs),
(427,73,o),
(376,60,o),
(313,60,cs),
(90,60,l),
(145,344,l)
);
},
{
closed = 1;
nodes = (
(205,657,l),
(401,657,ls),
(480,657,o),
(525,618,o),
(525,547,cs),
(525,449,o),
(459,401,o),
(363,401,cs),
(156,401,l)
);
}
);
width = 606;
}
);
note = B;
unicode = 66;
},
{
glyphname = C;
kernLeft = C;
kernRight = C;
layers = (
{
hints = (
{
horizontal = 1;
place = (-13, 58);
place = (-13, 58);
type = Stem;
},
{
horizontal = 1;
place = (673, 57);
place = (673, 57);
type = Stem;
},
{
place = (48, 69);
place = (48, 69);
type = Stem;
}
);
layerId = m01;
shapes = (
{
closed = 1;
nodes = (
(659,513,l),
(644,656,o),
(548,730,o),
(414,730,cs),
(172,730,o),
(48,500,o),
(48,291,cs),
(48,110,o),
(145,-13,o),
(329,-13,cs),
(414,-13,o),
(485,16,o),
(536,67,cs),
(586,116,o),
(620,183,o),
(637,260,c),
(572,260,l),
(544,137,o),
(462,45,o),
(332,45,cs),
(180,45,o),
(117,153,o),
(117,293,cs),
(117,475,o),
(207,673,o),
(408,673,cs),
(515,673,o),
(580,614,o),
(594,513,c)
);
}
);
width = 658;
}
);
note = C;
unicode = 67;
},
{
glyphname = D;
kernRight = Eth;
layers = (
{
hints = (
{
horizontal = 1;
place = (0, 58);
place = (0, 58);
type = Stem;
},
{
horizontal = 1;
place = (657, 58);
place = (657, 58);
type = Stem;
},
{
place = (571, 69);
place = (571, 69);
type = Stem;
}
);
layerId = m01;
shapes = (
{
closed = 1;
nodes = (
(13,0,l),
(268,0,ls),
(523,0,o),
(640,205,o),
(640,434,cs),
(640,604,o),
(560,715,o),
(373,715,cs),
(151,715,l)
);
},
{
closed = 1;
nodes = (
(205,657,l),
(369,657,ls),
(515,657,o),
(571,569,o),
(571,430,cs),
(571,226,o),
(477,58,o),
(265,58,cs),
(90,58,l)
);
}
);
width = 650;
}
);
note = D;
unicode = 68;
},
{
glyphname = E;
kernRight = E;
layers = (
{
hints = (
{
horizontal = 1;
place = (0, 61);
place = (0, 61);
type = Stem;
},
{
horizontal = 1;
place = (342, 57);
place = (342, 57);
type = Stem;
},
{
horizontal = 1;
place = (657, 58);
place = (657, 58);
type = Stem;
},
{
place = (13, 590);
place = (13, 590);
type = Stem;
}
);
layerId = m01;
shapes = (
{
closed = 1;
nodes = (
(13,0,l),
(488,0,l),
(500,61,l),
(91,61,l),
(145,342,l),
(505,342,l),
(517,399,l),
(156,399,l),
(206,657,l),
(592,657,l),
(603,715,l),
(151,715,l)
);
}
);
width = 572;
}
);
note = E;
unicode = 69;
},
{
glyphname = F;
kernRight = F;
layers = (
{
hints = (
{
horizontal = 1;
place = (0, 21);
target = up;
type = BottomGhost;
},
{
horizontal = 1;
place = (345, 56);
place = (345, 56);
type = Stem;
},
{
horizontal = 1;
place = (657, 58);
place = (657, 58);
type = Stem;
},
{
place = (13, 580);
place = (13, 580);
type = Stem;
}
);
layerId = m01;
shapes = (
{
closed = 1;
nodes = (
(13,0,l),
(79,0,l),
(146,345,l),
(476,345,l),
(487,401,l),
(156,401,l),
(205,657,l),
(583,657,l),
(593,715,l),
(151,715,l)
);
}
);
width = 532;
}
);
note = F;
unicode = 70;
},
{
glyphname = G;
kernLeft = C;
kernRight = G;
layers = (
{
hints = (
{
horizontal = 1;
place = (-14, 58);
place = (-14, 58);
type = Stem;
},
{
horizontal = 1;
place = (309, 58);
place = (309, 58);
type = Stem;
},
{
horizontal = 1;
place = (672, 58);
place = (672, 58);
type = Stem;
},
{
place = (48, 69);
place = (48, 69);
type = Stem;
},
{
horizontal = 1;
place = (0, 21);
target = up;
type = BottomGhost;
}
);
layerId = m01;
shapes = (
{
closed = 1;
nodes = (
(667,367,l),
(376,367,l),
(365,309,l),
(591,309,l),
(585,278,ls),
(561,151,o),
(484,44,o),
(332,44,cs),
(191,44,o),
(117,134,o),
(117,292,cs),
(117,486,o),
(219,672,o),
(420,672,cs),
(524,672,o),
(598,610,o),
(604,508,c),
(669,508,l),
(658,657,o),
(557,730,o),
(422,730,cs),
(182,730,o),
(48,509,o),
(48,290,cs),
(48,91,o),
(162,-14,o),
(326,-14,cs),
(447,-14,o),
(514,50,o),
(555,105,c),
(558,105,l),
(549,0,l),
(597,0,l)
);
}
);
width = 701;
}
);
note = G;
unicode = 71;
},
{
glyphname = H;
layers = (
{
hints = (
{
horizontal = 1;
place = (0, 21);
target = up;
type = BottomGhost;
},
{
horizontal = 1;
place = (350, 56);
place = (350, 56);
type = Stem;
},
{
horizontal = 1;
place = (715, -20);
target = down;
type = TopGhost;
},
{
place = (13, 648);
place = (13, 648);
type = Stem;
}
);
layerId = m01;
shapes = (
{
closed = 1;
nodes = (
(13,0,l),
(79,0,l),
(146,350,l),
(524,350,l),
(457,0,l),
(523,0,l),
(661,715,l),
(595,715,l),
(535,406,l),
(157,406,l),
(217,715,l),
(151,715,l)
);
}
);
width = 636;
}
);
note = H;
unicode = 72;
},
{
glyphname = I;
layers = (
{
hints = (
{
horizontal = 1;
place = (0, 21);
target = up;
type = BottomGhost;
},
{
horizontal = 1;
place = (715, -20);
target = down;
type = TopGhost;
},
{
place = (16, 204);
place = (16, 204);
type = Stem;
}
);
layerId = m01;
shapes = (
{
closed = 1;
nodes = (
(220,715,l),
(154,715,l),
(16,0,l),
(82,0,l)
);
}
);
width = 198;
}
);
note = I;
unicode = 73;
},
{
glyphname = J;
kernLeft = J;
kernRight = J;
layers = (
{
hints = (
{
horizontal = 1;
place = (-13, 56);
place = (-13, 56);
type = Stem;
},
{
horizontal = 1;
place = (715, -20);
target = down;
type = TopGhost;
},
{
place = (1, 66);
place = (1, 66);
type = Stem;
}
);
layerId = m01;
shapes = (
{
closed = 1;
nodes = (
(11,226,l),
(8,208,ls),
(-23,52,o),
(53,-13,o),
(180,-13,cs),
(304,-13,o),
(366,59,o),
(385,154,cs),
(493,715,l),
(427,715,l),
(320,166,ls),
(303,81,o),
(259,43,o),
(183,43,cs),
(72,43,o),
(54,112,o),
(73,211,cs),
(76,226,l)
);
}
);
width = 463;
}
);
note = J;
unicode = 74;
},
{
glyphname = K;
kernRight = K;
layers = (
{
hints = (
{
horizontal = 1;
place = (0, 21);
target = up;
type = BottomGhost;
},
{
horizontal = 1;
place = (715, -20);
target = down;
type = TopGhost;
},
{
place = (13, 641);
place = (13, 641);
type = Stem;
}
);
layerId = m01;
shapes = (
{
closed = 1;
nodes = (
(654,715,l),
(567,715,l),
(143,335,l),
(217,715,l),
(151,715,l),
(13,0,l),
(79,0,l),
(127,250,l),
(275,380,l),
(479,0,l),
(552,0,l),
(325,424,l)
);
}
);
width = 599;
}
);
note = K;
unicode = 75;
},
{
glyphname = L;
kernRight = L;
layers = (
{
hints = (
{
horizontal = 1;
place = (0, 61);
place = (0, 61);
type = Stem;
},
{
horizontal = 1;
place = (715, -20);
target = down;
type = TopGhost;
},
{
place = (13, 441);
place = (13, 441);
type = Stem;
}
);
layerId = m01;
shapes = (
{
closed = 1;
nodes = (
(217,715,l),
(151,715,l),
(13,0,l),
(442,0,l),
(454,61,l),
(91,61,l)
);
}
);
width = 516;
}
);
note = L;
unicode = 76;
},
{
glyphname = M;
layers = (
{
hints = (
{
horizontal = 1;
place = (0, 21);
target = up;
type = BottomGhost;
},
{
horizontal = 1;
place = (624, 91);
place = (624, 91);
type = Stem;
},
{
place = (13, 788);
place = (13, 788);
type = Stem;
},
{
horizontal = 1;
place = (0, 90);
place = (0, 90);
type = Stem;
}
);
layerId = m01;
shapes = (
{
closed = 1;
nodes = (
(801,715,l),
(706,715,l),
(358,90,l),
(356,90,l),
(238,715,l),
(151,715,l),
(13,0,l),
(74,0,l),
(195,624,l),
(197,624,l),
(197,624,o),
(203,567,o),
(211,529,cs),
(312,0,l),
(370,0,l),
(665,528,ls),
(689,571,o),
(718,624,o),
(718,624,c),
(720,624,l),
(599,0,l),
(663,0,l)
);
}
);
width = 776;
}
);
note = M;
unicode = 77;
},
{
glyphname = N;
layers = (
{
hints = (
{
horizontal = 1;
place = (0, 21);
target = up;
type = BottomGhost;
},
{
horizontal = 1;
place = (715, -20);
target = down;
type = TopGhost;
},
{
place = (13, 657);
place = (13, 657);
type = Stem;
},
{
horizontal = 1;
place = (0, 95);
place = (0, 95);
type = Stem;
},
{
horizontal = 1;
place = (621, 94);
place = (621, 94);
type = Stem;
}
);
layerId = m01;
shapes = (
{
closed = 1;
nodes = (
(670,715,l),
(607,715,l),
(487,95,l),
(485,95,l),
(485,95,o),
(465,155,o),
(440,212,cs),
(222,715,l),
(151,715,l),
(13,0,l),
(76,0,l),
(196,621,l),
(198,621,l),
(198,621,o),
(224,552,o),
(248,496,cs),
(463,0,l),
(532,0,l)
);
}
);
width = 645;
}
);
note = N;
unicode = 78;
},
{
glyphname = O;
kernLeft = C;
kernRight = O;
layers = (
{
hints = (
{
horizontal = 1;
place = (-14, 59);
place = (-14, 59);
type = Stem;
},
{
horizontal = 1;
place = (671, 59);
place = (671, 59);
type = Stem;
},
{
place = (47, 69);
place = (47, 69);
type = Stem;
},
{
place = (638, 69);
place = (638, 69);
type = Stem;
}
);
layerId = m01;
shapes = (
{
closed = 1;
nodes = (
(580,-14,o),
(707,193,o),
(707,412,cs),
(707,611,o),
(578,730,o),
(408,730,cs),
(182,730,o),
(47,520,o),
(47,302,cs),
(47,102,o),
(177,-14,o),
(346,-14,cs)
);
},
{
closed = 1;
nodes = (
(202,45,o),
(116,149,o),
(116,302,cs),
(116,494,o),
(216,671,o),
(405,671,cs),
(551,671,o),
(638,563,o),
(638,412,cs),
(638,221,o),
(539,45,o),
(348,45,cs)
);
}
);
width = 717;
}
);
note = O;
unicode = 79;
},
{
glyphname = P;
kernRight = P;
layers = (
{
hints = (
{
horizontal = 1;
place = (0, 21);
target = up;
type = BottomGhost;
},
{
horizontal = 1;
place = (311, 57);
place = (311, 57);
type = Stem;
},
{
horizontal = 1;
place = (656, 59);
place = (656, 59);
type = Stem;
},
{
place = (528, 66);
place = (528, 66);
type = Stem;
}
);
layerId = m01;
shapes = (
{
closed = 1;
nodes = (
(336,311,ls),
(490,311,o),
(594,389,o),
(594,538,cs),
(594,594,o),
(577,632,o),
(547,663,cs),
(512,698,o),
(459,715,o),
(392,715,cs),
(151,715,l),
(13,0,l),
(79,0,l),
(139,311,l)
);
},
{
closed = 1;
nodes = (
(205,656,l),
(388,656,ls),
(481,656,o),
(528,610,o),
(528,534,cs),
(528,411,o),
(440,368,o),
(336,368,cs),
(150,368,l)
);
}
);
width = 566;
}
);
note = P;
unicode = 80;
},
{
glyphname = Q;
kernLeft = C;
kernRight = Q;
layers = (
{
hints = (
{
horizontal = 1;
place = (-3, 21);
target = up;
type = BottomGhost;
},
{
horizontal = 1;
place = (671, 59);
place = (671, 59);
type = Stem;
},
{
place = (47, 69);
place = (47, 69);
type = Stem;
},
{
place = (638, 69);
place = (638, 69);
type = Stem;
},
{
horizontal = 1;
place = (-14, 59);
place = (-14, 59);
type = Stem;
}
);
layerId = m01;
shapes = (
{
closed = 1;
nodes = (
(641,-3,l),
(565,67,l),
(658,148,o),
(707,279,o),
(707,412,cs),
(707,611,o),
(578,730,o),
(408,730,cs),
(182,730,o),
(47,520,o),
(47,302,cs),
(47,102,o),
(177,-14,o),
(346,-14,cs),
(411,-14,o),
(467,2,o),
(515,30,c),
(601,-49,l)
);
},
{
closed = 1;
nodes = (
(202,45,o),
(116,149,o),
(116,302,cs),
(116,494,o),
(216,671,o),
(405,671,cs),
(551,671,o),
(638,563,o),
(638,412,cs),
(638,291,o),
(598,176,o),
(520,108,c),
(436,187,l),
(395,141,l),
(469,73,l),
(434,55,o),
(393,45,o),
(348,45,cs)
);
}
);
width = 717;
}
);
note = Q;
unicode = 81;
},
{
glyphname = R;
kernRight = R;
layers = (
{
hints = (
{
horizontal = 1;
place = (0, 21);
target = up;
type = BottomGhost;
},
{
horizontal = 1;
place = (320, 56);
place = (320, 56);
type = Stem;
},
{
horizontal = 1;
place = (657, 58);
place = (657, 58);
type = Stem;
},
{
place = (478, 65);
place = (478, 65);
type = Stem;
},
{
place = (548, 67);
place = (548, 67);
type = Stem;
}
);
layerId = m01;
shapes = (
{
closed = 1;
nodes = (
(562,4,l),
(553,12,o),
(543,31,o),
(543,94,cs),
(543,114,o),
(544,140,o),
(548,171,cs),
(556,268,o),
(537,318,o),
(475,344,c),
(475,347,l),
(559,375,o),
(615,438,o),
(615,538,cs),
(615,595,o),
(597,641,o),
(561,672,cs),
(528,700,o),
(480,715,o),
(420,715,cs),
(151,715,l),
(13,0,l),
(79,0,l),
(140,320,l),
(352,320,ls),
(457,320,o),
(492,287,o),
(483,173,cs),
(479,140,o),
(478,112,o),
(478,91,cs),
(477,30,o),
(486,10,o),
(495,0,c),
(562,0,l)
);
},
{
closed = 1;
nodes = (
(205,657,l),
(412,657,ls),
(504,657,o),
(548,611,o),
(548,536,cs),
(548,424,o),
(474,376,o),
(366,376,cs),
(151,376,l)
);
}
);
width = 623;
}
);
note = R;
unicode = 82;
},
{
glyphname = S;
kernLeft = Scaron;
kernRight = Scaron;
layers = (
{
hints = (
{
horizontal = 1;
place = (-13, 55);
place = (-13, 55);
type = Stem;
},
{
horizontal = 1;
place = (674, 55);
place = (674, 55);
type = Stem;
},
{
place = (90, 64);
place = (90, 64);
type = Stem;
},
{
place = (466, 66);
place = (466, 66);
type = Stem;
},
{
place = (7, 65);
place = (7, 65);
type = Stem;
}
);
layerId = m01;
shapes = (
{
closed = 1;
nodes = (
(7,232,l),
(4,56,o),
(126,-13,o),
(273,-13,cs),
(422,-13,o),
(532,69,o),
(532,209,cs),
(532,328,o),
(439,365,o),
(306,410,cs),
(206,444,o),
(154,472,o),
(154,537,cs),
(154,636,o),
(233,674,o),
(325,674,cs),
(430,674,o),
(498,624,o),
(502,520,c),
(565,520,l),
(560,667,o),
(461,729,o),
(326,729,cs),
(196,729,o),
(90,656,o),
(90,533,cs),
(90,435,o),
(158,393,o),
(284,351,cs),
(408,309,o),
(466,279,o),
(466,205,cs),
(466,92,o),
(380,42,o),
(275,42,cs),
(148,42,o),
(70,101,o),
(72,232,c)
);
}
);
width = 576;
}
);
note = S;
unicode = 83;
},
{
glyphname = T;
kernLeft = T;
kernRight = T;
layers = (
{
hints = (
{
horizontal = 1;
place = (0, 21);
target = up;
type = BottomGhost;
},
{
horizontal = 1;
place = (656, 59);
place = (656, 59);
type = Stem;
},
{
place = (92, 539);
place = (92, 539);
type = Stem;
}
);
layerId = m01;
shapes = (
{
closed = 1;
nodes = (
(262,0,l),
(389,656,l),
(620,656,l),
(631,715,l),
(104,715,l),
(92,656,l),
(323,656,l),
(196,0,l)
);
}
);
width = 561;
}
);
note = T;
unicode = 84;
},
{
glyphname = U;
kernLeft = U;
kernRight = U;
layers = (
{
hints = (
{
horizontal = 1;
place = (-11, 57);
place = (-11, 57);
type = Stem;
},
{
horizontal = 1;
place = (715, -20);
target = down;
type = TopGhost;
},
{
place = (46, 66);
place = (46, 66);
type = Stem;
}
);
layerId = m01;
shapes = (
{
closed = 1;
nodes = (
(143,715,l),
(53,251,ls),
(17,65,o),
(124,-11,o),
(282,-11,cs),
(426,-11,o),
(524,58,o),
(553,209,cs),
(651,715,l),
(585,715,l),
(489,218,ls),
(466,97,o),
(400,46,o),
(286,46,cs),
(145,46,o),
(92,113,o),
(119,251,cs),
(209,715,l)
);
}
);
width = 618;
}
);
note = U;
unicode = 85;
},
{
glyphname = V;
kernLeft = V;
kernRight = V;
layers = (
{
hints = (
{
horizontal = 1;
place = (0, 21);
target = up;
type = BottomGhost;
},
{
horizontal = 1;
place = (715, -20);
target = down;
type = TopGhost;
},
{
place = (86, 574);
place = (86, 574);
type = Stem;
},
{
horizontal = 1;
place = (0, 68);
place = (0, 68);
type = Stem;
}
);
layerId = m01;
shapes = (
{
closed = 1;
nodes = (
(153,715,l),
(86,715,l),
(214,0,l),
(285,0,l),
(660,715,l),
(591,715,l),
(322,190,ls),
(296,141,o),
(262,68,o),
(262,68,c),
(260,68,l),
(260,68,o),
(251,141,o),
(243,191,cs)
);
}
);
width = 580;
}
);
note = V;
unicode = 86;
},
{
glyphname = W;
kernLeft = W;
kernRight = W;
layers = (
{
hints = (
{
horizontal = 1;
place = (0, 21);
target = up;
type = BottomGhost;
},
{
horizontal = 1;
place = (715, -20);
target = down;
type = TopGhost;
},
{
place = (93, 834);
place = (93, 834);
type = Stem;
},
{
horizontal = 1;
place = (0, 91);
place = (0, 91);
type = Stem;
},
{
horizontal = 1;
place = (638, 77);
place = (638, 77);
type = Stem;
}
);
layerId = m01;
shapes = (
{
closed = 1;
nodes = (
(474,715,l),
(263,229,ls),
(241,178,o),
(206,91,o),
(206,91,c),
(204,91,l),
(204,91,o),
(200,180,o),
(196,233,cs),
(159,715,l),
(93,715,l),
(155,0,l),
(224,0,l),
(450,521,ls),
(471,571,o),
(495,638,o),
(495,638,c),
(497,638,l),
(497,638,o),
(501,569,o),
(505,521,cs),
(552,0,l),
(620,0,l),
(927,715,l),
(861,715,l),
(659,233,ls),
(637,180,o),
(603,91,o),
(603,91,c),
(601,91,l),
(601,91,o),
(597,178,o),
(592,230,cs),
(545,715,l)
);
}
);
width = 857;
}
);
note = W;
unicode = 87;
},
{
glyphname = X;
kernLeft = X;
kernRight = X;
layers = (
{
hints = (
{
horizontal = 1;
place = (0, 21);
target = up;
type = BottomGhost;
},
{
horizontal = 1;
place = (715, -20);
target = down;
type = TopGhost;
},
{
place = (-45, 658);
place = (-45, 658);
type = Stem;
}
);
layerId = m01;
shapes = (
{
closed = 1;
nodes = (
(-45,0,l),
(30,0,l),
(283,317,l),
(285,317,l),
(423,0,l),
(496,0,l),
(330,361,l),
(613,715,l),
(539,715,l),
(303,414,l),
(301,414,l),
(168,715,l),
(96,715,l),
(254,369,l)
);
}
);
width = 545;
}
);
note = X;
unicode = 88;
},
{
glyphname = Y;
kernLeft = Yacute;
kernRight = Yacute;
layers = (
{
hints = (
{
horizontal = 1;
place = (0, 21);
target = up;
type = BottomGhost;
},
{
horizontal = 1;
place = (715, -20);
target = down;
type = TopGhost;
},
{
place = (82, 561);
place = (82, 561);
type = Stem;
}
);
layerId = m01;
shapes = (
{
closed = 1;
nodes = (
(152,715,l),
(82,715,l),
(258,312,l),
(198,0,l),
(264,0,l),
(322,306,l),
(643,715,l),
(570,715,l),
(302,366,l),
(300,366,l)
);
}
);
width = 560;
}
);
note = Y;
unicode = 89;
},
{
glyphname = Z;
kernLeft = Zcaron;
kernRight = Zcaron;
layers = (
{
hints = (
{
horizontal = 1;
place = (0, 59);
place = (0, 59);
type = Stem;
},
{
horizontal = 1;
place = (659, 56);
place = (659, 56);
type = Stem;
},
{
place = (-21, 632);
place = (-21, 632);
type = Stem;
}
);
layerId = m01;
shapes = (
{
closed = 1;
nodes = (
(502,59,l),
(70,59,l),
(70,62,l),
(601,660,l),
(611,715,l),
(141,715,l),
(130,659,l),
(518,659,l),
(518,656,l),
(-9,64,l),
(-21,0,l),
(491,0,l)
);
}
);
width = 569;
}
);
note = Z;
unicode = 90;
},
{
glyphname = bracketleft;
kernRight = bracketleft;
layers = (
{
hints = (
{
horizontal = 1;
place = (-118, 54);
place = (-118, 54);
type = Stem;
},
{
horizontal = 1;
place = (702, 52);
place = (702, 52);
type = Stem;
},
{
place = (6, 341);
place = (6, 341);
type = Stem;
}
);
layerId = m01;
shapes = (
{
closed = 1;
nodes = (
(79,-64,l),
(227,702,l),
(336,702,l),
(347,754,l),
(175,754,l),
(6,-118,l),
(178,-118,l),
(188,-64,l)
);
}
);
width = 283;
}
);
note = bracketleft;
unicode = 91;
},
{
glyphname = backslash;
kernLeft = backslash;
kernRight = backslash;
layers = (
{
hints = (
{
horizontal = 1;
place = (0, 21);
target = up;
type = BottomGhost;
},
{
horizontal = 1;
place = (715, -20);
target = down;
type = TopGhost;
},
{
place = (91, 223);
place = (91, 223);
type = Stem;
}
);
layerId = m01;
shapes = (
{
closed = 1;
nodes = (
(91,715,l),
(254,0,l),
(314,0,l),
(151,715,l)
);
}
);
width = 367;
}
);
note = backslash;
unicode = 92;
},
{
glyphname = bracketright;
kernLeft = bracketright;
layers = (
{
hints = (
{
horizontal = 1;
place = (-118, 54);
place = (-118, 54);
type = Stem;
},
{
horizontal = 1;
place = (702, 52);
place = (702, 52);
type = Stem;
},
{
place = (-41, 341);
place = (-41, 341);
type = Stem;
}
);
layerId = m01;
shapes = (
{
closed = 1;
nodes = (
(227,702,l),
(80,-64,l),
(-30,-64,l),
(-41,-118,l),
(131,-118,l),
(300,754,l),
(128,754,l),
(118,702,l)
);
}
);
width = 283;
}
);
note = bracketright;
unicode = 93;
},
{
glyphname = asciicircum;
layers = (
{
hints = (
{
horizontal = 1;
place = (667, 48);
place = (667, 48);
type = Stem;
},
{
place = (45, 380);
place = (45, 380);
type = Stem;
}
);
layerId = m01;
shapes = (
{
closed = 1;
nodes = (
(112,446,l),
(273,667,l),
(275,667,l),
(363,446,l),
(425,446,l),
(315,715,l),
(243,715,l),
(45,446,l)
);
}
);
width = 403;
}
);
note = asciicircum;
unicode = 94;
},
{
glyphname = underscore;
layers = (
{
hints = (
{
horizontal = 1;
place = (-166, 48);
place = (-166, 48);
type = Stem;
},
{
place = (-84, 390);
place = (-84, 390);
type = Stem;
}
);
layerId = m01;
shapes = (
{
closed = 1;
nodes = (
(-84,-166,l),
(297,-166,l),
(306,-118,l),
(-74,-118,l)
);
}
);
width = 378;
}
);
note = underscore;
unicode = 95;
},
{
glyphname = grave;
layers = (
{
hints = (
{
horizontal = 1;
place = (592, 127);
place = (592, 127);
type = Stem;
},
{
place = (230, 121);
place = (230, 121);
type = Stem;
}
);
layerId = m01;
shapes = (
{
closed = 1;
nodes = (
(351,592,l),
(306,719,l),
(230,719,l),
(299,592,l)
);
}
);
width = 492;
}
);
note = grave;
unicode = 96;
},
{
glyphname = a;
kernLeft = a;
kernRight = a;
layers = (
{
hints = (
{
horizontal = 1;
place = (-12, 49);
place = (-12, 49);
type = Stem;
},
{
horizontal = 1;
place = (478, 50);
place = (478, 50);
type = Stem;
},
{
place = (1, 62);
place = (1, 62);
type = Stem;
},
{
place = (388, 57);
place = (388, 57);
type = Stem;
},
{
place = (331, 59);
place = (331, 59);
type = Stem;
},
{
horizontal = 1;
place = (-7, 48);
place = (-7, 48);
type = Stem;
}
);
layerId = m01;
shapes = (
{
closed = 1;
nodes = (
(76,285,o),
(1,240,o),
(1,132,cs),
(1,46,o),
(71,-12,o),
(164,-12,cs),
(250,-12,o),
(301,28,o),
(329,67,c),
(331,67,l),
(328,30,o),
(343,-7,o),
(397,-7,cs),
(414,-7,o),
(424,-4,o),
(433,0,c),
(441,43,l),
(438,43,ls),
(431,42,o),
(424,41,o),
(418,41,cs),
(392,41,o),
(384,59,o),
(390,91,cs),
(440,344,ls),
(467,480,o),
(377,528,o),
(273,528,cs),
(150,528,o),
(73,466,o),
(54,366,c),
(116,366,l),
(132,444,o),
(183,479,o),
(270,478,cs),
(334,478,o),
(388,456,o),
(388,388,cs),
(388,349,o),
(378,329,o),
(350,317,cs),
(317,303,o),
(259,304,o),
(179,296,cs)
);
},
{
closed = 1;
nodes = (
(107,37,o),
(64,75,o),
(63,134,cs),
(63,211,o),
(112,238,o),
(179,247,cs),
(256,257,o),
(321,255,o),
(369,276,c),
(352,187,ls),
(337,111,o),
(283,37,o),
(174,37,cs)
);
}
);
width = 487;
}
);
note = a;
unicode = 97;
},
{
glyphname = b;
kernLeft = b;
kernRight = thorn;
layers = (
{
hints = (
{
horizontal = 1;
place = (-13, 51);
place = (-13, 51);
type = Stem;
},
{
horizontal = 1;
place = (477, 51);
place = (477, 51);
type = Stem;
},
{
horizontal = 1;
place = (715, -20);
target = down;
type = TopGhost;
},
{
place = (439, 63);
place = (439, 63);
type = Stem;
},
{
horizontal = 1;
place = (0, 21);
target = up;
type = BottomGhost;
}
);
layerId = m01;
shapes = (
{
closed = 1;
nodes = (
(503,444,o),
(433,528,o),
(321,528,cs),
(246,528,o),
(190,494,o),
(148,435,c),
(146,435,l),
(200,715,l),
(139,715,l),
(1,0,l),
(62,0,l),
(79,89,l),
(81,89,l),
(109,24,o),
(169,-13,o),
(244,-13,cs),
(420,-13,o),
(502,158,o),
(502,317,cs)
);
},
{
closed = 1;
nodes = (
(439,191,o),
(382,38,o),
(245,38,cs),
(149,38,o),
(101,104,o),
(102,202,cs),
(103,328,o),
(173,477,o),
(307,477,cs),
(403,477,o),
(439,400,o),
(439,315,cs)
);
}
);
width = 524;
}
);
note = b;
unicode = 98;
},
{
glyphname = c;
kernLeft = c;
kernRight = c;
layers = (
{
hints = (
{
horizontal = 1;
place = (-13, 52);
place = (-13, 52);
type = Stem;
},
{
horizontal = 1;
place = (478, 51);
place = (478, 51);
type = Stem;
},
{
place = (22, 62);
place = (22, 62);
type = Stem;
}
);
layerId = m01;
shapes = (
{
closed = 1;
nodes = (
(470,361,l),
(459,466,o),
(394,529,o),
(288,529,cs),
(115,529,o),
(22,362,o),
(22,206,cs),
(22,60,o),
(106,-13,o),
(228,-13,cs),
(338,-13,o),
(420,61,o),
(448,178,c),
(389,178,l),
(368,94,o),
(308,39,o),
(229,39,cs),
(125,39,o),
(84,110,o),
(84,205,cs),
(84,334,o),
(148,478,o),
(286,478,cs),
(369,478,o),
(403,422,o),
(410,361,c)
);
}
);
width = 478;
}
);
note = c;
unicode = 99;
},
{
glyphname = d;
kernLeft = d;
layers = (
{
hints = (
{
horizontal = 1;
place = (-14, 51);
place = (-14, 51);
type = Stem;
},
{
horizontal = 1;
place = (477, 51);
place = (477, 51);
type = Stem;
},
{
horizontal = 1;
place = (715, -20);
target = down;
type = TopGhost;
},
{
place = (21, 63);
place = (21, 63);
type = Stem;
},
{
horizontal = 1;
place = (0, 21);
target = up;
type = BottomGhost;
}
);
layerId = m01;
shapes = (
{
closed = 1;
nodes = (
(20,65,o),
(96,-14,o),
(209,-14,cs),
(282,-14,o),
(334,18,o),
(373,72,c),
(375,72,l),
(361,0,l),
(422,0,l),
(561,715,l),
(500,715,l),
(444,425,l),
(442,425,l),
(415,491,o),
(360,528,o),
(287,528,cs),
(117,528,o),
(22,356,o),
(21,199,cs)
);
},
{
closed = 1;
nodes = (
(84,326,o),
(152,477,o),
(284,477,cs),
(375,477,o),
(423,409,o),
(422,319,cs),
(422,191,o),
(354,37,o),
(217,37,cs),
(120,37,o),
(84,113,o),
(84,201,cs)
);
}
);
width = 523;
}
);
note = d;
unicode = 100;
},
{
glyphname = e;
kernLeft = c;
kernRight = e;
layers = (
{
hints = (
{
horizontal = 1;
place = (-13, 52);
place = (-13, 52);
type = Stem;
},
{
horizontal = 1;
place = (247, 49);
place = (247, 49);
type = Stem;
},
{
horizontal = 1;
place = (479, 50);
place = (479, 50);
type = Stem;
},
{
place = (22, 62);
place = (22, 62);
type = Stem;
},
{
place = (414, 60);
place = (414, 60);
type = Stem;
}
);
layerId = m01;
shapes = (
{
closed = 1;
nodes = (
(468,247,l),
(482,334,o),
(476,428,o),
(417,483,cs),
(386,513,o),
(345,529,o),
(287,529,cs),
(118,529,o),
(22,363,o),
(22,207,cs),
(22,68,o),
(106,-13,o),
(228,-13,cs),
(333,-13,o),
(414,45,o),
(450,156,c),
(390,156,l),
(366,85,o),
(309,39,o),
(233,39,cs),
(129,39,o),
(84,111,o),
(84,207,cs),
(84,220,o),
(84,234,o),
(86,247,c)
);
},
{
closed = 1;
nodes = (
(387,479,o),
(425,398,o),
(411,296,c),
(94,296,l),
(117,396,o),
(180,479,o),
(284,479,cs)
);
}
);
width = 492;
}
);
note = e;
unicode = 101;
},
{
glyphname = f;
kernLeft = f;
kernRight = f;
layers = (
{
hints = (
{
horizontal = 1;
place = (0, 21);
target = up;
type = BottomGhost;
},
{
horizontal = 1;
place = (467, 50);
place = (467, 50);
type = Stem;
},
{
horizontal = 1;
place = (667, 53);
place = (667, 53);
type = Stem;
},
{
place = (40, 290);
place = (40, 290);
type = Stem;
}
);
layerId = m01;
shapes = (
{
closed = 1;
nodes = (
(330,719,l),
(326,719,o),
(293,720,o),
(288,720,cs),
(214,720,o),
(173,689,o),
(159,616,cs),
(140,517,l),
(66,517,l),
(56,467,l),
(130,467,l),
(40,0,l),
(100,0,l),
(190,467,l),
(284,467,l),
(294,517,l),
(200,517,l),
(218,610,ls),
(225,646,o),
(239,667,o),
(287,667,cs),
(320,667,l)
);
}
);
width = 264;
}
);
note = f;
unicode = 102;
},
{
glyphname = g;
kernLeft = g;
kernRight = g;
layers = (
{
hints = (
{
horizontal = 1;
place = (-181, 50);
place = (-181, 50);
type = Stem;
},
{
horizontal = 1;
place = (10, 52);
place = (10, 52);
type = Stem;
},
{
horizontal = 1;
place = (477, 51);
place = (477, 51);
type = Stem;
},
{
place = (22, 62);
place = (22, 62);
type = Stem;
},
{
horizontal = 1;
place = (517, -20);
target = down;
type = TopGhost;
}
);
layerId = m01;
shapes = (
{
closed = 1;
nodes = (
(8,-46,l),
(16,-147,o),
(108,-181,o),
(198,-181,cs),
(260,-181,o),
(312,-164,o),
(349,-130,cs),
(381,-101,o),
(405,-60,o),
(417,2,cs),
(517,517,l),
(456,517,l),
(439,427,l),
(437,427,l),
(408,493,o),
(353,528,o),
(282,528,cs),
(115,528,o),
(23,367,o),
(22,217,cs),
(22,89,o),
(95,10,o),
(210,10,cs),
(278,10,o),
(329,37,o),
(372,89,c),
(373,89,l),
(357,5,ls),
(341,-75,o),
(295,-131,o),
(198,-131,cs),
(137,-131,o),
(75,-109,o),
(69,-46,c)
);
},
{
closed = 1;
nodes = (
(84,341,o),
(148,477,o),
(278,477,cs),
(376,477,o),
(418,406,o),
(418,318,cs),
(418,196,o),
(353,61,o),
(220,62,cs),
(125,62,o),
(84,127,o),
(84,219,cs)
);
}
);
width = 517;
}
);
note = g;
unicode = 103;
},
{
glyphname = h;
kernLeft = b;
kernRight = h;
layers = (
{
hints = (
{
horizontal = 1;
place = (0, 21);
target = up;
type = BottomGhost;
},
{
horizontal = 1;
place = (476, 52);
place = (476, 52);
type = Stem;
},
{
horizontal = 1;
place = (715, -20);
target = down;
type = TopGhost;
},
{
place = (405, 63);
place = (405, 63);
type = Stem;
}
);
layerId = m01;
shapes = (
{
closed = 1;
nodes = (
(62,0,l),
(120,303,ls),
(139,398,o),
(224,476,o),
(322,476,cs),
(390,476,o),
(416,437,o),
(402,364,cs),
(332,0,l),
(393,0,l),
(463,364,ls),
(484,469,o),
(432,528,o),
(336,528,cs),
(252,528,o),
(191,487,o),
(147,430,c),
(145,430,l),
(200,715,l),
(139,715,l),
(1,0,l)
);
}
);
width = 490;
}
);
note = h;
unicode = 104;
},
{
glyphname = i;
kernLeft = b;
layers = (
{
hints = (
{
horizontal = 1;
place = (0, 21);
target = up;
type = BottomGhost;
},
{
horizontal = 1;
place = (517, -20);
target = down;
type = TopGhost;
},
{
horizontal = 1;
place = (628, 87);
place = (628, 87);
type = Stem;
},
{
place = (3, 199);
place = (3, 199);
type = Stem;
}
);
layerId = m01;
shapes = (
{
closed = 1;
nodes = (
(164,517,l),
(103,517,l),
(3,0,l),
(64,0,l)
);
},
{
closed = 1;
nodes = (
(202,715,l),
(141,715,l),
(124,628,l),
(185,628,l)
);
}
);
width = 167;
}
);
note = i;
unicode = 105;
},
{
glyphname = j;
kernLeft = j;
kernRight = j;
layers = (
{
hints = (
{
horizontal = 1;
place = (-158, 51);
place = (-158, 51);
type = Stem;
},
{
horizontal = 1;
place = (517, -20);
target = down;
type = TopGhost;
},
{
horizontal = 1;
place = (628, 87);
place = (628, 87);
type = Stem;
},
{
place = (-100, 302);
place = (-100, 302);
type = Stem;
}
);
layerId = m01;
shapes = (
{
closed = 1;
nodes = (
(103,517,l),
(-8,-53,ls),
(-16,-93,o),
(-37,-107,o),
(-68,-107,cs),
(-73,-107,o),
(-85,-106,o),
(-89,-105,cs),
(-90,-105,l),
(-100,-156,l),
(-96,-157,o),
(-77,-158,o),
(-65,-158,cs),
(-10,-158,o),
(36,-137,o),
(52,-60,cs),
(164,517,l)
);
},
{
closed = 1;
nodes = (
(202,715,l),
(141,715,l),
(124,628,l),
(185,628,l)
);
}
);
width = 167;
}
);
note = j;
unicode = 106;
},
{
glyphname = k;
kernLeft = b;
kernRight = k;
layers = (
{
hints = (
{
horizontal = 1;
place = (0, 21);
target = up;
type = BottomGhost;
},
{
horizontal = 1;
place = (517, -20);
target = down;
type = TopGhost;
},
{
horizontal = 1;
place = (715, -20);
target = down;
type = TopGhost;
},
{
place = (1, 472);
place = (1, 472);
type = Stem;
}
);
layerId = m01;
shapes = (
{
closed = 1;
nodes = (
(473,517,l),
(392,517,l),
(112,261,l),
(200,715,l),
(139,715,l),
(1,0,l),
(62,0,l),
(98,186,l),
(213,288,l),
(341,0,l),
(407,0,l),
(260,329,l)
);
}
);
width = 451;
}
);
note = k;
unicode = 107;
},
{
glyphname = l;
kernLeft = b;
layers = (
{
hints = (
{
horizontal = 1;
place = (0, 21);
target = up;
type = BottomGhost;
},
{
horizontal = 1;
place = (715, -20);
target = down;
type = TopGhost;
},
{
place = (4, 199);
place = (4, 199);
type = Stem;
}
);
layerId = m01;
shapes = (
{
closed = 1;
nodes = (
(203,715,l),
(142,715,l),
(4,0,l),
(65,0,l)
);
}
);
width = 168;
}
);
note = l;
unicode = 108;
},
{
glyphname = m;
kernLeft = m;
kernRight = h;
layers = (
{
hints = (
{
horizontal = 1;
place = (0, 21);
target = up;
type = BottomGhost;
},
{
horizontal = 1;
place = (476, 52);
place = (476, 52);
type = Stem;
},
{
place = (377, 55);
place = (377, 55);
type = Stem;
},
{
place = (679, 62);
place = (679, 62);
type = Stem;
},
{
horizontal = 1;
place = (517, -20);
target = down;
type = TopGhost;
}
);
layerId = m01;
shapes = (
{
closed = 1;
nodes = (
(62,0,l),
(122,312,ls),
(140,404,o),
(219,476,o),
(302,476,cs),
(360,476,o),
(388,438,o),
(374,367,cs),
(303,0,l),
(364,0,l),
(424,312,ls),
(442,407,o),
(520,476,o),
(603,476,cs),
(660,476,o),
(690,441,o),
(675,365,cs),
(605,0,l),
(666,0,l),
(736,365,ls),
(758,477,o),
(699,528,o),
(619,528,cs),
(546,528,o),
(484,491,o),
(434,427,c),
(432,427,l),
(424,494,o),
(381,528,o),
(320,528,cs),
(242,528,o),
(189,485,o),
(148,434,c),
(146,434,l),
(162,517,l),
(101,517,l),
(1,0,l)
);
}
);
width = 763;
}
);
note = m;
unicode = 109;
},
{
glyphname = n;
kernLeft = m;
kernRight = h;
layers = (
{
hints = (
{
horizontal = 1;
place = (0, 21);
target = up;
type = BottomGhost;
},
{
horizontal = 1;
place = (476, 52);
place = (476, 52);
type = Stem;
},
{
place = (405, 63);
place = (405, 63);
type = Stem;
},
{
horizontal = 1;
place = (517, -20);
target = down;
type = TopGhost;
}
);
layerId = m01;
shapes = (
{
closed = 1;
nodes = (
(62,0,l),
(120,303,ls),
(139,398,o),
(224,476,o),
(322,476,cs),
(390,476,o),
(416,437,o),
(402,364,cs),
(332,0,l),
(393,0,l),
(463,364,ls),
(484,469,o),
(432,528,o),
(336,528,cs),
(252,528,o),
(191,487,o),
(147,430,c),
(145,430,l),
(162,517,l),
(101,517,l),
(1,0,l)
);
}
);
width = 490;
}
);
note = n;
unicode = 110;
},
{
glyphname = o;
kernLeft = c;
kernRight = o;
layers = (
{
hints = (
{
horizontal = 1;
place = (-13, 51);
place = (-13, 51);
type = Stem;
},
{
horizontal = 1;
place = (478, 51);
place = (478, 51);
type = Stem;
},
{
place = (22, 62);
place = (22, 62);
type = Stem;
},
{
place = (430, 62);
place = (430, 62);
type = Stem;
}
);
layerId = m01;
shapes = (
{
closed = 1;
nodes = (
(406,-13,o),
(492,153,o),
(492,306,cs),
(492,442,o),
(405,529,o),
(285,529,cs),
(110,529,o),
(22,362,o),
(22,207,cs),
(22,68,o),
(111,-13,o),
(231,-13,cs)
);
},
{
closed = 1;
nodes = (
(132,38,o),
(84,114,o),
(84,210,cs),
(84,339,o),
(148,478,o),
(283,478,cs),
(386,478,o),
(430,395,o),
(430,303,cs),
(430,174,o),
(365,38,o),
(233,38,cs)
);
}
);
width = 514;
}
);
note = o;
unicode = 111;
},
{
glyphname = p;
kernLeft = p;
kernRight = thorn;
layers = (
{
hints = (
{
horizontal = 1;
place = (-166, 21);
target = up;
type = BottomGhost;
},
{
horizontal = 1;
place = (-13, 51);
place = (-13, 51);
type = Stem;
},
{
horizontal = 1;
place = (477, 51);
place = (477, 51);
type = Stem;
},
{
place = (439, 63);
place = (439, 63);
type = Stem;
},
{
horizontal = 1;
place = (517, -20);
target = down;
type = TopGhost;
}
);
layerId = m01;
shapes = (
{
closed = 1;
nodes = (
(503,444,o),
(433,528,o),
(321,528,cs),
(246,528,o),
(190,494,o),
(148,435,c),
(146,435,l),
(162,517,l),
(101,517,l),
(-32,-166,l),
(29,-166,l),
(79,90,l),
(81,90,l),
(107,25,o),
(169,-13,o),
(244,-13,cs),
(420,-13,o),
(502,158,o),
(502,317,cs)
);
},
{
closed = 1;
nodes = (
(439,191,o),
(382,38,o),
(245,38,cs),
(149,38,o),
(101,104,o),
(102,202,cs),
(103,328,o),
(173,477,o),
(307,477,cs),
(403,477,o),
(439,400,o),
(439,315,cs)
);
}
);
width = 524;
}
);
note = p;
unicode = 112;
},
{
glyphname = q;
kernLeft = d;
kernRight = q;
layers = (
{
hints = (
{
horizontal = 1;
place = (-166, 21);
target = up;
type = BottomGhost;
},
{
horizontal = 1;
place = (-14, 51);
place = (-14, 51);
type = Stem;
},
{
horizontal = 1;
place = (477, 51);
place = (477, 51);
type = Stem;
},
{
place = (21, 63);
place = (21, 63);
type = Stem;
},
{
horizontal = 1;
place = (517, -20);
target = down;
type = TopGhost;
}
);
layerId = m01;
shapes = (
{
closed = 1;
nodes = (
(20,65,o),
(96,-14,o),
(209,-14,cs),
(282,-14,o),
(334,18,o),
(373,72,c),
(375,72,l),
(330,-166,l),
(390,-166,l),
(523,517,l),
(462,517,l),
(444,425,l),
(442,425,l),
(415,490,o),
(360,528,o),
(286,528,cs),
(117,528,o),
(22,356,o),
(21,199,cs)
);
},
{
closed = 1;
nodes = (
(84,326,o),
(152,477,o),
(282,477,cs),
(375,477,o),
(423,409,o),
(422,319,cs),
(422,191,o),
(354,37,o),
(217,37,cs),
(120,37,o),
(84,113,o),
(84,201,cs)
);
}
);
width = 524;
}
);
note = q;
unicode = 113;
},
{
glyphname = r;
kernLeft = m;
kernRight = r;
layers = (
{
hints = (
{
horizontal = 1;
place = (0, 21);
target = up;
type = BottomGhost;
},
{
horizontal = 1;
place = (519, -20);
target = down;
type = TopGhost;
},
{
place = (1, 333);
place = (1, 333);
type = Stem;
},
{
horizontal = 1;
place = (517, -20);
target = down;
type = TopGhost;
}
);
layerId = m01;
shapes = (
{
closed = 1;
nodes = (
(334,519,l),
(253,523,o),
(189,488,o),
(145,423,c),
(143,423,l),
(162,517,l),
(101,517,l),
(1,0,l),
(62,0,l),
(115,276,ls),
(137,392,o),
(215,468,o),
(321,459,cs),
(322,459,l)
);
}
);
width = 299;
}
);
note = r;
unicode = 114;
},
{
glyphname = s;
kernLeft = scaron;
kernRight = scaron;
layers = (
{
hints = (
{
horizontal = 1;
place = (-14, 52);
place = (-14, 52);
type = Stem;
},
{
horizontal = 1;
place = (478, 50);
place = (478, 50);
type = Stem;
},
{
place = (58, 59);
place = (58, 59);
type = Stem;
},
{
place = (332, 60);
place = (332, 60);
type = Stem;
}
);
layerId = m01;
shapes = (
{
closed = 1;
nodes = (
(-3,161,l),
(-2,38,o),
(92,-14,o),
(200,-14,cs),
(308,-14,o),
(392,44,o),
(392,144,cs),
(392,230,o),
(329,260,o),
(242,293,cs),
(150,328,o),
(117,347,o),
(117,393,cs),
(117,458,o),
(173,478,o),
(234,478,cs),
(302,478,o),
(351,445,o),
(357,375,c),
(416,375,l),
(410,477,o),
(337,528,o),
(235,528,cs),
(137,528,o),
(58,480,o),
(58,390,cs),
(58,310,o),
(115,279,o),
(209,244,cs),
(297,210,o),
(332,189,o),
(332,143,cs),
(332,70,o),
(275,38,o),
(204,38,cs),
(112,38,o),
(61,78,o),
(57,161,c)
);
}
);
width = 439;
}
);
note = s;
unicode = 115;
},
{
glyphname = t;
kernLeft = t;
kernRight = t;
layers = (
{
hints = (
{
horizontal = 1;
place = (-4, 53);
place = (-4, 53);
type = Stem;
},
{
horizontal = 1;
place = (467, 50);
place = (467, 50);
type = Stem;
},
{
place = (61, 64);
place = (61, 64);
type = Stem;
}
);
layerId = m01;
shapes = (
{
closed = 1;
nodes = (
(57,467,l),
(133,467,l),
(64,110,ls),
(50,37,o),
(81,-4,o),
(153,-4,cs),
(172,-4,o),
(190,-1,o),
(202,4,c),
(212,56,l),
(209,56,l),
(200,52,o),
(182,49,o),
(165,49,cs),
(129,49,o),
(118,67,o),
(125,105,cs),
(195,467,l),
(289,467,l),
(299,517,l),
(205,517,l),
(235,676,l),
(174,676,l),
(143,517,l),
(67,517,l)
);
}
);
width = 276;
}
);
note = t;
unicode = 116;
},
{
glyphname = u;
kernLeft = u;
kernRight = u;
layers = (
{
hints = (
{
horizontal = 1;
place = (-12, 51);
place = (-12, 51);
type = Stem;
},
{
horizontal = 1;
place = (517, -20);
target = down;
type = TopGhost;
},
{
place = (22, 61);
place = (22, 61);
type = Stem;
},
{
horizontal = 1;
place = (0, 21);
target = up;
type = BottomGhost;
}
);
layerId = m01;
shapes = (
{
closed = 1;
nodes = (
(419,517,l),
(362,221,ls),
(342,119,o),
(263,39,o),
(166,39,cs),
(96,39,o),
(72,81,o),
(87,157,cs),
(157,517,l),
(96,517,l),
(26,156,ls),
(6,49,o),
(57,-12,o),
(152,-12,cs),
(236,-12,o),
(290,30,o),
(332,81,c),
(334,81,l),
(319,0,l),
(380,0,l),
(480,517,l)
);
}
);
width = 481;
}
);
note = u;
unicode = 117;
},
{
glyphname = v;
kernLeft = v;
kernRight = v;
layers = (
{
hints = (
{
horizontal = 1;
place = (0, 21);
target = up;
type = BottomGhost;
},
{
horizontal = 1;
place = (517, -20);
target = down;
type = TopGhost;
},
{
place = (54, 430);
place = (54, 430);
type = Stem;
},
{
horizontal = 1;
place = (0, 57);
place = (0, 57);
type = Stem;
}
);
layerId = m01;
shapes = (
{
closed = 1;
nodes = (
(117,517,l),
(54,517,l),
(140,0,l),
(211,0,l),
(484,517,l),
(420,517,l),
(249,186,ls),
(222,133,o),
(186,57,o),
(186,57,c),
(184,57,l),
(184,57,o),
(176,136,o),
(168,189,cs)
);
}
);
width = 442;
}
);
note = v;
unicode = 118;
},
{
glyphname = w;
kernLeft = w;
kernRight = w;
layers = (
{
hints = (
{
horizontal = 1;
place = (0, 61);
place = (0, 61);
type = Stem;
},
{
horizontal = 1;
place = (517, -20);
target = down;
type = TopGhost;
},
{
place = (57, 668);
place = (57, 668);
type = Stem;
},
{
horizontal = 1;
place = (448, 69);
place = (448, 69);
type = Stem;
}
);
layerId = m01;
shapes = (
{
closed = 1;
nodes = (
(121,517,l),
(57,517,l),
(114,0,l),
(184,0,l),
(328,329,ls),
(350,378,o),
(376,448,o),
(376,448,c),
(378,448,l),
(378,448,o),
(379,378,o),
(383,329,cs),
(414,0,l),
(482,0,l),
(725,517,l),
(662,517,l),
(518,200,ls),
(495,149,o),
(459,61,o),
(459,61,c),
(457,61,l),
(457,61,o),
(456,146,o),
(451,193,cs),
(422,517,l),
(356,517,l),
(214,193,ls),
(193,146,o),
(160,61,o),
(160,61,c),
(158,61,l),
(158,61,o),
(157,147,o),
(152,200,cs)
);
}
);
width = 688;
}
);
note = w;
unicode = 119;
},
{
glyphname = x;
kernLeft = x;
kernRight = x;
layers = (
{
hints = (
{
horizontal = 1;
place = (0, 21);
target = up;
type = BottomGhost;
},
{
horizontal = 1;
place = (517, -20);
target = down;
type = TopGhost;
},
{
place = (-41, 508);
place = (-41, 508);
type = Stem;
}
);
layerId = m01;
shapes = (
{
closed = 1;
nodes = (
(-41,0,l),
(30,0,l),
(218,234,l),
(220,234,l),
(328,0,l),
(397,0,l),
(264,272,l),
(467,517,l),
(395,517,l),
(236,316,l),
(234,316,l),
(146,517,l),
(77,517,l),
(191,278,l)
);
}
);
width = 453;
}
);
note = x;
unicode = 120;
},
{
glyphname = y;
kernLeft = yacute;
kernRight = yacute;
layers = (
{
hints = (
{
horizontal = 1;
place = (-171, 55);
place = (-171, 55);
type = Stem;
},
{
horizontal = 1;
place = (517, -20);
target = down;
type = TopGhost;
},
{
place = (-12, 501);
place = (-12, 501);
type = Stem;
},
{
horizontal = 1;
place = (-163, 21);
target = up;
type = BottomGhost;
}
);
layerId = m01;
shapes = (
{
closed = 1;
nodes = (
(489,517,l),
(426,517,l),
(259,183,ls),
(234,132,o),
(204,65,o),
(204,65,c),
(202,65,l),
(202,65,o),
(193,134,o),
(182,185,cs),
(113,517,l),
(51,517,l),
(163,2,l),
(134,-53,ls),
(112,-97,o),
(83,-116,o),
(46,-116,cs),
(20,-116,o),
(10,-111,o),
(1,-108,c),
(-1,-108,l),
(-12,-163,l),
(1,-168,o),
(18,-171,o),
(43,-171,cs),
(103,-171,o),
(149,-145,o),
(187,-71,cs)
);
}
);
width = 452;
}
);
note = y;
unicode = 121;
},
{
glyphname = z;
kernLeft = zcaron;
kernRight = zcaron;
layers = (
{
hints = (
{
horizontal = 1;
place = (0, 54);
place = (0, 54);
type = Stem;
},
{
horizontal = 1;
place = (464, 53);
place = (464, 53);
type = Stem;
},
{
place = (-25, 467);
place = (-25, 467);
type = Stem;
}
);
layerId = m01;
shapes = (
{
closed = 1;
nodes = (
(-25,0,l),
(353,0,l),
(363,54,l),
(62,54,l),
(62,57,l),
(434,475,l),
(442,517,l),
(93,517,l),
(83,464,l),
(349,464,l),
(349,461,l),
(-15,51,l)
);
}
);
width = 425;
}
);
note = z;
unicode = 122;
},
{
glyphname = braceleft;
kernRight = bracketleft;
layers = (
{
hints = (
{
horizontal = 1;
place = (-118, 55);
place = (-118, 55);
type = Stem;
},
{
horizontal = 1;
place = (701, 53);
place = (701, 53);
type = Stem;
},
{
place = (42, 62);
place = (42, 62);
type = Stem;
},
{
place = (88, 62);
place = (88, 62);
type = Stem;
}
);
layerId = m01;
shapes = (
{
closed = 1;
nodes = (
(338,754,l),
(307,754,ls),
(222,754,o),
(181,719,o),
(163,629,cs),
(123,418,ls),
(113,369,o),
(93,351,o),
(42,349,c),
(31,295,l),
(84,294,o),
(94,271,o),
(85,225,cs),
(46,21,ls),
(29,-68,o),
(60,-118,o),
(154,-118,cs),
(169,-118,l),
(179,-63,l),
(160,-63,ls),
(114,-63,o),
(95,-45,o),
(107,15,cs),
(146,219,ls),
(158,275,o),
(142,302,o),
(111,318,c),
(111,320,l),
(151,332,o),
(173,358,o),
(182,405,cs),
(224,620,ls),
(236,684,o),
(258,701,o),
(308,701,cs),
(327,701,l)
);
}
);
width = 283;
}
);
note = braceleft;
unicode = 123;
},
{
glyphname = bar;
layers = (
{
hints = (
{
horizontal = 1;
place = (-118, 872);
place = (-118, 872);
type = Stem;
},
{
place = (97, 55);
place = (97, 55);
type = Stem;
}
);
layerId = m01;
shapes = (
{
closed = 1;
nodes = (
(97,-118,l),
(152,-118,l),
(152,754,l),
(97,754,l)
);
}
);
width = 207;
}
);
note = bar;
unicode = 124;
},
{
glyphname = braceright;
kernLeft = bracketright;
layers = (
{
hints = (
{
horizontal = 1;
place = (-118, 55);
place = (-118, 55);
type = Stem;
},
{
horizontal = 1;
place = (701, 53);
place = (701, 53);
type = Stem;
},
{
place = (202, 62);
place = (202, 62);
type = Stem;
},
{
place = (156, 62);
place = (156, 62);
type = Stem;
}
);
layerId = m01;
shapes = (
{
closed = 1;
nodes = (
(-1,-118,ls),
(84,-118,o),
(125,-83,o),
(143,7,cs),
(183,218,ls),
(193,267,o),
(213,285,o),
(264,287,c),
(275,341,l),
(222,342,o),
(212,365,o),
(221,411,cs),
(260,615,ls),
(277,704,o),
(246,754,o),
(152,754,cs),
(137,754,l),
(127,701,l),
(146,701,ls),
(192,701,o),
(211,681,o),
(199,621,cs),
(160,417,ls),
(148,361,o),
(164,334,o),
(195,318,c),
(195,316,l),
(155,304,o),
(133,278,o),
(124,231,cs),
(82,16,ls),
(70,-48,o),
(48,-63,o),
(-2,-63,cs),
(-21,-63,l),
(-32,-118,l)
);
}
);
width = 283;
}
);
note = braceright;
unicode = 125;
},
{
glyphname = asciitilde;
layers = (
{
hints = (
{
horizontal = 1;
place = (281, 57);
place = (281, 57);
type = Stem;
},
{
place = (44, 317);
place = (44, 317);
type = Stem;
},
{
horizontal = 1;
place = (331, 57);
place = (331, 57);
type = Stem;
}
);
layerId = m01;
shapes = (
{
closed = 1;
nodes = (
(317,281,o),
(351,321,o),
(361,386,c),
(308,386,l),
(303,355,o),
(287,338,o),
(265,338,cs),
(248,338,o),
(233,348,o),
(213,361,cs),
(192,374,o),
(169,388,o),
(139,388,cs),
(91,388,o),
(55,350,o),
(44,282,c),
(96,282,l),
(101,313,o),
(117,331,o),
(137,331,cs),
(154,331,o),
(170,320,o),
(195,306,cs),
(216,293,o),
(239,281,o),
(266,281,cs)
);
}
);
width = 379;
}
);
note = asciitilde;
unicode = 126;
},
{
glyphname = Adieresis;
kernLeft = A;
kernRight = A;
layers = (
{
hints = (
{
horizontal = 1;
place = (0, 21);
target = up;
type = BottomGhost;
},
{
horizontal = 1;
place = (225, 55);
place = (225, 55);
type = Stem;
},
{
horizontal = 1;
place = (715, -20);
target = down;
type = TopGhost;
},
{
horizontal = 1;
place = (757, 86);
place = (757, 86);
type = Stem;
},
{
place = (-43, 601);
place = (-43, 601);
type = Stem;
},
{
horizontal = 1;
place = (651, 64);
place = (651, 64);
type = Stem;
}
);
layerId = m01;
shapes = (
{
closed = 1;
nodes = (
(489,0,l),
(558,0,l),
(417,715,l),
(342,715,l),
(-43,0,l),
(25,0,l),
(144,225,l),
(447,225,l)
);
},
{
closed = 1;
nodes = (
(316,546,ls),
(340,592,o),
(368,651,o),
(368,651,c),
(370,651,l),
(370,651,o),
(379,587,o),
(387,547,cs),
(437,280,l),
(174,280,l)
);
},
{
closed = 1;
nodes = (
(274,757,l),
(335,757,l),
(352,843,l),
(292,843,l)
);
},
{
closed = 1;
nodes = (
(428,757,l),
(488,757,l),
(506,843,l),
(445,843,l)
);
}
);
width = 616;
}
);
note = Adieresis;
unicode = 196;
},
{
glyphname = Aring;
kernLeft = A;
kernRight = A;
layers = (
{
hints = (
{
horizontal = 1;
place = (0, 21);
target = up;
type = BottomGhost;
},
{
horizontal = 1;
place = (225, 55);
place = (225, 55);
type = Stem;
},
{
horizontal = 1;
place = (715, -20);
target = down;
type = TopGhost;
},
{
horizontal = 1;
place = (880, 34);
place = (880, 34);
type = Stem;
},
{
place = (302, 39);
place = (302, 39);
type = Stem;
},
{
place = (438, 38);
place = (438, 38);
type = Stem;
},
{
horizontal = 1;
place = (651, 64);
place = (651, 64);
type = Stem;
},
{
horizontal = 1;
place = (744, 33);
place = (744, 33);
type = Stem;
}
);
layerId = m01;
shapes = (
{
closed = 1;
nodes = (
(489,0,l),
(558,0,l),
(417,715,l),
(342,715,l),
(-43,0,l),
(25,0,l),
(144,225,l),
(447,225,l)
);
},
{
closed = 1;
nodes = (
(316,546,ls),
(340,592,o),
(368,651,o),
(368,651,c),
(370,651,l),
(370,651,o),
(379,587,o),
(387,547,cs),
(437,280,l),
(174,280,l)
);
},
{
closed = 1;
nodes = (
(437,744,o),
(476,782,o),
(476,829,cs),
(476,876,o),
(437,914,o),
(389,914,cs),
(341,914,o),
(302,876,o),
(302,829,cs),
(302,782,o),
(341,744,o),
(389,744,cs)
);
},
{
closed = 1;
nodes = (
(361,777,o),
(341,800,o),
(341,829,cs),
(341,857,o),
(361,880,o),
(389,880,cs),
(418,880,o),
(438,857,o),
(438,829,cs),
(438,800,o),
(418,777,o),
(389,777,cs)
);
}
);
width = 616;
}
);
note = Aring;
unicode = 197;
},
{
glyphname = Ccedilla;
kernLeft = C;
kernRight = C;
layers = (
{
hints = (
{
horizontal = 1;
place = (-187, 38);
place = (-187, 38);
type = Stem;
},
{
horizontal = 1;
place = (-86, 33);
place = (-86, 33);
type = Stem;
},
{
horizontal = 1;
place = (-11, 56);
place = (-11, 56);
type = Stem;
},
{
horizontal = 1;
place = (673, 57);
place = (673, 57);
type = Stem;
},
{
place = (48, 69);
place = (48, 69);
type = Stem;
},
{
place = (319, 54);
place = (319, 54);
type = Stem;
},
{
horizontal = 1;
place = (-161, 21);
target = up;
type = BottomGhost;
}
);
layerId = m01;
shapes = (
{
closed = 1;
nodes = (
(324,-187,o),
(373,-162,o),
(373,-108,cs),
(373,-68,o),
(337,-48,o),
(294,-53,c),
(294,-51,l),
(335,-13,l),
(417,-11,o),
(486,17,o),
(536,67,cs),
(586,116,o),
(620,183,o),
(637,260,c),
(572,260,l),
(544,137,o),
(462,45,o),
(332,45,cs),
(180,45,o),
(117,153,o),
(117,293,cs),
(117,475,o),
(207,673,o),
(408,673,cs),
(515,673,o),
(580,614,o),
(594,513,c),
(659,513,l),
(644,656,o),
(548,730,o),
(414,730,cs),
(172,730,o),
(48,500,o),
(48,291,cs),
(48,124,o),
(130,6,o),
(288,-11,c),
(230,-70,l),
(242,-93,l),
(253,-89,o),
(264,-86,o),
(281,-86,cs),
(304,-86,o),
(319,-94,o),
(319,-112,cs),
(319,-141,o),
(290,-149,o),
(260,-149,cs),
(235,-149,o),
(211,-143,o),
(191,-134,c),
(176,-161,l),
(198,-175,o),
(226,-187,o),
(271,-187,cs)
);
}
);
width = 658;
}
);
note = Ccedilla;
unicode = 199;
},
{
glyphname = Eacute;
kernRight = E;
layers = (
{
hints = (
{
horizontal = 1;
place = (0, 61);
place = (0, 61);
type = Stem;
},
{
horizontal = 1;
place = (342, 57);
place = (342, 57);
type = Stem;
},
{
horizontal = 1;
place = (657, 210);
place = (657, 210);
type = Stem;
},
{
place = (13, 590);
place = (13, 590);
type = Stem;
},
{
horizontal = 1;
place = (657, 58);
place = (657, 58);
type = Stem;
}
);
layerId = m01;
shapes = (
{
closed = 1;
nodes = (
(355,753,l),
(409,753,l),
(505,867,l),
(425,867,l)
);
},
{
closed = 1;
nodes = (
(13,0,l),
(488,0,l),
(500,61,l),
(91,61,l),
(145,342,l),
(505,342,l),
(517,399,l),
(156,399,l),
(206,657,l),
(592,657,l),
(603,715,l),
(151,715,l)
);
}
);
width = 572;
}
);
note = Eacute;
unicode = 201;
},
{
glyphname = Ntilde;
layers = (
{
hints = (
{
horizontal = 1;
place = (0, 21);
target = up;
type = BottomGhost;
},
{
horizontal = 1;
place = (715, -20);
target = down;
type = TopGhost;
},
{
horizontal = 1;
place = (760, 51);
place = (760, 51);
type = Stem;
},
{
place = (13, 657);
place = (13, 657);
type = Stem;
},
{
horizontal = 1;
place = (799, 50);
place = (799, 50);
type = Stem;
},
{
horizontal = 1;
place = (0, 95);
place = (0, 95);
type = Stem;
},
{
horizontal = 1;
place = (621, 94);
place = (621, 94);
type = Stem;
}
);
layerId = m01;
shapes = (
{
closed = 1;
nodes = (
(533,760,o),
(564,794,o),
(574,847,c),
(526,847,l),
(522,825,o),
(510,811,o),
(492,811,cs),
(461,811,o),
(422,849,o),
(375,849,cs),
(336,849,o),
(305,819,o),
(293,762,c),
(342,762,l),
(346,785,o),
(359,799,o),
(373,799,cs),
(401,799,o),
(448,760,o),
(491,760,cs)
);
},
{
closed = 1;
nodes = (
(670,715,l),
(607,715,l),
(487,95,l),
(485,95,l),
(485,95,o),
(465,155,o),
(440,212,cs),
(222,715,l),
(151,715,l),
(13,0,l),
(76,0,l),
(196,621,l),
(198,621,l),
(198,621,o),
(224,552,o),
(248,496,cs),
(463,0,l),
(532,0,l)
);
}
);
width = 645;
}
);
note = Ntilde;
unicode = 209;
},
{
glyphname = Odieresis;
kernLeft = C;
kernRight = O;
layers = (
{
hints = (
{
horizontal = 1;
place = (-14, 59);
place = (-14, 59);
type = Stem;
},
{
horizontal = 1;
place = (671, 59);
place = (671, 59);
type = Stem;
},
{
place = (47, 69);
place = (47, 69);
type = Stem;
},
{
place = (638, 69);
place = (638, 69);
type = Stem;
},
{
horizontal = 1;
place = (757, 86);
place = (757, 86);
type = Stem;
}
);
layerId = m01;
shapes = (
{
closed = 1;
nodes = (
(316,757,l),
(377,757,l),
(394,843,l),
(334,843,l)
);
},
{
closed = 1;
nodes = (
(470,757,l),
(530,757,l),
(548,843,l),
(487,843,l)
);
},
{
closed = 1;
nodes = (
(580,-14,o),
(707,193,o),
(707,412,cs),
(707,611,o),
(578,730,o),
(408,730,cs),
(182,730,o),
(47,520,o),
(47,302,cs),
(47,102,o),
(177,-14,o),
(346,-14,cs)
);
},
{
closed = 1;
nodes = (
(202,45,o),
(116,149,o),
(116,302,cs),
(116,494,o),
(216,671,o),
(405,671,cs),
(551,671,o),
(638,563,o),
(638,412,cs),
(638,221,o),
(539,45,o),
(348,45,cs)
);
}
);
width = 717;
}
);
note = Odieresis;
unicode = 214;
},
{
glyphname = Udieresis;
kernLeft = U;
kernRight = U;
layers = (
{
hints = (
{
horizontal = 1;
place = (-11, 57);
place = (-11, 57);
type = Stem;
},
{
horizontal = 1;
place = (715, -20);
target = down;
type = TopGhost;
},
{
horizontal = 1;
place = (757, 86);
place = (757, 86);
type = Stem;
},
{
place = (46, 66);
place = (46, 66);
type = Stem;
}
);
layerId = m01;
shapes = (
{
closed = 1;
nodes = (
(295,757,l),
(356,757,l),
(373,843,l),
(313,843,l)
);
},
{
closed = 1;
nodes = (
(449,757,l),
(509,757,l),
(527,843,l),
(466,843,l)
);
},
{
closed = 1;
nodes = (
(143,715,l),
(53,251,ls),
(17,65,o),
(124,-11,o),
(282,-11,cs),
(426,-11,o),
(524,58,o),
(553,209,cs),
(651,715,l),
(585,715,l),
(489,218,ls),
(466,97,o),
(400,46,o),
(286,46,cs),
(145,46,o),
(92,113,o),
(119,251,cs),
(209,715,l)
);
}
);
width = 618;
}
);
note = Udieresis;
unicode = 220;
},
{
glyphname = aacute;
kernLeft = a;
kernRight = a;
layers = (
{
hints = (
{
horizontal = 1;
place = (-12, 49);
place = (-12, 49);
type = Stem;
},
{
horizontal = 1;
place = (478, 50);
place = (478, 50);
type = Stem;
},
{
horizontal = 1;
place = (592, 127);
place = (592, 127);
type = Stem;
},
{
place = (1, 62);
place = (1, 62);
type = Stem;
},
{
place = (388, 57);
place = (388, 57);
type = Stem;
},
{
place = (331, 59);
place = (331, 59);
type = Stem;
},
{
horizontal = 1;
place = (-7, 48);
place = (-7, 48);
type = Stem;
}
);
layerId = m01;
shapes = (
{
closed = 1;
nodes = (
(76,285,o),
(1,240,o),
(1,132,cs),
(1,46,o),
(71,-12,o),
(164,-12,cs),
(250,-12,o),
(301,28,o),
(329,67,c),
(331,67,l),
(328,30,o),
(343,-7,o),
(397,-7,cs),
(414,-7,o),
(424,-4,o),
(433,0,c),
(441,43,l),
(438,43,ls),
(431,42,o),
(424,41,o),
(418,41,cs),
(392,41,o),
(384,59,o),
(390,91,cs),
(440,344,ls),
(467,480,o),
(377,528,o),
(273,528,cs),
(150,528,o),
(73,466,o),
(54,366,c),
(116,366,l),
(132,444,o),
(183,479,o),
(270,478,cs),
(334,478,o),
(388,456,o),
(388,388,cs),
(388,349,o),
(378,329,o),
(350,317,cs),
(317,303,o),
(259,304,o),
(179,296,cs)
);
},
{
closed = 1;
nodes = (
(107,37,o),
(64,75,o),
(63,134,cs),
(63,211,o),
(112,238,o),
(179,247,cs),
(256,257,o),
(321,255,o),
(369,276,c),
(352,187,ls),
(337,111,o),
(283,37,o),
(174,37,cs)
);
},
{
closed = 1;
nodes = (
(259,592,l),
(312,592,l),
(409,719,l),
(329,719,l)
);
}
);
width = 487;
}
);
note = aacute;
unicode = 225;
},
{
glyphname = agrave;
kernLeft = a;
kernRight = a;
layers = (
{
hints = (
{
horizontal = 1;
place = (-12, 49);
place = (-12, 49);
type = Stem;
},
{
horizontal = 1;
place = (478, 50);
place = (478, 50);
type = Stem;
},
{
horizontal = 1;
place = (592, 127);
place = (592, 127);
type = Stem;
},
{
place = (1, 62);
place = (1, 62);
type = Stem;
},
{
place = (388, 57);
place = (388, 57);
type = Stem;
},
{
place = (331, 59);
place = (331, 59);
type = Stem;
},
{
horizontal = 1;
place = (-7, 48);
place = (-7, 48);
type = Stem;
}
);
layerId = m01;
shapes = (
{
closed = 1;
nodes = (
(76,285,o),
(1,240,o),
(1,132,cs),
(1,46,o),
(71,-12,o),
(164,-12,cs),
(250,-12,o),
(301,28,o),
(329,67,c),
(331,67,l),
(328,30,o),
(343,-7,o),
(397,-7,cs),
(414,-7,o),
(424,-4,o),
(433,0,c),
(441,43,l),
(438,43,ls),
(431,42,o),
(424,41,o),
(418,41,cs),
(392,41,o),
(384,59,o),
(390,91,cs),
(440,344,ls),
(467,480,o),
(377,528,o),
(273,528,cs),
(150,528,o),
(73,466,o),
(54,366,c),
(116,366,l),
(132,444,o),
(183,479,o),
(270,478,cs),
(334,478,o),
(388,456,o),
(388,388,cs),
(388,349,o),
(378,329,o),
(350,317,cs),
(317,303,o),
(259,304,o),
(179,296,cs)
);
},
{
closed = 1;
nodes = (
(107,37,o),
(64,75,o),
(63,134,cs),
(63,211,o),
(112,238,o),
(179,247,cs),
(256,257,o),
(321,255,o),
(369,276,c),
(352,187,ls),
(337,111,o),
(283,37,o),
(174,37,cs)
);
},
{
closed = 1;
nodes = (
(322,592,l),
(277,719,l),
(201,719,l),
(270,592,l)
);
}
);
width = 487;
}
);
note = agrave;
unicode = 224;
},
{
glyphname = acircumflex;
kernLeft = a;
kernRight = a;
layers = (
{
hints = (
{
horizontal = 1;
place = (-12, 49);
place = (-12, 49);
type = Stem;
},
{
horizontal = 1;
place = (478, 50);
place = (478, 50);
type = Stem;
},
{
horizontal = 1;
place = (596, 106);
place = (596, 106);
type = Stem;
},
{
place = (1, 62);
place = (1, 62);
type = Stem;
},
{
place = (388, 57);
place = (388, 57);
type = Stem;
},
{
place = (331, 59);
place = (331, 59);
type = Stem;
},
{
horizontal = 1;
place = (-7, 48);
place = (-7, 48);
type = Stem;
}
);
layerId = m01;
shapes = (
{
closed = 1;
nodes = (
(76,285,o),
(1,240,o),
(1,132,cs),
(1,46,o),
(71,-12,o),
(164,-12,cs),
(250,-12,o),
(301,28,o),
(329,67,c),
(331,67,l),
(328,30,o),
(343,-7,o),
(397,-7,cs),
(414,-7,o),
(424,-4,o),
(433,0,c),
(441,43,l),
(438,43,ls),
(431,42,o),
(424,41,o),
(418,41,cs),
(392,41,o),
(384,59,o),
(390,91,cs),
(440,344,ls),
(467,480,o),
(377,528,o),
(273,528,cs),
(150,528,o),
(73,466,o),
(54,366,c),
(116,366,l),
(132,444,o),
(183,479,o),
(270,478,cs),
(334,478,o),
(388,456,o),
(388,388,cs),
(388,349,o),
(378,329,o),
(350,317,cs),
(317,303,o),
(259,304,o),
(179,296,cs)
);
},
{
closed = 1;
nodes = (
(107,37,o),
(64,75,o),
(63,134,cs),
(63,211,o),
(112,238,o),
(179,247,cs),
(256,257,o),
(321,255,o),
(369,276,c),
(352,187,ls),
(337,111,o),
(283,37,o),
(174,37,cs)
);
},
{
closed = 1;
nodes = (
(338,702,l),
(264,702,l),
(164,596,l),
(233,596,l),
(295,667,l),
(297,667,l),
(339,596,l),
(403,596,l)
);
}
);
width = 487;
}
);
note = acircumflex;
unicode = 226;
},
{
glyphname = adieresis;
kernLeft = a;
kernRight = a;
layers = (
{
hints = (
{
horizontal = 1;
place = (-12, 49);
place = (-12, 49);
type = Stem;
},
{
horizontal = 1;
place = (478, 50);
place = (478, 50);
type = Stem;
},
{
horizontal = 1;
place = (627, 86);
place = (627, 86);
type = Stem;
},
{
place = (1, 62);
place = (1, 62);
type = Stem;
},
{
place = (388, 57);
place = (388, 57);
type = Stem;
},
{
place = (331, 59);
place = (331, 59);
type = Stem;
},
{
horizontal = 1;
place = (-7, 48);
place = (-7, 48);
type = Stem;
}
);
layerId = m01;
shapes = (
{
closed = 1;
nodes = (
(76,285,o),
(1,240,o),
(1,132,cs),
(1,46,o),
(71,-12,o),
(164,-12,cs),
(250,-12,o),
(301,28,o),
(329,67,c),
(331,67,l),
(328,30,o),
(343,-7,o),
(397,-7,cs),
(414,-7,o),
(424,-4,o),
(433,0,c),
(441,43,l),
(438,43,ls),
(431,42,o),
(424,41,o),
(418,41,cs),
(392,41,o),
(384,59,o),
(390,91,cs),
(440,344,ls),
(467,480,o),
(377,528,o),
(273,528,cs),
(150,528,o),
(73,466,o),
(54,366,c),
(116,366,l),
(132,444,o),
(183,479,o),
(270,478,cs),
(334,478,o),
(388,456,o),
(388,388,cs),
(388,349,o),
(378,329,o),
(350,317,cs),
(317,303,o),
(259,304,o),
(179,296,cs)
);
},
{
closed = 1;
nodes = (
(107,37,o),
(64,75,o),
(63,134,cs),
(63,211,o),
(112,238,o),
(179,247,cs),
(256,257,o),
(321,255,o),
(369,276,c),
(352,187,ls),
(337,111,o),
(283,37,o),
(174,37,cs)
);
},
{
closed = 1;
nodes = (
(181,627,l),
(242,627,l),
(258,713,l),
(198,713,l)
);
},
{
closed = 1;
nodes = (
(335,627,l),
(395,627,l),
(412,713,l),
(352,713,l)
);
}
);
width = 487;
}
);
note = adieresis;
unicode = 228;
},
{
glyphname = atilde;
kernLeft = a;
kernRight = a;
layers = (
{
hints = (
{
horizontal = 1;
place = (-12, 49);
place = (-12, 49);
type = Stem;
},
{
horizontal = 1;
place = (478, 50);
place = (478, 50);
type = Stem;
},
{
horizontal = 1;
place = (600, 51);
place = (600, 51);
type = Stem;
},
{
place = (1, 62);
place = (1, 62);
type = Stem;
},
{
place = (388, 57);
place = (388, 57);
type = Stem;
},
{
place = (331, 59);
place = (331, 59);
type = Stem;
},
{
horizontal = 1;
place = (-7, 48);
place = (-7, 48);
type = Stem;
},
{
horizontal = 1;
place = (639, 51);
place = (639, 51);
type = Stem;
}
);
layerId = m01;
shapes = (
{
closed = 1;
nodes = (
(76,285,o),
(1,240,o),
(1,132,cs),
(1,46,o),
(71,-12,o),
(164,-12,cs),
(250,-12,o),
(301,28,o),
(329,67,c),
(331,67,l),
(328,30,o),
(343,-7,o),
(397,-7,cs),
(414,-7,o),
(424,-4,o),
(433,0,c),
(441,43,l),
(438,43,ls),
(431,42,o),
(424,41,o),
(418,41,cs),
(392,41,o),
(384,59,o),
(390,91,cs),
(440,344,ls),
(467,480,o),
(377,528,o),
(273,528,cs),
(150,528,o),
(73,466,o),
(54,366,c),
(116,366,l),
(132,444,o),
(183,479,o),
(270,478,cs),
(334,478,o),
(388,456,o),
(388,388,cs),
(388,349,o),
(378,329,o),
(350,317,cs),
(317,303,o),
(259,304,o),
(179,296,cs)
);
},
{
closed = 1;
nodes = (
(107,37,o),
(64,75,o),
(63,134,cs),
(63,211,o),
(112,238,o),
(179,247,cs),
(256,257,o),
(321,255,o),
(369,276,c),
(352,187,ls),
(337,111,o),
(283,37,o),
(174,37,cs)
);
},
{
closed = 1;
nodes = (
(389,600,o),
(420,634,o),
(430,688,c),
(382,688,l),
(378,666,o),
(365,651,o),
(348,651,cs),
(316,651,o),
(282,690,o),
(235,690,cs),
(196,690,o),
(165,659,o),
(153,602,c),
(202,602,l),
(206,625,o),
(219,639,o),
(233,639,cs),
(261,639,o),
(304,600,o),
(346,600,cs)
);
}
);
width = 487;
}
);
note = atilde;
unicode = 227;
},
{
glyphname = aring;
kernLeft = a;
kernRight = a;
layers = (
{
hints = (
{
horizontal = 1;
place = (-12, 49);
place = (-12, 49);
type = Stem;
},
{
horizontal = 1;
place = (478, 50);
place = (478, 50);
type = Stem;
},
{
horizontal = 1;
place = (569, 34);
place = (569, 34);
type = Stem;
},
{
horizontal = 1;
place = (705, 34);
place = (705, 34);
type = Stem;
},
{
place = (1, 62);
place = (1, 62);
type = Stem;
},
{
place = (202, 39);
place = (202, 39);
type = Stem;
},
{
place = (388, 57);
place = (388, 57);
type = Stem;
},
{
place = (331, 59);
place = (331, 59);
type = Stem;
},
{
horizontal = 1;
place = (-7, 48);
place = (-7, 48);
type = Stem;
},
{
place = (337, 39);
place = (337, 39);
type = Stem;
}
);
layerId = m01;
shapes = (
{
closed = 1;
nodes = (
(76,285,o),
(1,240,o),
(1,132,cs),
(1,46,o),
(71,-12,o),
(164,-12,cs),
(250,-12,o),
(301,28,o),
(329,67,c),
(331,67,l),
(328,30,o),
(343,-7,o),
(397,-7,cs),
(414,-7,o),
(424,-4,o),
(433,0,c),
(441,43,l),
(438,43,ls),
(431,42,o),
(424,41,o),
(418,41,cs),
(392,41,o),
(384,59,o),
(390,91,cs),
(440,344,ls),
(467,480,o),
(377,528,o),
(273,528,cs),
(150,528,o),
(73,466,o),
(54,366,c),
(116,366,l),
(132,444,o),
(183,479,o),
(270,478,cs),
(334,478,o),
(388,456,o),
(388,388,cs),
(388,349,o),
(378,329,o),
(350,317,cs),
(317,303,o),
(259,304,o),
(179,296,cs)
);
},
{
closed = 1;
nodes = (
(107,37,o),
(64,75,o),
(63,134,cs),
(63,211,o),
(112,238,o),
(179,247,cs),
(256,257,o),
(321,255,o),
(369,276,c),
(352,187,ls),
(337,111,o),
(283,37,o),
(174,37,cs)
);
},
{
closed = 1;
nodes = (
(337,569,o),
(376,607,o),
(376,654,cs),
(376,701,o),
(337,739,o),
(289,739,cs),
(241,739,o),
(202,701,o),
(202,654,cs),
(202,607,o),
(241,569,o),
(289,569,cs)
);
},
{
closed = 1;
nodes = (
(260,603,o),
(241,626,o),
(241,654,cs),
(241,683,o),
(260,705,o),
(289,705,cs),
(317,705,o),
(337,683,o),
(337,654,cs),
(337,626,o),
(317,603,o),
(289,603,cs)
);
}
);
width = 487;
}
);
note = aring;
unicode = 229;
},
{
glyphname = ccedilla;
kernLeft = c;
kernRight = c;
layers = (
{
hints = (
{
horizontal = 1;
place = (-187, 38);
place = (-187, 38);
type = Stem;
},
{
horizontal = 1;
place = (-86, 33);
place = (-86, 33);
type = Stem;
},
{
horizontal = 1;
place = (-10, 49);
place = (-10, 49);
type = Stem;
},
{
horizontal = 1;
place = (478, 51);
place = (478, 51);
type = Stem;
},
{
place = (22, 62);
place = (22, 62);
type = Stem;
},
{
place = (221, 54);
place = (221, 54);
type = Stem;
},
{
horizontal = 1;
place = (-161, 21);
target = up;
type = BottomGhost;
}
);
layerId = m01;
shapes = (
{
closed = 1;
nodes = (
(226,-187,o),
(275,-162,o),
(275,-108,cs),
(275,-68,o),
(239,-48,o),
(196,-53,c),
(196,-51,l),
(238,-13,l),
(343,-8,o),
(421,64,o),
(448,178,c),
(389,178,l),
(368,94,o),
(308,39,o),
(229,39,cs),
(125,39,o),
(84,110,o),
(84,205,cs),
(84,334,o),
(148,478,o),
(286,478,cs),
(369,478,o),
(403,422,o),
(410,361,c),
(470,361,l),
(459,466,o),
(394,529,o),
(288,529,cs),
(115,529,o),
(22,362,o),
(22,206,cs),
(22,75,o),
(91,2,o),
(191,-10,c),
(132,-70,l),
(144,-93,l),
(155,-89,o),
(166,-86,o),
(183,-86,cs),
(206,-86,o),
(221,-94,o),
(221,-112,cs),
(221,-141,o),
(192,-149,o),
(162,-149,cs),
(137,-149,o),
(113,-143,o),
(93,-134,c),
(78,-161,l),
(100,-175,o),
(128,-187,o),
(173,-187,cs)
);
}
);
width = 478;
}
);
note = ccedilla;
unicode = 231;
},
{
glyphname = eacute;
kernLeft = c;
kernRight = e;
layers = (
{
hints = (
{
horizontal = 1;
place = (-13, 52);
place = (-13, 52);
type = Stem;
},
{
horizontal = 1;
place = (247, 49);
place = (247, 49);
type = Stem;
},
{
horizontal = 1;
place = (479, 50);
place = (479, 50);
type = Stem;
},
{
horizontal = 1;
place = (592, 127);
place = (592, 127);
type = Stem;
},
{
place = (22, 62);
place = (22, 62);
type = Stem;
},
{
place = (414, 60);
place = (414, 60);
type = Stem;
}
);
layerId = m01;
shapes = (
{
closed = 1;
nodes = (
(468,247,l),
(482,334,o),
(476,428,o),
(417,483,cs),
(386,513,o),
(345,529,o),
(287,529,cs),
(118,529,o),
(22,363,o),
(22,207,cs),
(22,68,o),
(106,-13,o),
(228,-13,cs),
(333,-13,o),
(414,45,o),
(450,156,c),
(390,156,l),
(366,85,o),
(309,39,o),
(233,39,cs),
(129,39,o),
(84,111,o),
(84,207,cs),
(84,220,o),
(84,234,o),
(86,247,c)
);
},
{
closed = 1;
nodes = (
(387,479,o),
(425,398,o),
(411,296,c),
(94,296,l),
(117,396,o),
(180,479,o),
(284,479,cs)
);
},
{
closed = 1;
nodes = (
(268,592,l),
(321,592,l),
(418,719,l),
(338,719,l)
);
}
);
width = 492;
}
);
note = eacute;
unicode = 233;
},
{
glyphname = egrave;
kernLeft = c;
kernRight = e;
layers = (
{
hints = (
{
horizontal = 1;
place = (-13, 52);
place = (-13, 52);
type = Stem;
},
{
horizontal = 1;
place = (247, 49);
place = (247, 49);
type = Stem;
},
{
horizontal = 1;
place = (479, 50);
place = (479, 50);
type = Stem;
},
{
horizontal = 1;
place = (592, 127);
place = (592, 127);
type = Stem;
},
{
place = (22, 62);
place = (22, 62);
type = Stem;
},
{
place = (414, 60);
place = (414, 60);
type = Stem;
}
);
layerId = m01;
shapes = (
{
closed = 1;
nodes = (
(468,247,l),
(482,334,o),
(476,428,o),
(417,483,cs),
(386,513,o),
(345,529,o),
(287,529,cs),
(118,529,o),
(22,363,o),
(22,207,cs),
(22,68,o),
(106,-13,o),
(228,-13,cs),
(333,-13,o),
(414,45,o),
(450,156,c),
(390,156,l),
(366,85,o),
(309,39,o),
(233,39,cs),
(129,39,o),
(84,111,o),
(84,207,cs),
(84,220,o),
(84,234,o),
(86,247,c)
);
},
{
closed = 1;
nodes = (
(387,479,o),
(425,398,o),
(411,296,c),
(94,296,l),
(117,396,o),
(180,479,o),
(284,479,cs)
);
},
{
closed = 1;
nodes = (
(333,592,l),
(288,719,l),
(212,719,l),
(281,592,l)
);
}
);
width = 492;
}
);
note = egrave;
unicode = 232;
},
{
glyphname = ecircumflex;
kernLeft = c;
kernRight = e;
layers = (
{
hints = (
{
horizontal = 1;
place = (-13, 52);
place = (-13, 52);
type = Stem;
},
{
horizontal = 1;
place = (247, 49);
place = (247, 49);
type = Stem;
},
{
horizontal = 1;
place = (479, 50);
place = (479, 50);
type = Stem;
},
{
horizontal = 1;
place = (596, 106);
place = (596, 106);
type = Stem;
},
{
place = (22, 62);
place = (22, 62);
type = Stem;
},
{
place = (414, 60);
place = (414, 60);
type = Stem;
}
);
layerId = m01;
shapes = (
{
closed = 1;
nodes = (
(468,247,l),
(482,334,o),
(476,428,o),
(417,483,cs),
(386,513,o),
(345,529,o),
(287,529,cs),
(118,529,o),
(22,363,o),
(22,207,cs),
(22,68,o),
(106,-13,o),
(228,-13,cs),
(333,-13,o),
(414,45,o),
(450,156,c),
(390,156,l),
(366,85,o),
(309,39,o),
(233,39,cs),
(129,39,o),
(84,111,o),
(84,207,cs),
(84,220,o),
(84,234,o),
(86,247,c)
);
},
{
closed = 1;
nodes = (
(387,479,o),
(425,398,o),
(411,296,c),
(94,296,l),
(117,396,o),
(180,479,o),
(284,479,cs)
);
},
{
closed = 1;
nodes = (
(349,702,l),
(275,702,l),
(175,596,l),
(244,596,l),
(306,667,l),
(308,667,l),
(350,596,l),
(414,596,l)
);
}
);
width = 492;
}
);
note = ecircumflex;
unicode = 234;
},
{
glyphname = edieresis;
kernLeft = c;
kernRight = e;
layers = (
{
hints = (
{
horizontal = 1;
place = (-13, 52);
place = (-13, 52);
type = Stem;
},
{
horizontal = 1;
place = (247, 49);
place = (247, 49);
type = Stem;
},
{
horizontal = 1;
place = (479, 50);
place = (479, 50);
type = Stem;
},
{
horizontal = 1;
place = (627, 86);
place = (627, 86);
type = Stem;
},
{
place = (22, 62);
place = (22, 62);
type = Stem;
},
{
place = (414, 60);
place = (414, 60);
type = Stem;
}
);
layerId = m01;
shapes = (
{
closed = 1;
nodes = (
(468,247,l),
(482,334,o),
(476,428,o),
(417,483,cs),
(386,513,o),
(345,529,o),
(287,529,cs),
(118,529,o),
(22,363,o),
(22,207,cs),
(22,68,o),
(106,-13,o),
(228,-13,cs),
(333,-13,o),
(414,45,o),
(450,156,c),
(390,156,l),
(366,85,o),
(309,39,o),
(233,39,cs),
(129,39,o),
(84,111,o),
(84,207,cs),
(84,220,o),
(84,234,o),
(86,247,c)
);
},
{
closed = 1;
nodes = (
(387,479,o),
(425,398,o),
(411,296,c),
(94,296,l),
(117,396,o),
(180,479,o),
(284,479,cs)
);
},
{
closed = 1;
nodes = (
(195,627,l),
(256,627,l),
(272,713,l),
(212,713,l)
);
},
{
closed = 1;
nodes = (
(349,627,l),
(409,627,l),
(426,713,l),
(366,713,l)
);
}
);
width = 492;
}
);
note = edieresis;
unicode = 235;
},
{
glyphname = iacute;
kernLeft = b;
layers = (
{
hints = (
{
horizontal = 1;
place = (0, 21);
target = up;
type = BottomGhost;
},
{
horizontal = 1;
place = (517, -20);
target = down;
type = TopGhost;
},
{
horizontal = 1;
place = (592, 127);
place = (592, 127);
type = Stem;
},
{
place = (3, 255);
place = (3, 255);
type = Stem;
}
);
layerId = m01;
shapes = (
{
closed = 1;
nodes = (
(174,592,l),
(258,719,l),
(181,719,l),
(122,592,l)
);
},
{
closed = 1;
nodes = (
(164,517,l),
(103,517,l),
(3,0,l),
(64,0,l)
);
}
);
width = 167;
}
);
note = iacute;
unicode = 237;
},
{
glyphname = igrave;
kernLeft = b;
layers = (
{
hints = (
{
horizontal = 1;
place = (0, 21);
target = up;
type = BottomGhost;
},
{
horizontal = 1;
place = (517, -20);
target = down;
type = TopGhost;
},
{
horizontal = 1;
place = (592, 127);
place = (592, 127);
type = Stem;
},
{
place = (3, 167);
place = (3, 167);
type = Stem;
}
);
layerId = m01;
shapes = (
{
closed = 1;
nodes = (
(65,719,l),
(118,592,l),
(170,592,l),
(139,719,l)
);
},
{
closed = 1;
nodes = (
(164,517,l),
(103,517,l),
(3,0,l),
(64,0,l)
);
}
);
width = 167;
}
);
note = igrave;
unicode = 236;
},
{
glyphname = icircumflex;
kernLeft = b;
layers = (
{
hints = (
{
horizontal = 1;
place = (0, 21);
target = up;
type = BottomGhost;
},
{
horizontal = 1;
place = (517, -20);
target = down;
type = TopGhost;
},
{
horizontal = 1;
place = (596, 106);
place = (596, 106);
type = Stem;
},
{
place = (3, 244);
place = (3, 244);
type = Stem;
}
);
layerId = m01;
shapes = (
{
closed = 1;
nodes = (
(196,702,l),
(123,702,l),
(37,596,l),
(103,596,l),
(154,666,l),
(156,666,l),
(186,596,l),
(247,596,l)
);
},
{
closed = 1;
nodes = (
(164,517,l),
(103,517,l),
(3,0,l),
(64,0,l)
);
}
);
width = 167;
}
);
note = icircumflex;
unicode = 238;
},
{
glyphname = idieresis;
kernLeft = b;
layers = (
{
hints = (
{
horizontal = 1;
place = (0, 21);
target = up;
type = BottomGhost;
},
{
horizontal = 1;
place = (517, -20);
target = down;
type = TopGhost;
},
{
horizontal = 1;
place = (627, 86);
place = (627, 86);
type = Stem;
},
{
place = (3, 252);
place = (3, 252);
type = Stem;
}
);
layerId = m01;
shapes = (
{
closed = 1;
nodes = (
(141,713,l),
(81,713,l),
(65,627,l),
(124,627,l)
);
},
{
closed = 1;
nodes = (
(255,713,l),
(195,713,l),
(178,627,l),
(238,627,l)
);
},
{
closed = 1;
nodes = (
(164,517,l),
(103,517,l),
(3,0,l),
(64,0,l)
);
}
);
width = 167;
}
);
note = idieresis;
unicode = 239;
},
{
glyphname = ntilde;
kernLeft = m;
kernRight = h;
layers = (
{
hints = (
{
horizontal = 1;
place = (0, 21);
target = up;
type = BottomGhost;
},
{
horizontal = 1;
place = (476, 52);
place = (476, 52);
type = Stem;
},
{
horizontal = 1;
place = (600, 51);
place = (600, 51);
type = Stem;
},
{
place = (405, 63);
place = (405, 63);
type = Stem;
},
{
horizontal = 1;
place = (517, -20);
target = down;
type = TopGhost;
},
{
horizontal = 1;
place = (639, 51);
place = (639, 51);
type = Stem;
}
);
layerId = m01;
shapes = (
{
closed = 1;
nodes = (
(62,0,l),
(120,303,ls),
(139,398,o),
(224,476,o),
(322,476,cs),
(390,476,o),
(416,437,o),
(402,364,cs),
(332,0,l),
(393,0,l),
(463,364,ls),
(484,469,o),
(432,528,o),
(336,528,cs),
(252,528,o),
(191,487,o),
(147,430,c),
(145,430,l),
(162,517,l),
(101,517,l),
(1,0,l)
);
},
{
closed = 1;
nodes = (
(406,600,o),
(437,634,o),
(447,688,c),
(399,688,l),
(395,666,o),
(382,651,o),
(365,651,cs),
(333,651,o),
(299,690,o),
(252,690,cs),
(213,690,o),
(182,659,o),
(170,602,c),
(219,602,l),
(223,625,o),
(236,639,o),
(250,639,cs),
(278,639,o),
(321,600,o),
(363,600,cs)
);
}
);
width = 490;
}
);
note = ntilde;
unicode = 241;
},
{
glyphname = oacute;
kernLeft = c;
kernRight = o;
layers = (
{
hints = (
{
horizontal = 1;
place = (-13, 51);
place = (-13, 51);
type = Stem;
},
{
horizontal = 1;
place = (478, 51);
place = (478, 51);
type = Stem;
},
{
horizontal = 1;
place = (592, 127);
place = (592, 127);
type = Stem;
},
{
place = (22, 62);
place = (22, 62);
type = Stem;
},
{
place = (430, 62);
place = (430, 62);
type = Stem;
}
);
layerId = m01;
shapes = (
{
closed = 1;
nodes = (
(273,592,l),
(326,592,l),
(423,719,l),
(343,719,l)
);
},
{
closed = 1;
nodes = (
(406,-13,o),
(492,153,o),
(492,306,cs),
(492,442,o),
(405,529,o),
(285,529,cs),
(110,529,o),
(22,362,o),
(22,207,cs),
(22,68,o),
(111,-13,o),
(231,-13,cs)
);
},
{
closed = 1;
nodes = (
(132,38,o),
(84,114,o),
(84,210,cs),
(84,339,o),
(148,478,o),
(283,478,cs),
(386,478,o),
(430,395,o),
(430,303,cs),
(430,174,o),
(365,38,o),
(233,38,cs)
);
}
);
width = 514;
}
);
note = oacute;
unicode = 243;
},
{
glyphname = ograve;
kernLeft = c;
kernRight = o;
layers = (
{
hints = (
{
horizontal = 1;
place = (-13, 51);
place = (-13, 51);
type = Stem;
},
{
horizontal = 1;
place = (478, 51);
place = (478, 51);
type = Stem;
},
{
horizontal = 1;
place = (592, 127);
place = (592, 127);
type = Stem;
},
{
place = (22, 62);
place = (22, 62);
type = Stem;
},
{
place = (430, 62);
place = (430, 62);
type = Stem;
}
);
layerId = m01;
shapes = (
{
closed = 1;
nodes = (
(406,-13,o),
(492,153,o),
(492,306,cs),
(492,442,o),
(405,529,o),
(285,529,cs),
(110,529,o),
(22,362,o),
(22,207,cs),
(22,68,o),
(111,-13,o),
(231,-13,cs)
);
},
{
closed = 1;
nodes = (
(132,38,o),
(84,114,o),
(84,210,cs),
(84,339,o),
(148,478,o),
(283,478,cs),
(386,478,o),
(430,395,o),
(430,303,cs),
(430,174,o),
(365,38,o),
(233,38,cs)
);
},
{
closed = 1;
nodes = (
(331,592,l),
(286,719,l),
(210,719,l),
(279,592,l)
);
}
);
width = 514;
}
);
note = ograve;
unicode = 242;
},
{
glyphname = ocircumflex;
kernLeft = c;
kernRight = o;
layers = (
{
hints = (
{
horizontal = 1;
place = (-13, 51);
place = (-13, 51);
type = Stem;
},
{
horizontal = 1;
place = (478, 51);
place = (478, 51);
type = Stem;
},
{
horizontal = 1;
place = (596, 106);
place = (596, 106);
type = Stem;
},
{
place = (22, 62);
place = (22, 62);
type = Stem;
},
{
place = (430, 62);
place = (430, 62);
type = Stem;
}
);
layerId = m01;
shapes = (
{
closed = 1;
nodes = (
(357,702,l),
(283,702,l),
(183,596,l),
(252,596,l),
(314,667,l),
(316,667,l),
(358,596,l),
(422,596,l)
);
},
{
closed = 1;
nodes = (
(406,-13,o),
(492,153,o),
(492,306,cs),
(492,442,o),
(405,529,o),
(285,529,cs),
(110,529,o),
(22,362,o),
(22,207,cs),
(22,68,o),
(111,-13,o),
(231,-13,cs)
);
},
{
closed = 1;
nodes = (
(132,38,o),
(84,114,o),
(84,210,cs),
(84,339,o),
(148,478,o),
(283,478,cs),
(386,478,o),
(430,395,o),
(430,303,cs),
(430,174,o),
(365,38,o),
(233,38,cs)
);
}
);
width = 514;
}
);
note = ocircumflex;
unicode = 244;
},
{
glyphname = odieresis;
kernLeft = c;
kernRight = o;
layers = (
{
hints = (
{
horizontal = 1;
place = (-13, 51);
place = (-13, 51);
type = Stem;
},
{
horizontal = 1;
place = (478, 51);
place = (478, 51);
type = Stem;
},
{
horizontal = 1;
place = (627, 86);
place = (627, 86);
type = Stem;
},
{
place = (22, 62);
place = (22, 62);
type = Stem;
},
{
place = (430, 62);
place = (430, 62);
type = Stem;
}
);
layerId = m01;
shapes = (
{
closed = 1;
nodes = (
(199,627,l),
(260,627,l),
(276,713,l),
(216,713,l)
);
},
{
closed = 1;
nodes = (
(353,627,l),
(413,627,l),
(430,713,l),
(370,713,l)
);
},
{
closed = 1;
nodes = (
(406,-13,o),
(492,153,o),
(492,306,cs),
(492,442,o),
(405,529,o),
(285,529,cs),
(110,529,o),
(22,362,o),
(22,207,cs),
(22,68,o),
(111,-13,o),
(231,-13,cs)
);
},
{
closed = 1;
nodes = (
(132,38,o),
(84,114,o),
(84,210,cs),
(84,339,o),
(148,478,o),
(283,478,cs),
(386,478,o),
(430,395,o),
(430,303,cs),
(430,174,o),
(365,38,o),
(233,38,cs)
);
}
);
width = 514;
}
);
note = odieresis;
unicode = 246;
},
{
glyphname = otilde;
kernLeft = c;
kernRight = o;
layers = (
{
hints = (
{
horizontal = 1;
place = (-13, 51);
place = (-13, 51);
type = Stem;
},
{
horizontal = 1;
place = (478, 51);
place = (478, 51);
type = Stem;
},
{
horizontal = 1;
place = (600, 51);
place = (600, 51);
type = Stem;
},
{
place = (22, 62);
place = (22, 62);
type = Stem;
},
{
place = (430, 62);
place = (430, 62);
type = Stem;
},
{
horizontal = 1;
place = (639, 51);
place = (639, 51);
type = Stem;
}
);
layerId = m01;
shapes = (
{
closed = 1;
nodes = (
(406,-13,o),
(492,153,o),
(492,306,cs),
(492,442,o),
(405,529,o),
(285,529,cs),
(110,529,o),
(22,362,o),
(22,207,cs),
(22,68,o),
(111,-13,o),
(231,-13,cs)
);
},
{
closed = 1;
nodes = (
(132,38,o),
(84,114,o),
(84,210,cs),
(84,339,o),
(148,478,o),
(283,478,cs),
(386,478,o),
(430,395,o),
(430,303,cs),
(430,174,o),
(365,38,o),
(233,38,cs)
);
},
{
closed = 1;
nodes = (
(404,600,o),
(435,634,o),
(445,688,c),
(397,688,l),
(393,666,o),
(380,651,o),
(363,651,cs),
(331,651,o),
(297,690,o),
(250,690,cs),
(211,690,o),
(180,659,o),
(168,602,c),
(217,602,l),
(221,625,o),
(234,639,o),
(248,639,cs),
(276,639,o),
(319,600,o),
(361,600,cs)
);
}
);
width = 514;
}
);
note = otilde;
unicode = 245;
},
{
glyphname = uacute;
kernLeft = u;
kernRight = u;
layers = (
{
hints = (
{
horizontal = 1;
place = (-12, 51);
place = (-12, 51);
type = Stem;
},
{
horizontal = 1;
place = (517, -20);
target = down;
type = TopGhost;
},
{
horizontal = 1;
place = (592, 127);
place = (592, 127);
type = Stem;
},
{
place = (22, 61);
place = (22, 61);
type = Stem;
},
{
horizontal = 1;
place = (0, 21);
target = up;
type = BottomGhost;
}
);
layerId = m01;
shapes = (
{
closed = 1;
nodes = (
(263,592,l),
(316,592,l),
(413,719,l),
(333,719,l)
);
},
{
closed = 1;
nodes = (
(419,517,l),
(362,221,ls),
(342,119,o),
(263,39,o),
(166,39,cs),
(96,39,o),
(72,81,o),
(87,157,cs),
(157,517,l),
(96,517,l),
(26,156,ls),
(6,49,o),
(57,-12,o),
(152,-12,cs),
(236,-12,o),
(290,30,o),
(332,81,c),
(334,81,l),
(319,0,l),
(380,0,l),
(480,517,l)
);
}
);
width = 481;
}
);
note = uacute;
unicode = 250;
},
{
glyphname = ugrave;
kernLeft = u;
kernRight = u;
layers = (
{
hints = (
{
horizontal = 1;
place = (-12, 51);
place = (-12, 51);
type = Stem;
},
{
horizontal = 1;
place = (517, -20);
target = down;
type = TopGhost;
},
{
horizontal = 1;
place = (592, 127);
place = (592, 127);
type = Stem;
},
{
place = (22, 61);
place = (22, 61);
type = Stem;
},
{
horizontal = 1;
place = (0, 21);
target = up;
type = BottomGhost;
}
);
layerId = m01;
shapes = (
{
closed = 1;
nodes = (
(419,517,l),
(362,221,ls),
(342,119,o),
(263,39,o),
(166,39,cs),
(96,39,o),
(72,81,o),
(87,157,cs),
(157,517,l),
(96,517,l),
(26,156,ls),
(6,49,o),
(57,-12,o),
(152,-12,cs),
(236,-12,o),
(290,30,o),
(332,81,c),
(334,81,l),
(319,0,l),
(380,0,l),
(480,517,l)
);
},
{
closed = 1;
nodes = (
(329,592,l),
(284,719,l),
(208,719,l),
(277,592,l)
);
}
);
width = 481;
}
);
note = ugrave;
unicode = 249;
},
{
glyphname = ucircumflex;
kernLeft = u;
kernRight = u;
layers = (
{
hints = (
{
horizontal = 1;
place = (-12, 51);
place = (-12, 51);
type = Stem;
},
{
horizontal = 1;
place = (517, -20);
target = down;
type = TopGhost;
},
{
horizontal = 1;
place = (596, 106);
place = (596, 106);
type = Stem;
},
{
place = (22, 61);
place = (22, 61);
type = Stem;
},
{
horizontal = 1;
place = (0, 21);
target = up;
type = BottomGhost;
}
);
layerId = m01;
shapes = (
{
closed = 1;
nodes = (
(352,702,l),
(278,702,l),
(178,596,l),
(247,596,l),
(309,667,l),
(311,667,l),
(353,596,l),
(417,596,l)
);
},
{
closed = 1;
nodes = (
(419,517,l),
(362,221,ls),
(342,119,o),
(263,39,o),
(166,39,cs),
(96,39,o),
(72,81,o),
(87,157,cs),
(157,517,l),
(96,517,l),
(26,156,ls),
(6,49,o),
(57,-12,o),
(152,-12,cs),
(236,-12,o),
(290,30,o),
(332,81,c),
(334,81,l),
(319,0,l),
(380,0,l),
(480,517,l)
);
}
);
width = 481;
}
);
note = ucircumflex;
unicode = 251;
},
{
glyphname = udieresis;
kernLeft = u;
kernRight = u;
layers = (
{
hints = (
{
horizontal = 1;
place = (-12, 51);
place = (-12, 51);
type = Stem;
},
{
horizontal = 1;
place = (517, -20);
target = down;
type = TopGhost;
},
{
horizontal = 1;
place = (627, 86);
place = (627, 86);
type = Stem;
},
{
place = (22, 61);
place = (22, 61);
type = Stem;
},
{
horizontal = 1;
place = (0, 21);
target = up;
type = BottomGhost;
}
);
layerId = m01;
shapes = (
{
closed = 1;
nodes = (
(193,627,l),
(254,627,l),
(270,713,l),
(210,713,l)
);
},
{
closed = 1;
nodes = (
(347,627,l),
(407,627,l),
(424,713,l),
(364,713,l)
);
},
{
closed = 1;
nodes = (
(419,517,l),
(362,221,ls),
(342,119,o),
(263,39,o),
(166,39,cs),
(96,39,o),
(72,81,o),
(87,157,cs),
(157,517,l),
(96,517,l),
(26,156,ls),
(6,49,o),
(57,-12,o),
(152,-12,cs),
(236,-12,o),
(290,30,o),
(332,81,c),
(334,81,l),
(319,0,l),
(380,0,l),
(480,517,l)
);
}
);
width = 481;
}
);
note = udieresis;
unicode = 252;
},
{
glyphname = dagger;
layers = (
{
hints = (
{
horizontal = 1;
place = (466, 54);
place = (466, 54);
type = Stem;
},
{
horizontal = 1;
place = (715, -20);
target = down;
type = TopGhost;
},
{
place = (76, 446);
place = (76, 446);
type = Stem;
}
);
layerId = m01;
shapes = (
{
closed = 1;
nodes = (
(76,466,l),
(262,466,l),
(152,-104,l),
(214,-104,l),
(325,466,l),
(511,466,l),
(522,520,l),
(335,520,l),
(373,715,l),
(311,715,l),
(273,520,l),
(86,520,l)
);
}
);
width = 508;
}
);
note = dagger;
unicode = 8224;
},
{
glyphname = degree;
layers = (
{
hints = (
{
horizontal = 1;
place = (459, 41);
place = (459, 41);
type = Stem;
},
{
horizontal = 1;
place = (658, 42);
place = (658, 42);
type = Stem;
},
{
place = (97, 49);
place = (97, 49);
type = Stem;
},
{
place = (290, 49);
place = (290, 49);
type = Stem;
}
);
layerId = m01;
shapes = (
{
closed = 1;
nodes = (
(286,459,o),
(339,512,o),
(339,579,cs),
(339,646,o),
(286,700,o),
(218,700,cs),
(151,700,o),
(97,646,o),
(97,579,cs),
(97,512,o),
(151,459,o),
(218,459,cs)
);
},
{
closed = 1;
nodes = (
(175,500,o),
(146,533,o),
(146,579,cs),
(146,624,o),
(175,658,o),
(218,658,cs),
(262,658,o),
(290,624,o),
(290,579,cs),
(290,533,o),
(262,500,o),
(218,500,cs)
);
}
);
width = 313;
}
);
note = degree;
unicode = 176;
},
{
glyphname = cent;
layers = (
{
hints = (
{
horizontal = 1;
place = (-13, 52);
place = (-13, 52);
type = Stem;
},
{
horizontal = 1;
place = (477, 114);
place = (477, 114);
type = Stem;
},
{
place = (22, 62);
place = (22, 62);
type = Stem;
},
{
place = (409, 61);
place = (409, 61);
type = Stem;
},
{
horizontal = 1;
place = (-8, 21);
target = up;
type = BottomGhost;
}
);
layerId = m01;
shapes = (
{
closed = 1;
nodes = (
(228,-13,ls),
(338,-13,o),
(420,61,o),
(448,178,c),
(389,177,l),
(368,94,o),
(310,41,o),
(234,39,c),
(318,475,l),
(378,462,o),
(404,413,o),
(409,361,c),
(470,361,l),
(461,454,o),
(410,512,o),
(328,525,c),
(341,591,l),
(295,591,l),
(283,529,l),
(114,525,o),
(22,360,o),
(22,206,cs),
(22,80,o),
(84,9,o),
(179,-8,c),
(164,-85,l),
(210,-85,l),
(224,-13,l)
);
},
{
closed = 1;
nodes = (
(84,330,o),
(144,468,o),
(273,477,c),
(189,43,l),
(114,59,o),
(84,123,o),
(84,205,cs)
);
}
);
width = 478;
}
);
note = cent;
unicode = 162;
},
{
glyphname = sterling;
layers = (
{
hints = (
{
horizontal = 1;
place = (-2, 21);
target = up;
type = BottomGhost;
},
{
horizontal = 1;
place = (39, 48);
place = (39, 48);
type = Stem;
},
{
horizontal = 1;
place = (309, 50);
place = (309, 50);
type = Stem;
},
{
horizontal = 1;
place = (646, 53);
place = (646, 53);
type = Stem;
},
{
place = (134, 61);
place = (134, 61);
type = Stem;
},
{
place = (458, 62);
place = (458, 62);
type = Stem;
},
{
horizontal = 1;
place = (-11, 56);
place = (-11, 56);
type = Stem;
},
{
place = (99, 66);
place = (99, 66);
type = Stem;
}
);
layerId = m01;
shapes = (
{
closed = 1;
nodes = (
(58,359,l),
(48,309,l),
(129,309,l),
(132,292,o),
(134,275,o),
(134,258,cs),
(134,159,o),
(68,96,o),
(-4,53,c),
(24,-2,l),
(55,16,o),
(92,39,o),
(136,39,cs),
(204,39,o),
(247,-11,o),
(335,-11,cs),
(388,-11,o),
(430,9,o),
(472,38,c),
(442,85,l),
(411,63,o),
(377,45,o),
(340,45,cs),
(272,45,o),
(233,87,o),
(162,87,cs),
(134,87,o),
(112,81,o),
(92,72,c),
(91,74,l),
(156,122,o),
(195,185,o),
(195,265,cs),
(195,279,o),
(194,294,o),
(192,309,c),
(337,309,l),
(347,359,l),
(183,359,l),
(175,401,o),
(165,443,o),
(165,481,cs),
(165,587,o),
(229,646,o),
(318,646,cs),
(423,646,o),
(461,579,o),
(458,481,c),
(520,481,l),
(525,614,o),
(455,699,o),
(320,699,cs),
(195,699,o),
(99,613,o),
(99,480,cs),
(99,438,o),
(109,398,o),
(118,359,c)
);
}
);
width = 525;
}
);
note = sterling;
unicode = 163;
},
{
glyphname = section;
layers = (
{
hints = (
{
horizontal = 1;
place = (-184, 55);
place = (-184, 55);
type = Stem;
},
{
horizontal = 1;
place = (645, 55);
place = (645, 55);
type = Stem;
},
{
place = (43, 62);
place = (43, 62);
type = Stem;
},
{
place = (163, 65);
place = (163, 65);
type = Stem;
},
{
place = (330, 64);
place = (330, 64);
type = Stem;
},
{
place = (452, 62);
place = (452, 62);
type = Stem;
},
{
place = (27, 64);
place = (27, 64);
type = Stem;
},
{
place = (446, 63);
place = (446, 63);
type = Stem;
}
);
layerId = m01;
shapes = (
{
closed = 1;
nodes = (
(43,241,o),
(98,194,o),
(196,117,cs),
(291,44,o),
(330,9,o),
(330,-43,cs),
(330,-101,o),
(287,-129,o),
(224,-129,cs),
(136,-129,o),
(95,-75,o),
(91,6,c),
(27,6,l),
(28,-112,o),
(109,-184,o),
(222,-184,cs),
(319,-184,o),
(394,-131,o),
(394,-41,cs),
(394,-11,o),
(384,15,o),
(368,41,c),
(447,62,o),
(509,105,o),
(509,191,cs),
(509,277,o),
(437,335,o),
(349,400,cs),
(266,460,o),
(228,494,o),
(228,547,cs),
(228,616,o),
(279,645,o),
(336,645,cs),
(417,645,o),
(448,590,o),
(452,525,c),
(514,525,l),
(512,636,o),
(448,700,o),
(339,700,cs),
(245,700,o),
(163,643,o),
(163,543,cs),
(163,516,o),
(171,492,o),
(184,470,c),
(106,452,o),
(43,403,o),
(43,320,cs)
);
},
{
closed = 1;
nodes = (
(142,238,o),
(105,273,o),
(105,327,cs),
(105,391,o),
(156,421,o),
(212,433,c),
(239,404,o),
(275,376,o),
(313,348,cs),
(399,285,o),
(446,241,o),
(446,186,cs),
(446,122,o),
(393,91,o),
(338,78,c),
(310,108,o),
(274,137,o),
(232,169,cs)
);
}
);
width = 553;
}
);
note = section;
unicode = 167;
},
{
glyphname = bullet;
layers = (
{
hints = (
{
horizontal = 1;
place = (218, 215);
place = (218, 215);
type = Stem;
},
{
place = (47, 215);
place = (47, 215);
type = Stem;
}
);
layerId = m01;
shapes = (
{
closed = 1;
nodes = (
(214,218,o),
(262,266,o),
(262,325,cs),
(262,384,o),
(214,433,o),
(155,433,cs),
(95,433,o),
(47,384,o),
(47,325,cs),
(47,266,o),
(95,218,o),
(155,218,cs)
);
}
);
width = 284;
}
);
note = bullet;
unicode = 8226;
},
{
glyphname = paragraph;
layers = (
{
hints = (
{
horizontal = 1;
place = (0, 21);
target = up;
type = BottomGhost;
},
{
horizontal = 1;
place = (654, 61);
place = (654, 61);
type = Stem;
},
{
place = (80, 444);
place = (80, 444);
type = Stem;
}
);
layerId = m01;
shapes = (
{
closed = 1;
nodes = (
(267,370,l),
(196,0,l),
(254,0,l),
(381,654,l),
(454,654,l),
(327,0,l),
(386,0,l),
(524,715,l),
(294,715,ls),
(233,715,o),
(186,699,o),
(150,671,cs),
(106,636,o),
(80,584,o),
(80,521,cs),
(80,429,o),
(144,370,o),
(252,370,cs)
);
}
);
width = 499;
}
);
note = paragraph;
unicode = 182;
},
{
glyphname = germandbls;
kernLeft = germandbls;
kernRight = germandbls;
layers = (
{
hints = (
{
horizontal = 1;
place = (-7, 51);
place = (-7, 51);
type = Stem;
},
{
horizontal = 1;
place = (374, 49);
place = (374, 49);
type = Stem;
},
{
horizontal = 1;
place = (673, 50);
place = (673, 50);
type = Stem;
},
{
place = (379, 63);
place = (379, 63);
type = Stem;
},
{
horizontal = 1;
place = (0, 21);
target = up;
type = BottomGhost;
},
{
place = (403, 59);
place = (403, 59);
type = Stem;
}
);
layerId = m01;
shapes = (
{
closed = 1;
nodes = (
(137,5,l),
(158,-3,o),
(184,-7,o),
(215,-7,cs),
(357,-7,o),
(442,89,o),
(442,231,cs),
(442,309,o),
(401,372,o),
(343,396,c),
(343,398,l),
(410,423,o),
(462,478,o),
(462,567,cs),
(462,669,o),
(389,723,o),
(304,723,cs),
(200,723,o),
(128,656,o),
(108,555,cs),
(1,0,l),
(62,0,l),
(168,548,ls),
(183,625,o),
(229,673,o),
(299,673,cs),
(363,673,o),
(403,631,o),
(403,565,cs),
(403,478,o),
(348,423,o),
(254,423,cs),
(226,423,l),
(216,374,l),
(244,374,ls),
(334,374,o),
(379,313,o),
(379,231,cs),
(379,118,o),
(320,45,o),
(217,44,cs),
(192,44,o),
(170,47,o),
(149,56,c),
(147,56,l)
);
}
);
width = 475;
}
);
note = germandbls;
unicode = 223;
},
{
glyphname = registered;
layers = (
{
hints = (
{
horizontal = 1;
place = (244, 32);
place = (244, 32);
type = Stem;
},
{
horizontal = 1;
place = (468, 34);
place = (468, 34);
type = Stem;
},
{
horizontal = 1;
place = (583, 36);
place = (583, 36);
type = Stem;
},
{
horizontal = 1;
place = (696, 32);
place = (696, 32);
type = Stem;
},
{
place = (67, 38);
place = (67, 38);
type = Stem;
},
{
place = (211, 45);
place = (211, 45);
type = Stem;
},
{
place = (366, 44);
place = (366, 44);
type = Stem;
},
{
place = (504, 38);
place = (504, 38);
type = Stem;
}
);
layerId = m01;
shapes = (
{
closed = 1;
nodes = (
(437,244,o),
(542,346,o),
(542,486,cs),
(542,625,o),
(437,728,o),
(304,728,cs),
(172,728,o),
(67,625,o),
(67,486,cs),
(67,346,o),
(172,244,o),
(304,244,cs)
);
},
{
closed = 1;
nodes = (
(189,276,o),
(105,364,o),
(105,486,cs),
(105,607,o),
(189,696,o),
(304,696,cs),
(420,696,o),
(504,607,o),
(504,486,cs),
(504,364,o),
(420,276,o),
(304,276,cs)
);
},
{
closed = 1;
nodes = (
(211,360,l),
(256,360,l),
(256,468,l),
(307,468,ls),
(342,468,o),
(358,451,o),
(359,419,cs),
(360,388,o),
(363,363,o),
(370,360,c),
(413,360,l),
(413,362,l),
(405,366,o),
(406,390,o),
(402,428,cs),
(399,461,o),
(387,477,o),
(362,484,c),
(362,485,l),
(395,494,o),
(410,517,o),
(410,547,cs),
(410,590,o),
(377,619,o),
(329,619,cs),
(211,619,l)
);
},
{
closed = 1;
nodes = (
(256,583,l),
(320,583,ls),
(351,583,o),
(366,566,o),
(366,542,cs),
(366,518,o),
(350,502,o),
(320,502,cs),
(256,502,l)
);
}
);
width = 520;
}
);
note = registered;
unicode = 174;
},
{
glyphname = copyright;
kernLeft = copyright;
kernRight = copyright;
layers = (
{
hints = (
{
horizontal = 1;
place = (-17, 35);
place = (-17, 35);
type = Stem;
},
{
horizontal = 1;
place = (124, 51);
place = (124, 51);
type = Stem;
},
{
horizontal = 1;
place = (538, 52);
place = (538, 52);
type = Stem;
},
{
horizontal = 1;
place = (693, 35);
place = (693, 35);
type = Stem;
},
{
place = (54, 42);
place = (54, 42);
type = Stem;
},
{
place = (214, 63);
place = (214, 63);
type = Stem;
},
{
place = (741, 42);
place = (741, 42);
type = Stem;
}
);
layerId = m01;
shapes = (
{
closed = 1;
nodes = (
(623,-17,o),
(783,141,o),
(783,355,cs),
(783,569,o),
(623,728,o),
(419,728,cs),
(214,728,o),
(54,569,o),
(54,355,cs),
(54,141,o),
(214,-17,o),
(419,-17,cs)
);
},
{
closed = 1;
nodes = (
(233,18,o),
(96,161,o),
(96,355,cs),
(96,549,o),
(233,693,o),
(419,693,cs),
(604,693,o),
(741,549,o),
(741,355,cs),
(741,161,o),
(604,18,o),
(419,18,cs)
);
},
{
closed = 1;
nodes = (
(480,124,o),
(526,144,o),
(557,176,cs),
(585,205,o),
(602,247,o),
(604,289,c),
(545,289,l),
(539,224,o),
(496,175,o),
(421,175,cs),
(329,175,o),
(277,251,o),
(277,355,cs),
(277,458,o),
(325,538,o),
(422,538,cs),
(488,538,o),
(529,502,o),
(539,448,c),
(599,448,l),
(586,531,o),
(523,590,o),
(423,590,cs),
(293,590,o),
(214,490,o),
(214,355,cs),
(214,220,o),
(298,124,o),
(421,124,cs)
);
}
);
width = 799;
}
);
note = copyright;
unicode = 169;
},
{
glyphname = trademark;
layers = (
{
hints = (
{
horizontal = 1;
place = (429, 57);
place = (429, 57);
type = Stem;
},
{
horizontal = 1;
place = (675, 40);
place = (675, 40);
type = Stem;
},
{
place = (110, 558);
place = (110, 558);
type = Stem;
}
);
layerId = m01;
shapes = (
{
closed = 1;
nodes = (
(379,429,l),
(423,661,l),
(425,661,l),
(425,661,o),
(430,610,o),
(435,568,cs),
(452,429,l),
(497,429,l),
(568,568,ls),
(590,611,o),
(612,661,o),
(612,661,c),
(614,661,l),
(570,429,l),
(613,429,l),
(668,715,l),
(600,715,l),
(486,486,l),
(485,486,l),
(457,715,l),
(392,715,l),
(337,429,l)
);
},
{
closed = 1;
nodes = (
(110,675,l),
(201,675,l),
(154,429,l),
(199,429,l),
(247,675,l),
(337,675,l),
(345,715,l),
(118,715,l)
);
}
);
width = 626;
}
);
note = trademark;
unicode = 8482;
},
{
glyphname = acute;
layers = (
{
hints = (
{
horizontal = 1;
place = (592, 127);
place = (592, 127);
type = Stem;
},
{
place = (273, 150);
place = (273, 150);
type = Stem;
}
);
layerId = m01;
shapes = (
{
closed = 1;
nodes = (
(273,592,l),
(326,592,l),
(423,719,l),
(343,719,l)
);
}
);
width = 492;
}
);
note = acute;
unicode = 180;
},
{
glyphname = dieresis;
layers = (
{
hints = (
{
horizontal = 1;
place = (627, 86);
place = (627, 86);
type = Stem;
},
{
place = (216, 231);
place = (216, 231);
type = Stem;
}
);
layerId = m01;
shapes = (
{
closed = 1;
nodes = (
(216,627,l),
(277,627,l),
(293,713,l),
(233,713,l)
);
},
{
closed = 1;
nodes = (
(370,627,l),
(430,627,l),
(447,713,l),
(387,713,l)
);
}
);
width = 504;
}
);
note = dieresis;
unicode = 168;
},
{
glyphname = notequal;
layers = (
{
hints = (
{
horizontal = 1;
place = (205, 52);
place = (205, 52);
type = Stem;
},
{
horizontal = 1;
place = (365, 52);
place = (365, 52);
type = Stem;
},
{
place = (43, 456);
place = (43, 456);
type = Stem;
},
{
horizontal = 1;
place = (365, 162);
place = (365, 162);
type = Stem;
}
);
layerId = m01;
shapes = (
{
closed = 1;
nodes = (
(74,365,l),
(276,365,l),
(213,257,l),
(54,257,l),
(43,205,l),
(182,205,l),
(113,86,l),
(168,86,l),
(238,205,l),
(457,205,l),
(468,257,l),
(268,257,l),
(332,365,l),
(488,365,l),
(499,417,l),
(362,417,l),
(427,527,l),
(371,527,l),
(306,417,l),
(85,417,l)
);
}
);
width = 522;
}
);
note = notequal;
unicode = 8800;
},
{
glyphname = AE;
kernLeft = AE;
kernRight = E;
layers = (
{
hints = (
{
horizontal = 1;
place = (0, 61);
place = (0, 61);
type = Stem;
},
{
horizontal = 1;
place = (226, 54);
place = (226, 54);
type = Stem;
},
{
horizontal = 1;
place = (342, 57);
place = (342, 57);
type = Stem;
},
{
horizontal = 1;
place = (657, 58);
place = (657, 58);
type = Stem;
},
{
place = (-40, 992);
place = (-40, 992);
type = Stem;
}
);
layerId = m01;
shapes = (
{
closed = 1;
nodes = (
(390,0,l),
(838,0,l),
(849,61,l),
(468,61,l),
(522,342,l),
(855,342,l),
(866,399,l),
(533,399,l),
(583,657,l),
(942,657,l),
(952,715,l),
(375,715,l),
(-40,0,l),
(29,0,l),
(159,226,l),
(433,226,l)
);
},
{
closed = 1;
nodes = (
(409,657,l),
(517,657,l),
(444,280,l),
(191,280,l)
);
}
);
width = 924;
}
);
note = AE;
unicode = 198;
},
{
glyphname = Oslash;
kernLeft = C;
kernRight = O;
layers = (
{
hints = (
{
horizontal = 1;
place = (-14, 59);
place = (-14, 59);
type = Stem;
},
{
horizontal = 1;
place = (671, 59);
place = (671, 59);
type = Stem;
},
{
place = (47, 69);
place = (47, 69);
type = Stem;
},
{
place = (638, 69);
place = (638, 69);
type = Stem;
},
{
horizontal = 1;
place = (698, -20);
target = down;
type = TopGhost;
}
);
layerId = m01;
shapes = (
{
closed = 1;
nodes = (
(56,-16,l),
(134,69,l),
(187,15,o),
(262,-14,o),
(346,-14,cs),
(580,-14,o),
(707,193,o),
(707,412,cs),
(707,497,o),
(683,567,o),
(642,620,c),
(714,698,l),
(682,729,l),
(612,654,l),
(559,703,o),
(488,730,o),
(408,730,cs),
(182,730,o),
(47,520,o),
(47,302,cs),
(47,222,o),
(68,155,o),
(104,103,c),
(23,15,l)
);
},
{
closed = 1;
nodes = (
(275,45,o),
(217,71,o),
(177,116,c),
(596,570,l),
(623,527,o),
(638,473,o),
(638,412,cs),
(638,221,o),
(539,45,o),
(348,45,cs)
);
},
{
closed = 1;
nodes = (
(116,494,o),
(216,671,o),
(405,671,cs),
(473,671,o),
(529,647,o),
(568,606,c),
(151,153,l),
(128,194,o),
(116,244,o),
(116,302,cs)
);
}
);
width = 717;
}
);
note = Oslash;
unicode = 216;
},
{
glyphname = infinity;
layers = (
{
hints = (
{
horizontal = 1;
place = (133, 54);
place = (133, 54);
type = Stem;
},
{
horizontal = 1;
place = (423, 53);
place = (423, 53);
type = Stem;
},
{
place = (41, 62);
place = (41, 62);
type = Stem;
},
{
place = (621, 62);
place = (621, 62);
type = Stem;
}
);
layerId = m01;
shapes = (
{
closed = 1;
nodes = (
(273,133,o),
(323,190,o),
(364,256,c),
(405,190,o),
(453,133,o),
(531,133,cs),
(624,133,o),
(683,202,o),
(683,305,cs),
(683,407,o),
(624,476,o),
(531,476,cs),
(453,476,o),
(405,419,o),
(364,353,c),
(323,419,o),
(273,476,o),
(192,476,cs),
(91,476,o),
(41,396,o),
(41,305,cs),
(41,213,o),
(90,133,o),
(192,133,cs)
);
},
{
closed = 1;
nodes = (
(255,423,o),
(295,366,o),
(331,304,c),
(295,243,o),
(255,187,o),
(194,187,cs),
(131,187,o),
(103,240,o),
(103,305,cs),
(103,369,o),
(131,423,o),
(194,423,cs)
);
},
{
closed = 1;
nodes = (
(471,187,o),
(434,243,o),
(398,304,c),
(434,366,o),
(471,423,o),
(529,423,cs),
(592,423,o),
(621,369,o),
(621,305,cs),
(621,240,o),
(592,187,o),
(529,187,cs)
);
}
);
width = 715;
}
);
note = infinity;
unicode = 8734;
},
{
glyphname = plusminus;
layers = (
{
hints = (
{
horizontal = 1;
place = (0, 52);
place = (0, 52);
type = Stem;
},
{
horizontal = 1;
place = (314, 53);
place = (314, 53);
type = Stem;
},
{
place = (4, 484);
place = (4, 484);
type = Stem;
}
);
layerId = m01;
shapes = (
{
closed = 1;
nodes = (
(64,314,l),
(243,314,l),
(208,134,l),
(264,134,l),
(299,314,l),
(478,314,l),
(488,367,l),
(309,367,l),
(344,545,l),
(288,545,l),
(253,367,l),
(74,367,l)
);
},
{
closed = 1;
nodes = (
(4,0,l),
(418,0,l),
(427,52,l),
(13,52,l)
);
}
);
width = 522;
}
);
note = plusminus;
unicode = 177;
},
{
glyphname = lessequal;
layers = (
{
hints = (
{
horizontal = 1;
place = (0, 52);
place = (0, 52);
type = Stem;
},
{
place = (-1, 489);
place = (-1, 489);
type = Stem;
}
);
layerId = m01;
shapes = (
{
closed = 1;
nodes = (
(-1,0,l),
(388,0,l),
(398,52,l),
(9,52,l)
);
},
{
closed = 1;
nodes = (
(409,113,l),
(421,169,l),
(110,311,l),
(110,313,l),
(476,452,l),
(488,514,l),
(66,350,l),
(53,282,l)
);
}
);
width = 491;
}
);
note = lessequal;
unicode = 8804;
},
{
glyphname = greaterequal;
layers = (
{
hints = (
{
horizontal = 1;
place = (0, 52);
place = (0, 52);
type = Stem;
},
{
place = (3, 456);
place = (3, 456);
type = Stem;
}
);
layerId = m01;
shapes = (
{
closed = 1;
nodes = (
(3,0,l),
(392,0,l),
(402,52,l),
(13,52,l)
);
},
{
closed = 1;
nodes = (
(103,514,l),
(91,458,l),
(401,316,l),
(401,314,l),
(36,175,l),
(24,113,l),
(446,277,l),
(459,345,l)
);
}
);
width = 491;
}
);
note = greaterequal;
unicode = 8805;
},
{
glyphname = yen;
layers = (
{
hints = (
{
horizontal = 1;
place = (162, 45);
place = (162, 45);
type = Stem;
},
{
horizontal = 1;
place = (281, 45);
place = (281, 45);
type = Stem;
},
{
horizontal = 1;
place = (686, -20);
target = down;
type = TopGhost;
},
{
place = (39, 557);
place = (39, 557);
type = Stem;
},
{
horizontal = 1;
place = (0, 207);
place = (0, 207);
type = Stem;
}
);
layerId = m01;
shapes = (
{
closed = 1;
nodes = (
(62,281,l),
(240,281,l),
(225,207,l),
(48,207,l),
(39,162,l),
(217,162,l),
(186,0,l),
(248,0,l),
(279,162,l),
(456,162,l),
(466,207,l),
(288,207,l),
(302,281,l),
(480,281,l),
(489,326,l),
(323,326,l),
(596,686,l),
(525,686,l),
(286,360,l),
(284,360,l),
(160,686,l),
(93,686,l),
(237,326,l),
(71,326,l)
);
}
);
width = 524;
}
);
note = yen;
unicode = 165;
},
{
glyphname = mu;
layers = (
{
hints = (
{
horizontal = 1;
place = (-166, 21);
target = up;
type = BottomGhost;
},
{
horizontal = 1;
place = (-12, 51);
place = (-12, 51);
type = Stem;
},
{
horizontal = 1;
place = (517, -20);
target = down;
type = TopGhost;
},
{
place = (70, 18);
place = (70, 18);
type = Stem;
},
{
horizontal = 1;
place = (0, 21);
target = up;
type = BottomGhost;
}
);
layerId = m01;
shapes = (
{
closed = 1;
nodes = (
(423,517,l),
(366,221,ls),
(346,119,o),
(268,39,o),
(172,39,cs),
(101,39,o),
(77,83,o),
(91,159,cs),
(161,517,l),
(101,517,l),
(-32,-166,l),
(28,-166,l),
(68,36,l),
(70,36,l),
(86,1,o),
(122,-12,o),
(162,-12,cs),
(246,-12,o),
(295,30,o),
(337,81,c),
(339,81,l),
(323,0,l),
(384,0,l),
(484,517,l)
);
}
);
width = 484;
}
);
note = mu;
unicode = 181;
},
{
glyphname = partialdiff;
layers = (
{
hints = (
{
horizontal = 1;
place = (-13, 52);
place = (-13, 52);
type = Stem;
},
{
horizontal = 1;
place = (420, 53);
place = (420, 53);
type = Stem;
},
{
horizontal = 1;
place = (721, -20);
target = down;
type = TopGhost;
},
{
place = (31, 66);
place = (31, 66);
type = Stem;
},
{
place = (410, 67);
place = (410, 67);
type = Stem;
}
);
layerId = m01;
shapes = (
{
closed = 1;
nodes = (
(376,448,o),
(321,473,o),
(261,473,cs),
(125,473,o),
(31,361,o),
(31,208,cs),
(31,82,o),
(108,-13,o),
(239,-13,cs),
(398,-13,o),
(477,125,o),
(477,299,cs),
(477,497,o),
(402,693,o),
(132,721,c),
(132,666,l),
(312,642,o),
(387,529,o),
(408,396,c)
);
},
{
closed = 1;
nodes = (
(97,333,o),
(161,420,o),
(263,420,cs),
(356,420,o),
(410,351,o),
(410,259,cs),
(410,145,o),
(345,39,o),
(240,39,cs),
(139,39,o),
(97,122,o),
(97,208,cs)
);
}
);
width = 517;
}
);
note = partialdiff;
unicode = 8706;
},
{
glyphname = summation;
layers = (
{
hints = (
{
horizontal = 1;
place = (-100, 60);
place = (-100, 60);
type = Stem;
},
{
horizontal = 1;
place = (656, 59);
place = (656, 59);
type = Stem;
},
{
place = (78, 513);
place = (78, 513);
type = Stem;
},
{
place = (78, 80);
place = (78, 80);
type = Stem;
},
{
place = (380, 69);
place = (380, 69);
type = Stem;
}
);
layerId = m01;
shapes = (
{
closed = 1;
nodes = (
(591,-100,l),
(591,-40,l),
(155,-40,l),
(155,-38,l),
(449,308,l),
(449,343,l),
(158,654,l),
(158,656,l),
(587,656,l),
(587,715,l),
(78,715,l),
(78,649,l),
(380,324,l),
(380,322,l),
(78,-40,l),
(78,-100,l)
);
}
);
width = 621;
}
);
note = summation;
unicode = 8721;
},
{
glyphname = product;
layers = (
{
hints = (
{
horizontal = 1;
place = (655, 60);
place = (655, 60);
type = Stem;
},
{
place = (93, 68);
place = (93, 68);
type = Stem;
},
{
place = (552, 67);
place = (552, 67);
type = Stem;
}
);
layerId = m01;
shapes = (
{
closed = 1;
nodes = (
(552,655,l),
(552,-100,l),
(619,-100,l),
(619,715,l),
(93,715,l),
(93,-100,l),
(161,-100,l),
(161,655,l)
);
}
);
width = 675;
}
);
note = product;
unicode = 8719;
},
{
glyphname = pi;
layers = (
{
hints = (
{
horizontal = 1;
place = (-4, 53);
place = (-4, 53);
type = Stem;
},
{
horizontal = 1;
place = (467, 50);
place = (467, 50);
type = Stem;
},
{
place = (362, 63);
place = (362, 63);
type = Stem;
},
{
horizontal = 1;
place = (0, 21);
target = up;
type = BottomGhost;
}
);
layerId = m01;
shapes = (
{
closed = 1;
nodes = (
(586,517,l),
(70,517,l),
(60,467,l),
(139,467,l),
(49,0,l),
(110,0,l),
(200,467,l),
(434,467,l),
(365,109,ls),
(351,38,o),
(380,-4,o),
(450,-4,cs),
(466,-4,o),
(483,-1,o),
(496,3,c),
(506,56,l),
(503,56,l),
(493,52,o),
(477,49,o),
(463,49,cs),
(428,49,o),
(418,67,o),
(425,104,cs),
(495,467,l),
(576,467,l)
);
}
);
width = 568;
}
);
note = pi;
unicode = 960;
},
{
glyphname = integral;
layers = (
{
hints = (
{
horizontal = 1;
place = (-176, 55);
place = (-176, 55);
type = Stem;
},
{
horizontal = 1;
place = (686, 55);
place = (686, 55);
type = Stem;
},
{
place = (148, 62);
place = (148, 62);
type = Stem;
},
{
horizontal = 1;
place = (731, -20);
target = down;
type = TopGhost;
},
{
horizontal = 1;
place = (-165, 21);
target = up;
type = BottomGhost;
}
);
layerId = m01;
shapes = (
{
closed = 1;
nodes = (
(210,613,ls),
(210,663,o),
(236,686,o),
(278,686,cs),
(299,686,o),
(319,681,o),
(330,676,c),
(333,676,l),
(333,731,l),
(314,738,o),
(294,741,o),
(269,741,cs),
(200,741,o),
(148,699,o),
(148,614,cs),
(148,-48,ls),
(148,-98,o),
(122,-121,o),
(81,-121,cs),
(59,-121,o),
(40,-116,o),
(29,-111,c),
(26,-111,l),
(26,-165,l),
(45,-173,o),
(65,-176,o),
(90,-176,cs),
(158,-176,o),
(210,-134,o),
(210,-49,cs)
);
}
);
width = 356;
}
);
note = integral;
unicode = 8747;
},
{
glyphname = ordfeminine;
layers = (
{
hints = (
{
horizontal = 1;
place = (228, 47);
place = (228, 47);
type = Stem;
},
{
horizontal = 1;
place = (653, 47);
place = (653, 47);
type = Stem;
},
{
place = (56, 62);
place = (56, 62);
type = Stem;
},
{
place = (392, 57);
place = (392, 57);
type = Stem;
},
{
place = (344, 58);
place = (344, 58);
type = Stem;
},
{
horizontal = 1;
place = (233, 47);
place = (233, 47);
type = Stem;
}
);
layerId = m01;
shapes = (
{
closed = 1;
nodes = (
(127,489,o),
(56,451,o),
(56,353,cs),
(56,280,o),
(115,228,o),
(199,228,cs),
(271,228,o),
(315,263,o),
(341,299,c),
(344,299,l),
(340,266,o),
(355,233,o),
(405,233,cs),
(419,233,o),
(429,235,o),
(438,238,c),
(446,282,l),
(443,282,ls),
(437,281,o),
(431,280,o),
(426,280,cs),
(403,280,o),
(397,296,o),
(402,324,cs),
(445,541,ls),
(469,658,o),
(389,700,o),
(297,700,cs),
(189,700,o),
(121,642,o),
(105,554,c),
(163,554,l),
(177,621,o),
(220,653,o),
(294,653,cs),
(349,653,o),
(392,633,o),
(392,577,cs),
(392,546,o),
(384,529,o),
(362,519,cs),
(335,506,o),
(287,503,o),
(217,498,cs)
);
},
{
closed = 1;
nodes = (
(152,275,o),
(118,306,o),
(118,357,cs),
(119,424,o),
(163,445,o),
(216,452,cs),
(286,460,o),
(336,460,o),
(376,477,c),
(361,403,ls),
(347,335,o),
(301,275,o),
(209,275,cs)
);
}
);
width = 462;
}
);
note = ordfeminine;
unicode = 170;
},
{
glyphname = ordmasculine;
layers = (
{
hints = (
{
horizontal = 1;
place = (226, 49);
place = (226, 49);
type = Stem;
},
{
horizontal = 1;
place = (652, 48);
place = (652, 48);
type = Stem;
},
{
place = (66, 60);
place = (66, 60);
type = Stem;
},
{
place = (419, 61);
place = (419, 61);
type = Stem;
}
);
layerId = m01;
shapes = (
{
closed = 1;
nodes = (
(401,226,o),
(480,368,o),
(480,504,cs),
(480,624,o),
(403,700,o),
(297,700,cs),
(147,700,o),
(66,558,o),
(66,419,cs),
(66,297,o),
(144,226,o),
(249,226,cs)
);
},
{
closed = 1;
nodes = (
(167,275,o),
(126,338,o),
(126,421,cs),
(126,534,o),
(182,652,o),
(296,652,cs),
(382,652,o),
(419,581,o),
(419,502,cs),
(419,388,o),
(363,275,o),
(251,275,cs)
);
}
);
width = 472;
}
);
note = ordmasculine;
unicode = 186;
},
{
glyphname = Omega;
layers = (
{
hints = (
{
horizontal = 1;
place = (0, 57);
place = (0, 57);
type = Stem;
},
{
horizontal = 1;
place = (671, 59);
place = (671, 59);
type = Stem;
},
{
place = (48, 69);
place = (48, 69);
type = Stem;
},
{
place = (620, 69);
place = (620, 69);
type = Stem;
}
);
layerId = m01;
shapes = (
{
closed = 1;
nodes = (
(-4,0,l),
(250,0,l),
(261,61,l),
(169,96,o),
(117,191,o),
(117,312,cs),
(117,475,o),
(201,671,o),
(402,671,cs),
(536,671,o),
(620,580,o),
(620,433,cs),
(620,255,o),
(535,99,o),
(360,58,c),
(349,0,l),
(614,0,l),
(625,57,l),
(475,57,l),
(475,59,l),
(617,127,o),
(689,275,o),
(689,434,cs),
(689,611,o),
(577,730,o),
(404,730,cs),
(176,729,o),
(48,517,o),
(48,312,cs),
(48,200,o),
(94,109,o),
(165,59,c),
(165,57,l),
(7,57,l)
);
}
);
width = 699;
}
);
note = Omega;
unicode = 8486;
},
{
glyphname = ae;
kernLeft = a;
kernRight = e;
layers = (
{
hints = (
{
horizontal = 1;
place = (-13, 52);
place = (-13, 52);
type = Stem;
},
{
horizontal = 1;
place = (247, 49);
place = (247, 49);
type = Stem;
},
{
horizontal = 1;
place = (478, 50);
place = (478, 50);
type = Stem;
},
{
place = (1, 62);
place = (1, 62);
type = Stem;
},
{
place = (736, 60);
place = (736, 60);
type = Stem;
},
{
horizontal = 1;
place = (-12, 49);
place = (-12, 49);
type = Stem;
},
{
horizontal = 1;
place = (479, 50);
place = (479, 50);
type = Stem;
}
);
layerId = m01;
shapes = (
{
closed = 1;
nodes = (
(146,528,o),
(71,466,o),
(53,366,c),
(115,366,l),
(130,444,o),
(180,479,o),
(266,478,cs),
(330,478,o),
(382,456,o),
(382,388,cs),
(382,349,o),
(371,328,o),
(344,315,cs),
(311,300,o),
(256,301,o),
(177,293,cs),
(76,283,o),
(1,237,o),
(1,130,cs),
(1,44,o),
(71,-12,o),
(166,-12,cs),
(247,-12,o),
(331,21,o),
(370,122,c),
(393,36,o),
(459,-13,o),
(551,-13,cs),
(656,-13,o),
(736,45,o),
(772,156,c),
(712,156,l),
(688,85,o),
(633,39,o),
(556,39,cs),
(454,39,o),
(413,111,o),
(413,207,cs),
(413,220,o),
(413,234,o),
(415,247,c),
(790,247,l),
(804,335,o),
(798,428,o),
(740,483,cs),
(709,513,o),
(669,529,o),
(612,529,cs),
(530,529,o),
(470,484,o),
(430,423,c),
(416,499,o),
(350,528,o),
(269,528,cs)
);
},
{
closed = 1;
nodes = (
(107,37,o),
(64,75,o),
(63,133,cs),
(64,208,o),
(113,235,o),
(176,244,cs),
(252,255,o),
(314,254,o),
(362,275,c),
(345,187,ls),
(329,107,o),
(280,37,o),
(172,37,cs)
);
},
{
closed = 1;
nodes = (
(711,479,o),
(747,398,o),
(733,296,c),
(423,296,l),
(446,396,o),
(508,479,o),
(610,479,cs)
);
}
);
width = 815;
}
);
note = ae;
unicode = 230;
},
{
glyphname = oslash;
kernLeft = c;
kernRight = o;
layers = (
{
hints = (
{
horizontal = 1;
place = (-13, 51);
place = (-13, 51);
type = Stem;
},
{
horizontal = 1;
place = (478, 51);
place = (478, 51);
type = Stem;
},
{
place = (22, 62);
place = (22, 62);
type = Stem;
},
{
place = (430, 62);
place = (430, 62);
type = Stem;
}
);
layerId = m01;
shapes = (
{
closed = 1;
nodes = (
(31,-15,l),
(84,43,l),
(121,7,o),
(172,-13,o),
(230,-13,cs),
(403,-13,o),
(492,153,o),
(492,306,cs),
(492,361,o),
(477,408,o),
(452,445,c),
(504,503,l),
(476,530,l),
(426,475,l),
(390,509,o),
(342,529,o),
(286,529,cs),
(112,529,o),
(22,362,o),
(22,207,cs),
(22,154,o),
(35,109,o),
(59,73,c),
(3,12,l)
);
},
{
closed = 1;
nodes = (
(183,38,o),
(147,56,o),
(122,85,c),
(410,400,l),
(424,372,o),
(430,338,o),
(430,303,cs),
(430,174,o),
(364,38,o),
(232,38,cs)
);
},
{
closed = 1;
nodes = (
(84,339,o),
(148,478,o),
(284,478,cs),
(330,478,o),
(365,461,o),
(388,434,c),
(101,119,l),
(89,145,o),
(84,176,o),
(84,210,cs)
);
}
);
width = 514;
}
);
note = oslash;
unicode = 248;
},
{
glyphname = questiondown;
kernRight = questiondown;
layers = (
{
hints = (
{
horizontal = 1;
place = (-140, 55);
place = (-140, 55);
type = Stem;
},
{
horizontal = 1;
place = (501, 87);
place = (501, 87);
type = Stem;
},
{
place = (-7, 66);
place = (-7, 66);
type = Stem;
}
);
layerId = m01;
shapes = (
{
closed = 1;
nodes = (
(261,501,l),
(335,501,l),
(351,588,l),
(277,588,l)
);
},
{
closed = 1;
nodes = (
(253,415,l),
(234,310,o),
(204,282,o),
(129,229,cs),
(49,173,o),
(-7,121,o),
(-7,24,cs),
(-7,-87,o),
(84,-140,o),
(180,-140,cs),
(319,-140,o),
(407,-44,o),
(426,84,c),
(362,84,l),
(342,-25,o),
(277,-85,o),
(185,-85,cs),
(113,-85,o),
(59,-47,o),
(59,25,cs),
(59,112,o),
(116,150,o),
(173,191,cs),
(257,251,o),
(290,291,o),
(313,415,c)
);
}
);
width = 486;
}
);
note = questiondown;
unicode = 191;
},
{
glyphname = exclamdown;
kernRight = exclamdown;
layers = (
{
hints = (
{
horizontal = 1;
place = (501, 87);
place = (501, 87);
type = Stem;
},
{
place = (-4, 208);
place = (-4, 208);
type = Stem;
}
);
layerId = m01;
shapes = (
{
closed = 1;
nodes = (
(41,108,l),
(-4,-127,l),
(63,-127,l),
(107,102,l),
(154,415,l),
(116,415,l)
);
},
{
closed = 1;
nodes = (
(114,501,l),
(188,501,l),
(204,588,l),
(130,588,l)
);
}
);
width = 209;
}
);
note = exclamdown;
unicode = 161;
},
{
glyphname = logicalnot;
layers = (
{
hints = (
{
horizontal = 1;
place = (330, 52);
place = (330, 52);
type = Stem;
},
{
place = (71, 397);
place = (71, 397);
type = Stem;
}
);
layerId = m01;
shapes = (
{
closed = 1;
nodes = (
(71,330,l),
(402,330,l),
(365,139,l),
(420,139,l),
(468,382,l),
(82,382,l)
);
}
);
width = 522;
}
);
note = logicalnot;
unicode = 172;
},
{
glyphname = radical;
layers = (
{
hints = (
{
horizontal = 1;
place = (-100, 68);
place = (-100, 68);
type = Stem;
},
{
horizontal = 1;
place = (252, 56);
place = (252, 56);
type = Stem;
},
{
horizontal = 1;
place = (715, -20);
target = down;
type = TopGhost;
},
{
place = (32, 541);
place = (32, 541);
type = Stem;
}
);
layerId = m01;
shapes = (
{
closed = 1;
nodes = (
(32,252,l),
(107,252,l),
(247,-100,l),
(317,-100,l),
(573,715,l),
(509,715,l),
(318,98,ls),
(302,44,o),
(282,-32,o),
(282,-32,c),
(280,-32,l),
(280,-32,o),
(256,43,o),
(236,95,cs),
(153,308,l),
(32,308,l)
);
}
);
width = 547;
}
);
note = radical;
unicode = 8730;
},
{
glyphname = florin;
layers = (
{
hints = (
{
horizontal = 1;
place = (-150, 54);
place = (-150, 54);
type = Stem;
},
{
horizontal = 1;
place = (350, 50);
place = (350, 50);
type = Stem;
},
{
horizontal = 1;
place = (636, 53);
place = (636, 53);
type = Stem;
},
{
place = (-46, 414);
place = (-46, 414);
type = Stem;
}
);
layerId = m01;
shapes = (
{
closed = 1;
nodes = (
(313,400,l),
(211,400,l),
(249,569,ls),
(260,613,o),
(275,636,o),
(319,636,cs),
(324,636,o),
(353,635,o),
(358,635,c),
(368,688,l),
(361,689,o),
(323,689,o),
(317,689,cs),
(244,690,o),
(208,652,o),
(190,576,cs),
(149,400,l),
(63,400,l),
(54,350,l),
(138,350,l),
(49,-38,ls),
(40,-80,o),
(19,-97,o),
(-18,-96,cs),
(-36,-96,l),
(-46,-148,l),
(-40,-149,o),
(-16,-150,o),
(-11,-150,cs),
(55,-150,o),
(92,-119,o),
(110,-42,cs),
(199,350,l),
(304,350,l)
);
}
);
width = 330;
}
);
note = florin;
unicode = 402;
},
{
glyphname = approxequal;
layers = (
{
hints = (
{
horizontal = 1;
place = (183, 54);
place = (183, 54);
type = Stem;
},
{
horizontal = 1;
place = (334, 54);
place = (334, 54);
type = Stem;
},
{
place = (35, 463);
place = (35, 463);
type = Stem;
},
{
horizontal = 1;
place = (231, 54);
place = (231, 54);
type = Stem;
},
{
horizontal = 1;
place = (382, 54);
place = (382, 54);
type = Stem;
}
);
layerId = m01;
shapes = (
{
closed = 1;
nodes = (
(426,183,o),
(465,222,o),
(476,291,c),
(423,291,l),
(417,256,o),
(396,237,o),
(361,237,cs),
(332,237,o),
(297,249,o),
(260,260,cs),
(222,273,o),
(182,285,o),
(147,285,cs),
(87,285,o),
(46,248,o),
(35,178,c),
(88,178,l),
(93,211,o),
(113,231,o),
(144,231,cs),
(170,231,o),
(205,219,o),
(244,207,cs),
(282,196,o),
(324,183,o),
(361,183,cs)
);
},
{
closed = 1;
nodes = (
(449,334,o),
(487,373,o),
(498,441,c),
(446,441,l),
(440,407,o),
(419,388,o),
(384,388,cs),
(355,388,o),
(319,400,o),
(283,411,cs),
(245,423,o),
(205,436,o),
(170,436,cs),
(110,436,o),
(69,399,o),
(57,328,c),
(110,328,l),
(116,362,o),
(136,382,o),
(167,382,cs),
(193,382,o),
(229,370,o),
(268,358,cs),
(306,346,o),
(347,334,o),
(383,334,cs)
);
}
);
width = 522;
}
);
note = approxequal;
unicode = 8776;
},
{
glyphname = Delta;
layers = (
{
hints = (
{
horizontal = 1;
place = (0, 56);
place = (0, 56);
type = Stem;
},
{
horizontal = 1;
place = (715, -20);
target = down;
type = TopGhost;
},
{
place = (-29, 592);
place = (-29, 592);
type = Stem;
},
{
horizontal = 1;
place = (655, 60);
place = (655, 60);
type = Stem;
}
);
layerId = m01;
shapes = (
{
closed = 1;
nodes = (
(-19,57,l),
(-29,0,l),
(553,0,l),
(563,56,l),
(424,715,l),
(349,715,l)
);
},
{
closed = 1;
nodes = (
(48,56,l),
(322,550,ls),
(347,595,o),
(375,655,o),
(375,655,c),
(377,655,l),
(377,655,o),
(387,592,o),
(395,550,cs),
(496,56,l)
);
}
);
width = 624;
}
);
note = Delta;
unicode = 8710;
},
{
glyphname = guillemotleft;
kernLeft = guillemotleft;
kernRight = guillemotleft;
layers = (
{
hints = (
{
horizontal = 1;
place = (121, 301);
place = (121, 301);
type = Stem;
},
{
place = (51, 330);
place = (51, 330);
type = Stem;
}
);
layerId = m01;
shapes = (
{
closed = 1;
nodes = (
(168,186,l),
(92,271,l),
(92,273,l),
(200,349,l),
(214,422,l),
(66,313,l),
(51,238,l),
(156,121,l)
);
},
{
closed = 1;
nodes = (
(335,186,l),
(259,271,l),
(259,273,l),
(367,349,l),
(381,422,l),
(233,313,l),
(218,238,l),
(323,121,l)
);
}
);
width = 404;
}
);
note = guillemotleft;
unicode = 171;
},
{
glyphname = guillemotright;
kernLeft = guillemotright;
kernRight = guillemotright;
layers = (
{
hints = (
{
horizontal = 1;
place = (121, 301);
place = (121, 301);
type = Stem;
},
{
place = (28, 330);
place = (28, 330);
type = Stem;
}
);
layerId = m01;
shapes = (
{
closed = 1;
nodes = (
(74,357,l),
(150,272,l),
(150,270,l),
(42,194,l),
(28,121,l),
(176,230,l),
(191,305,l),
(86,422,l)
);
},
{
closed = 1;
nodes = (
(241,357,l),
(317,272,l),
(317,270,l),
(210,194,l),
(195,121,l),
(344,230,l),
(358,305,l),
(253,422,l)
);
}
);
width = 404;
}
);
note = guillemotright;
unicode = 187;
},
{
glyphname = ellipsis;
kernLeft = comma;
kernRight = comma;
layers = (
{
hints = (
{
horizontal = 1;
place = (0, 87);
place = (0, 87);
type = Stem;
},
{
place = (-9, 476);
place = (-9, 476);
type = Stem;
}
);
layerId = m01;
shapes = (
{
closed = 1;
nodes = (
(-9,0,l),
(66,0,l),
(82,87,l),
(8,87,l)
);
},
{
closed = 1;
nodes = (
(376,0,l),
(451,0,l),
(467,87,l),
(393,87,l)
);
},
{
closed = 1;
nodes = (
(184,0,l),
(258,0,l),
(275,87,l),
(201,87,l)
);
}
);
width = 543;
}
);
note = ellipsis;
unicode = 8230;
},
{
glyphname = Agrave;
kernLeft = A;
kernRight = A;
layers = (
{
hints = (
{
horizontal = 1;
place = (0, 21);
target = up;
type = BottomGhost;
},
{
horizontal = 1;
place = (225, 55);
place = (225, 55);
type = Stem;
},
{
horizontal = 1;
place = (715, -20);
target = down;
type = TopGhost;
},
{
horizontal = 1;
place = (753, 114);
place = (753, 114);
type = Stem;
},
{
place = (-43, 601);
place = (-43, 601);
type = Stem;
},
{
horizontal = 1;
place = (651, 64);
place = (651, 64);
type = Stem;
}
);
layerId = m01;
shapes = (
{
closed = 1;
nodes = (
(489,0,l),
(558,0,l),
(417,715,l),
(342,715,l),
(-43,0,l),
(25,0,l),
(144,225,l),
(447,225,l)
);
},
{
closed = 1;
nodes = (
(316,546,ls),
(340,592,o),
(368,651,o),
(368,651,c),
(370,651,l),
(370,651,o),
(379,587,o),
(387,547,cs),
(437,280,l),
(174,280,l)
);
},
{
closed = 1;
nodes = (
(413,753,l),
(368,867,l),
(291,867,l),
(360,753,l)
);
}
);
width = 616;
}
);
note = Agrave;
unicode = 192;
},
{
glyphname = Atilde;
kernLeft = A;
kernRight = A;
layers = (
{
hints = (
{
horizontal = 1;
place = (0, 21);
target = up;
type = BottomGhost;
},
{
horizontal = 1;
place = (225, 55);
place = (225, 55);
type = Stem;
},
{
horizontal = 1;
place = (715, -20);
target = down;
type = TopGhost;
},
{
horizontal = 1;
place = (760, 51);
place = (760, 51);
type = Stem;
},
{
place = (-43, 601);
place = (-43, 601);
type = Stem;
},
{
horizontal = 1;
place = (651, 64);
place = (651, 64);
type = Stem;
},
{
horizontal = 1;
place = (799, 50);
place = (799, 50);
type = Stem;
}
);
layerId = m01;
shapes = (
{
closed = 1;
nodes = (
(489,0,l),
(558,0,l),
(417,715,l),
(342,715,l),
(-43,0,l),
(25,0,l),
(144,225,l),
(447,225,l)
);
},
{
closed = 1;
nodes = (
(316,546,ls),
(340,592,o),
(368,651,o),
(368,651,c),
(370,651,l),
(370,651,o),
(379,587,o),
(387,547,cs),
(437,280,l),
(174,280,l)
);
},
{
closed = 1;
nodes = (
(487,760,o),
(518,794,o),
(528,847,c),
(480,847,l),
(476,825,o),
(464,811,o),
(446,811,cs),
(415,811,o),
(376,849,o),
(329,849,cs),
(290,849,o),
(259,819,o),
(247,762,c),
(296,762,l),
(300,785,o),
(313,799,o),
(327,799,cs),
(355,799,o),
(402,760,o),
(445,760,cs)
);
}
);
width = 616;
}
);
note = Atilde;
unicode = 195;
},
{
glyphname = Otilde;
kernLeft = C;
kernRight = O;
layers = (
{
hints = (
{
horizontal = 1;
place = (-14, 59);
place = (-14, 59);
type = Stem;
},
{
horizontal = 1;
place = (671, 59);
place = (671, 59);
type = Stem;
},
{
horizontal = 1;
place = (760, 51);
place = (760, 51);
type = Stem;
},
{
place = (47, 69);
place = (47, 69);
type = Stem;
},
{
place = (638, 69);
place = (638, 69);
type = Stem;
},
{
horizontal = 1;
place = (799, 50);
place = (799, 50);
type = Stem;
}
);
layerId = m01;
shapes = (
{
closed = 1;
nodes = (
(526,760,o),
(557,794,o),
(567,847,c),
(519,847,l),
(515,825,o),
(503,811,o),
(485,811,cs),
(454,811,o),
(415,849,o),
(368,849,cs),
(329,849,o),
(298,819,o),
(286,762,c),
(335,762,l),
(339,785,o),
(352,799,o),
(366,799,cs),
(394,799,o),
(441,760,o),
(484,760,cs)
);
},
{
closed = 1;
nodes = (
(580,-14,o),
(707,193,o),
(707,412,cs),
(707,611,o),
(578,730,o),
(408,730,cs),
(182,730,o),
(47,520,o),
(47,302,cs),
(47,102,o),
(177,-14,o),
(346,-14,cs)
);
},
{
closed = 1;
nodes = (
(202,45,o),
(116,149,o),
(116,302,cs),
(116,494,o),
(216,671,o),
(405,671,cs),
(551,671,o),
(638,563,o),
(638,412,cs),
(638,221,o),
(539,45,o),
(348,45,cs)
);
}
);
width = 717;
}
);
note = Otilde;
unicode = 213;
},
{
glyphname = OE;
kernLeft = C;
kernRight = E;
layers = (
{
hints = (
{
horizontal = 1;
place = (0, 61);
place = (0, 61);
type = Stem;
},
{
horizontal = 1;
place = (342, 57);
place = (342, 57);
type = Stem;
},
{
horizontal = 1;
place = (657, 58);
place = (657, 58);
type = Stem;
},
{
place = (53, 69);
place = (53, 69);
type = Stem;
},
{
place = (617, 23);
place = (617, 23);
type = Stem;
},
{
horizontal = 1;
place = (-14, 59);
place = (-14, 59);
type = Stem;
},
{
horizontal = 1;
place = (671, 59);
place = (671, 59);
type = Stem;
}
);
layerId = m01;
shapes = (
{
closed = 1;
nodes = (
(522,0,l),
(992,0,l),
(1004,61,l),
(600,61,l),
(654,342,l),
(1009,342,l),
(1020,399,l),
(665,399,l),
(715,657,l),
(1096,657,l),
(1107,715,l),
(660,715,l),
(640,608,l),
(607,681,o),
(537,730,o),
(427,730,cs),
(198,730,o),
(53,512,o),
(53,295,cs),
(53,99,o),
(163,-14,o),
(321,-14,cs),
(413,-14,o),
(489,26,o),
(539,84,c)
);
},
{
closed = 1;
nodes = (
(186,45,o),
(122,148,o),
(122,295,cs),
(122,484,o),
(233,671,o),
(423,671,cs),
(551,671,o),
(637,586,o),
(613,469,cs),
(566,227,ls),
(543,109,o),
(429,45,o),
(329,45,cs)
);
}
);
width = 1072;
}
);
note = OE;
unicode = 338;
},
{
glyphname = oe;
kernLeft = c;
kernRight = e;
layers = (
{
hints = (
{
horizontal = 1;
place = (-13, 51);
place = (-13, 51);
type = Stem;
},
{
horizontal = 1;
place = (247, 49);
place = (247, 49);
type = Stem;
},
{
horizontal = 1;
place = (478, 51);
place = (478, 51);
type = Stem;
},
{
place = (22, 62);
place = (22, 62);
type = Stem;
},
{
place = (416, 52);
place = (416, 52);
type = Stem;
},
{
place = (788, 60);
place = (788, 60);
type = Stem;
}
);
layerId = m01;
shapes = (
{
closed = 1;
nodes = (
(318,-13,o),
(386,43,o),
(426,121,c),
(449,35,o),
(513,-13,o),
(607,-13,cs),
(708,-13,o),
(788,43,o),
(824,156,c),
(764,156,l),
(740,84,o),
(686,39,o),
(611,39,cs),
(511,39,o),
(468,110,o),
(468,205,cs),
(468,219,o),
(468,233,o),
(470,247,c),
(841,247,l),
(856,339,o),
(848,430,o),
(792,484,cs),
(761,514,o),
(722,529,o),
(667,529,cs),
(569,529,o),
(499,470,o),
(458,389,c),
(434,478,o),
(368,529,o),
(278,529,cs),
(111,529,o),
(22,362,o),
(22,203,cs),
(22,69,o),
(105,-13,o),
(222,-13,cs)
);
},
{
closed = 1;
nodes = (
(126,38,o),
(84,114,o),
(84,208,cs),
(84,340,o),
(146,478,o),
(277,478,cs),
(376,478,o),
(416,395,o),
(416,306,cs),
(416,173,o),
(351,38,o),
(224,38,cs)
);
},
{
closed = 1;
nodes = (
(761,479,o),
(799,402,o),
(785,296,c),
(478,296,l),
(500,397,o),
(562,479,o),
(664,479,cs)
);
}
);
width = 865;
}
);
note = oe;
unicode = 339;
},
{
glyphname = endash;
kernLeft = hyphen;
kernRight = hyphen;
layers = (
{
hints = (
{
horizontal = 1;
place = (229, 52);
place = (229, 52);
type = Stem;
},
{
place = (35, 419);
place = (35, 419);
type = Stem;
}
);
layerId = m01;
shapes = (
{
closed = 1;
nodes = (
(35,229,l),
(443,229,l),
(454,281,l),
(45,281,l)
);
}
);
width = 491;
}
);
note = endash;
unicode = 8211;
},
{
glyphname = emdash;
kernLeft = hyphen;
kernRight = hyphen;
layers = (
{
hints = (
{
horizontal = 1;
place = (229, 52);
place = (229, 52);
type = Stem;
},
{
place = (35, 683);
place = (35, 683);
type = Stem;
}
);
layerId = m01;
shapes = (
{
closed = 1;
nodes = (
(35,229,l),
(707,229,l),
(718,281,l),
(45,281,l)
);
}
);
width = 755;
}
);
note = emdash;
unicode = 8212;
},
{
glyphname = quotedblleft;
kernLeft = quotedblleft;
kernRight = quotedblleft;
layers = (
{
hints = (
{
horizontal = 1;
place = (530, 86);
place = (530, 86);
type = Stem;
},
{
horizontal = 1;
place = (717, -20);
target = down;
type = TopGhost;
},
{
place = (94, 232);
place = (94, 232);
type = Stem;
}
);
layerId = m01;
shapes = (
{
closed = 1;
nodes = (
(199,717,l),
(153,711,o),
(123,685,o),
(112,628,cs),
(94,530,l),
(162,530,l),
(178,616,l),
(148,616,l),
(149,626,ls),
(156,666,o),
(172,677,o),
(192,684,c)
);
},
{
closed = 1;
nodes = (
(326,717,l),
(280,711,o),
(250,685,o),
(239,628,cs),
(221,530,l),
(289,530,l),
(305,616,l),
(274,616,l),
(276,626,ls),
(283,666,o),
(299,677,o),
(319,684,c)
);
}
);
width = 277;
}
);
note = quotedblleft;
unicode = 8220;
},
{
glyphname = quotedblright;
kernLeft = quotedblright;
kernRight = quotedblright;
layers = (
{
hints = (
{
horizontal = 1;
place = (629, 86);
place = (629, 86);
type = Stem;
},
{
place = (92, 232);
place = (92, 232);
type = Stem;
}
);
layerId = m01;
shapes = (
{
closed = 1;
nodes = (
(92,528,l),
(138,534,o),
(168,560,o),
(179,618,cs),
(197,715,l),
(129,715,l),
(113,629,l),
(144,629,l),
(142,620,ls),
(135,580,o),
(119,569,o),
(99,561,c)
);
},
{
closed = 1;
nodes = (
(219,528,l),
(265,534,o),
(295,560,o),
(306,618,cs),
(324,715,l),
(256,715,l),
(240,629,l),
(270,629,l),
(269,620,ls),
(262,580,o),
(246,569,o),
(226,561,c)
);
}
);
width = 277;
}
);
note = quotedblright;
unicode = 8221;
},
{
glyphname = quoteleft;
kernLeft = quotedblleft;
kernRight = quotedblleft;
layers = (
{
hints = (
{
horizontal = 1;
place = (530, 86);
place = (530, 86);
type = Stem;
},
{
horizontal = 1;
place = (717, -20);
target = down;
type = TopGhost;
},
{
place = (94, 105);
place = (94, 105);
type = Stem;
}
);
layerId = m01;
shapes = (
{
closed = 1;
nodes = (
(199,717,l),
(153,711,o),
(123,685,o),
(112,628,cs),
(94,530,l),
(162,530,l),
(178,616,l),
(148,616,l),
(149,626,ls),
(156,666,o),
(172,677,o),
(192,684,c)
);
}
);
width = 151;
}
);
note = quoteleft;
unicode = 8216;
},
{
glyphname = quoteright;
kernLeft = quotedblright;
kernRight = quotedblright;
layers = (
{
hints = (
{
horizontal = 1;
place = (629, 86);
place = (629, 86);
type = Stem;
},
{
place = (92, 105);
place = (92, 105);
type = Stem;
}
);
layerId = m01;
shapes = (
{
closed = 1;
nodes = (
(92,528,l),
(138,534,o),
(168,560,o),
(179,618,cs),
(197,715,l),
(129,715,l),
(113,629,l),
(144,629,l),
(142,620,ls),
(135,580,o),
(119,569,o),
(99,561,c)
);
}
);
width = 151;
}
);
note = quoteright;
unicode = 8217;
},
{
glyphname = divide;
kernLeft = minus;
kernRight = minus;
layers = (
{
hints = (
{
place = (117, 84);
place = (117, 84);
type = Stem;
},
{
place = (300, 53);
place = (300, 53);
type = Stem;
},
{
place = (452, 84);
place = (452, 84);
type = Stem;
},
{
place = (61, 425);
place = (61, 425);
type = Stem;
}
);
layerId = m01;
shapes = (
{
closed = 1;
nodes = (
(61,300,l),
(475,300,l),
(486,353,l),
(72,353,l)
);
},
{
closed = 1;
nodes = (
(195,117,l),
(269,117,l),
(286,201,l),
(212,201,l)
);
},
{
closed = 1;
nodes = (
(261,452,l),
(335,452,l),
(352,536,l),
(277,536,l)
);
}
);
width = 522;
}
);
note = divide;
unicode = 247;
},
{
glyphname = lozenge;
layers = (
{
hints = (
{
horizontal = 1;
place = (0, 63);
place = (0, 63);
type = Stem;
},
{
horizontal = 1;
place = (652, 63);
place = (652, 63);
type = Stem;
},
{
place = (48, 467);
place = (48, 467);
type = Stem;
}
);
layerId = m01;
shapes = (
{
closed = 1;
nodes = (
(283,63,l),
(281,63,l),
(118,359,l),
(279,652,l),
(281,652,l),
(444,355,l)
);
},
{
closed = 1;
nodes = (
(315,0,l),
(515,356,l),
(314,715,l),
(248,715,l),
(48,357,l),
(249,0,l)
);
}
);
width = 530;
}
);
note = lozenge;
unicode = 9674;
},
{
glyphname = ydieresis;
kernLeft = yacute;
kernRight = yacute;
layers = (
{
hints = (
{
horizontal = 1;
place = (-171, 55);
place = (-171, 55);
type = Stem;
},
{
horizontal = 1;
place = (517, -20);
target = down;
type = TopGhost;
},
{
horizontal = 1;
place = (627, 86);
place = (627, 86);
type = Stem;
},
{
place = (-12, 501);
place = (-12, 501);
type = Stem;
},
{
horizontal = 1;
place = (-163, 21);
target = up;
type = BottomGhost;
}
);
layerId = m01;
shapes = (
{
closed = 1;
nodes = (
(489,517,l),
(426,517,l),
(259,183,ls),
(234,132,o),
(204,65,o),
(204,65,c),
(202,65,l),
(202,65,o),
(193,134,o),
(182,185,cs),
(113,517,l),
(51,517,l),
(163,2,l),
(134,-53,ls),
(112,-97,o),
(83,-116,o),
(46,-116,cs),
(20,-116,o),
(10,-111,o),
(1,-108,c),
(-1,-108,l),
(-12,-163,l),
(1,-168,o),
(18,-171,o),
(43,-171,cs),
(103,-171,o),
(149,-145,o),
(187,-71,cs)
);
},
{
closed = 1;
nodes = (
(174,627,l),
(235,627,l),
(251,713,l),
(191,713,l)
);
},
{
closed = 1;
nodes = (
(328,627,l),
(388,627,l),
(405,713,l),
(345,713,l)
);
}
);
width = 452;
}
);
note = ydieresis;
unicode = 255;
},
{
glyphname = Ydieresis;
kernLeft = Yacute;
kernRight = Yacute;
layers = (
{
hints = (
{
horizontal = 1;
place = (0, 21);
target = up;
type = BottomGhost;
},
{
horizontal = 1;
place = (715, -20);
target = down;
type = TopGhost;
},
{
horizontal = 1;
place = (757, 86);
place = (757, 86);
type = Stem;
},
{
place = (82, 561);
place = (82, 561);
type = Stem;
}
);
layerId = m01;
shapes = (
{
closed = 1;
nodes = (
(152,715,l),
(82,715,l),
(258,312,l),
(198,0,l),
(264,0,l),
(322,306,l),
(643,715,l),
(570,715,l),
(302,366,l),
(300,366,l)
);
},
{
closed = 1;
nodes = (
(258,757,l),
(319,757,l),
(336,843,l),
(276,843,l)
);
},
{
closed = 1;
nodes = (
(412,757,l),
(472,757,l),
(490,843,l),
(429,843,l)
);
}
);
width = 560;
}
);
note = Ydieresis;
unicode = 376;
},
{
glyphname = fraction;
layers = (
{
hints = (
{
horizontal = 1;
place = (0, 21);
target = up;
type = BottomGhost;
},
{
horizontal = 1;
place = (715, -20);
target = down;
type = TopGhost;
},
{
place = (-218, 655);
place = (-218, 655);
type = Stem;
}
);
layerId = m01;
shapes = (
{
closed = 1;
nodes = (
(-218,0,l),
(-158,0,l),
(437,715,l),
(377,715,l)
);
}
);
width = 180;
}
);
note = fraction;
unicode = 8260;
},
{
glyphname = Euro;
layers = (
{
hints = (
{
horizontal = 1;
place = (-14, 56);
place = (-14, 56);
type = Stem;
},
{
horizontal = 1;
place = (257, 46);
place = (257, 46);
type = Stem;
},
{
horizontal = 1;
place = (380, 46);
place = (380, 46);
type = Stem;
},
{
horizontal = 1;
place = (646, 54);
place = (646, 54);
type = Stem;
},
{
place = (88, 65);
place = (88, 65);
type = Stem;
},
{
place = (533, 63);
place = (533, 63);
type = Stem;
}
);
layerId = m01;
shapes = (
{
closed = 1;
nodes = (
(382,380,l),
(391,426,l),
(178,426,l),
(211,543,o),
(280,646,o),
(399,646,cs),
(495,646,o),
(529,581,o),
(533,498,c),
(596,498,l),
(593,624,o),
(523,700,o),
(402,700,cs),
(249,700,o),
(156,570,o),
(114,426,c),
(54,426,l),
(46,380,l),
(102,380,l),
(97,354,o),
(93,328,o),
(90,303,c),
(30,303,l),
(22,257,l),
(88,257,l),
(88,247,ls),
(88,100,o),
(160,-14,o),
(306,-14,cs),
(433,-14,o),
(531,74,o),
(568,240,c),
(508,240,l),
(475,113,o),
(408,41,o),
(309,42,cs),
(185,42,o),
(153,146,o),
(153,247,cs),
(153,257,l),
(359,257,l),
(367,303,l),
(155,303,l),
(157,328,o),
(161,354,o),
(166,380,c)
);
}
);
width = 594;
}
);
note = Euro;
unicode = 8364;
},
{
glyphname = guilsinglleft;
kernLeft = guillemotleft;
kernRight = guillemotleft;
layers = (
{
hints = (
{
horizontal = 1;
place = (121, 301);
place = (121, 301);
type = Stem;
},
{
place = (51, 173);
place = (51, 173);
type = Stem;
}
);
layerId = m01;
shapes = (
{
closed = 1;
nodes = (
(177,186,l),
(91,270,l),
(91,272,l),
(209,350,l),
(224,422,l),
(65,312,l),
(51,237,l),
(165,121,l)
);
}
);
width = 247;
}
);
note = guilsinglleft;
unicode = 8249;
},
{
glyphname = guilsinglright;
kernLeft = guillemotright;
kernRight = guillemotright;
layers = (
{
hints = (
{
horizontal = 1;
place = (121, 301);
place = (121, 301);
type = Stem;
},
{
place = (28, 173);
place = (28, 173);
type = Stem;
}
);
layerId = m01;
shapes = (
{
closed = 1;
nodes = (
(74,357,l),
(160,273,l),
(160,271,l),
(42,193,l),
(28,121,l),
(186,231,l),
(201,306,l),
(86,422,l)
);
}
);
width = 247;
}
);
note = guilsinglright;
unicode = 8250;
},
{
glyphname = fi;
kernLeft = f;
layers = (
{
hints = (
{
horizontal = 1;
place = (0, 21);
target = up;
type = BottomGhost;
},
{
horizontal = 1;
place = (467, 50);
place = (467, 50);
type = Stem;
},
{
horizontal = 1;
place = (667, 53);
place = (667, 53);
type = Stem;
},
{
place = (40, 419);
place = (40, 419);
type = Stem;
},
{
horizontal = 1;
place = (628, 87);
place = (628, 87);
type = Stem;
}
);
layerId = m01;
shapes = (
{
closed = 1;
nodes = (
(330,719,l),
(326,719,o),
(293,720,o),
(288,720,cs),
(214,720,o),
(173,689,o),
(159,616,cs),
(140,517,l),
(66,517,l),
(56,467,l),
(130,467,l),
(40,0,l),
(100,0,l),
(190,467,l),
(284,467,l),
(294,517,l),
(200,517,l),
(218,610,ls),
(225,646,o),
(239,667,o),
(287,667,cs),
(320,667,l)
);
},
{
closed = 1;
nodes = (
(421,517,l),
(360,517,l),
(260,0,l),
(321,0,l)
);
},
{
closed = 1;
nodes = (
(459,715,l),
(398,715,l),
(381,628,l),
(442,628,l)
);
}
);
width = 424;
}
);
note = fi;
unicode = 64257;
},
{
glyphname = fl;
kernLeft = f;
layers = (
{
hints = (
{
horizontal = 1;
place = (0, 21);
target = up;
type = BottomGhost;
},
{
horizontal = 1;
place = (467, 50);
place = (467, 50);
type = Stem;
},
{
horizontal = 1;
place = (667, 53);
place = (667, 53);
type = Stem;
},
{
place = (40, 420);
place = (40, 420);
type = Stem;
},
{
horizontal = 1;
place = (715, -20);
target = down;
type = TopGhost;
}
);
layerId = m01;
shapes = (
{
closed = 1;
nodes = (
(330,719,l),
(326,719,o),
(293,720,o),
(288,720,cs),
(214,720,o),
(173,689,o),
(159,616,cs),
(140,517,l),
(66,517,l),
(56,467,l),
(130,467,l),
(40,0,l),
(100,0,l),
(190,467,l),
(284,467,l),
(294,517,l),
(200,517,l),
(218,610,ls),
(225,646,o),
(239,667,o),
(287,667,cs),
(320,667,l)
);
},
{
closed = 1;
nodes = (
(460,715,l),
(399,715,l),
(261,0,l),
(322,0,l)
);
}
);
width = 425;
}
);
note = fl;
unicode = 64258;
},
{
glyphname = daggerdbl;
layers = (
{
hints = (
{
horizontal = 1;
place = (91, 54);
place = (91, 54);
type = Stem;
},
{
horizontal = 1;
place = (466, 54);
place = (466, 54);
type = Stem;
},
{
horizontal = 1;
place = (715, -20);
target = down;
type = TopGhost;
},
{
place = (3, 519);
place = (3, 519);
type = Stem;
}
);
layerId = m01;
shapes = (
{
closed = 1;
nodes = (
(373,715,l),
(311,715,l),
(273,520,l),
(86,520,l),
(76,466,l),
(262,466,l),
(201,145,l),
(14,145,l),
(3,91,l),
(189,91,l),
(152,-104,l),
(214,-104,l),
(252,91,l),
(438,91,l),
(450,145,l),
(263,145,l),
(325,466,l),
(511,466,l),
(522,520,l),
(335,520,l)
);
}
);
width = 508;
}
);
note = daggerdbl;
unicode = 8225;
},
{
glyphname = periodcentered;
layers = (
{
hints = (
{
horizontal = 1;
place = (268, 87);
place = (268, 87);
type = Stem;
},
{
place = (44, 92);
place = (44, 92);
type = Stem;
}
);
layerId = m01;
shapes = (
{
closed = 1;
nodes = (
(136,355,l),
(61,355,l),
(44,268,l),
(118,268,l)
);
}
);
width = 157;
}
);
note = periodcentered;
unicode = 183;
},
{
glyphname = quotesinglbase;
kernRight = quotesinglbase;
layers = (
{
hints = (
{
horizontal = 1;
place = (0, 86);
place = (0, 86);
type = Stem;
},
{
place = (-30, 105);
place = (-30, 105);
type = Stem;
}
);
layerId = m01;
shapes = (
{
closed = 1;
nodes = (
(-30,-101,l),
(16,-95,o),
(46,-69,o),
(57,-12,cs),
(75,86,l),
(7,86,l),
(-9,0,l),
(22,0,l),
(20,-10,ls),
(13,-50,o),
(-3,-61,o),
(-23,-68,c)
);
}
);
width = 151;
}
);
note = quotesinglbase;
unicode = 8218;
},
{
glyphname = quotedblbase;
kernRight = quotesinglbase;
layers = (
{
hints = (
{
horizontal = 1;
place = (0, 86);
place = (0, 86);
type = Stem;
},
{
place = (-30, 232);
place = (-30, 232);
type = Stem;
}
);
layerId = m01;
shapes = (
{
closed = 1;
nodes = (
(-30,-101,l),
(16,-95,o),
(46,-69,o),
(57,-12,cs),
(75,86,l),
(7,86,l),
(-9,0,l),
(22,0,l),
(20,-10,ls),
(13,-50,o),
(-3,-61,o),
(-23,-68,c)
);
},
{
closed = 1;
nodes = (
(97,-101,l),
(143,-95,o),
(173,-69,o),
(184,-12,cs),
(202,86,l),
(134,86,l),
(118,0,l),
(148,0,l),
(147,-10,ls),
(140,-50,o),
(124,-61,o),
(104,-68,c)
);
}
);
width = 277;
}
);
note = quotedblbase;
unicode = 8222;
},
{
glyphname = perthousand;
kernLeft = percent;
layers = (
{
hints = (
{
horizontal = 1;
place = (-14, 47);
place = (-14, 47);
type = Stem;
},
{
horizontal = 1;
place = (330, 46);
place = (330, 46);
type = Stem;
},
{
horizontal = 1;
place = (653, 47);
place = (653, 47);
type = Stem;
},
{
place = (75, 57);
place = (75, 57);
type = Stem;
},
{
place = (324, 57);
place = (324, 57);
type = Stem;
},
{
place = (416, 57);
place = (416, 57);
type = Stem;
},
{
place = (665, 57);
place = (665, 57);
type = Stem;
},
{
place = (766, 58);
place = (766, 58);
type = Stem;
},
{
place = (1015, 58);
place = (1015, 58);
type = Stem;
},
{
horizontal = 1;
place = (0, 21);
target = up;
type = BottomGhost;
},
{
horizontal = 1;
place = (685, -20);
target = down;
type = TopGhost;
},
{
horizontal = 1;
place = (310, 46);
place = (310, 46);
type = Stem;
}
);
layerId = m01;
shapes = (
{
closed = 1;
nodes = (
(1073,318,o),
(1023,376,o),
(943,376,cs),
(829,376,o),
(766,256,o),
(766,139,cs),
(766,45,o),
(819,-14,o),
(901,-14,cs),
(1013,-14,o),
(1073,106,o),
(1073,224,cs)
);
},
{
closed = 1;
nodes = (
(995,330,o),
(1015,283,o),
(1015,223,cs),
(1015,138,o),
(982,32,o),
(902,33,cs),
(847,33,o),
(824,79,o),
(824,139,cs),
(824,226,o),
(860,330,o),
(940,330,cs)
);
},
{
closed = 1;
nodes = (
(722,318,o),
(672,376,o),
(592,376,cs),
(479,376,o),
(416,256,o),
(416,139,cs),
(416,45,o),
(468,-14,o),
(550,-14,cs),
(662,-14,o),
(722,106,o),
(722,224,cs)
);
},
{
closed = 1;
nodes = (
(665,138,o),
(632,32,o),
(551,33,cs),
(497,33,o),
(473,79,o),
(473,139,cs),
(473,226,o),
(510,330,o),
(589,330,cs),
(644,330,o),
(665,283,o),
(665,223,cs)
);
},
{
closed = 1;
nodes = (
(636,685,l),
(108,0,l),
(163,0,l),
(691,685,l)
);
},
{
closed = 1;
nodes = (
(137,700,o),
(75,579,o),
(75,463,cs),
(75,369,o),
(127,310,o),
(209,310,cs),
(321,310,o),
(381,430,o),
(381,547,cs),
(381,641,o),
(331,700,o),
(251,700,cs)
);
},
{
closed = 1;
nodes = (
(324,461,o),
(291,356,o),
(210,356,cs),
(155,357,o),
(132,403,o),
(132,462,cs),
(132,549,o),
(168,653,o),
(248,653,cs),
(303,653,o),
(324,607,o),
(324,547,cs)
);
}
);
width = 1117;
}
);
note = perthousand;
unicode = 8240;
},
{
glyphname = Acircumflex;
kernLeft = A;
kernRight = A;
layers = (
{
hints = (
{
horizontal = 1;
place = (0, 21);
target = up;
type = BottomGhost;
},
{
horizontal = 1;
place = (225, 55);
place = (225, 55);
type = Stem;
},
{
horizontal = 1;
place = (715, -20);
target = down;
type = TopGhost;
},
{
horizontal = 1;
place = (754, 103);
place = (754, 103);
type = Stem;
},
{
place = (-43, 601);
place = (-43, 601);
type = Stem;
},
{
horizontal = 1;
place = (651, 64);
place = (651, 64);
type = Stem;
}
);
layerId = m01;
shapes = (
{
closed = 1;
nodes = (
(489,0,l),
(558,0,l),
(417,715,l),
(342,715,l),
(-43,0,l),
(25,0,l),
(144,225,l),
(447,225,l)
);
},
{
closed = 1;
nodes = (
(316,546,ls),
(340,592,o),
(368,651,o),
(368,651,c),
(370,651,l),
(370,651,o),
(379,587,o),
(387,547,cs),
(437,280,l),
(174,280,l)
);
},
{
closed = 1;
nodes = (
(389,822,l),
(391,822,l),
(440,754,l),
(505,754,l),
(432,857,l),
(358,857,l),
(251,754,l),
(319,754,l)
);
}
);
width = 616;
}
);
note = Acircumflex;
unicode = 194;
},
{
glyphname = Ecircumflex;
kernRight = E;
layers = (
{
hints = (
{
horizontal = 1;
place = (0, 61);
place = (0, 61);
type = Stem;
},
{
horizontal = 1;
place = (342, 57);
place = (342, 57);
type = Stem;
},
{
horizontal = 1;
place = (657, 58);
place = (657, 58);
type = Stem;
},
{
horizontal = 1;
place = (754, 103);
place = (754, 103);
type = Stem;
},
{
place = (13, 590);
place = (13, 590);
type = Stem;
}
);
layerId = m01;
shapes = (
{
closed = 1;
nodes = (
(13,0,l),
(488,0,l),
(500,61,l),
(91,61,l),
(145,342,l),
(505,342,l),
(517,399,l),
(156,399,l),
(206,657,l),
(592,657,l),
(603,715,l),
(151,715,l)
);
},
{
closed = 1;
nodes = (
(402,822,l),
(404,822,l),
(453,754,l),
(518,754,l),
(445,857,l),
(371,857,l),
(264,754,l),
(332,754,l)
);
}
);
width = 572;
}
);
note = Ecircumflex;
unicode = 202;
},
{
glyphname = Aacute;
kernLeft = A;
kernRight = A;
layers = (
{
hints = (
{
horizontal = 1;
place = (0, 21);
target = up;
type = BottomGhost;
},
{
horizontal = 1;
place = (225, 55);
place = (225, 55);
type = Stem;
},
{
horizontal = 1;
place = (715, -20);
target = down;
type = TopGhost;
},
{
horizontal = 1;
place = (753, 114);
place = (753, 114);
type = Stem;
},
{
place = (-43, 601);
place = (-43, 601);
type = Stem;
},
{
horizontal = 1;
place = (651, 64);
place = (651, 64);
type = Stem;
}
);
layerId = m01;
shapes = (
{
closed = 1;
nodes = (
(489,0,l),
(558,0,l),
(417,715,l),
(342,715,l),
(-43,0,l),
(25,0,l),
(144,225,l),
(447,225,l)
);
},
{
closed = 1;
nodes = (
(316,546,ls),
(340,592,o),
(368,651,o),
(368,651,c),
(370,651,l),
(370,651,o),
(379,587,o),
(387,547,cs),
(437,280,l),
(174,280,l)
);
},
{
closed = 1;
nodes = (
(359,753,l),
(413,753,l),
(509,867,l),
(429,867,l)
);
}
);
width = 616;
}
);
note = Aacute;
unicode = 193;
},
{
glyphname = Edieresis;
kernRight = E;
layers = (
{
hints = (
{
horizontal = 1;
place = (0, 61);
place = (0, 61);
type = Stem;
},
{
horizontal = 1;
place = (342, 57);
place = (342, 57);
type = Stem;
},
{
horizontal = 1;
place = (657, 58);
place = (657, 58);
type = Stem;
},
{
horizontal = 1;
place = (757, 86);
place = (757, 86);
type = Stem;
},
{
place = (13, 590);
place = (13, 590);
type = Stem;
}
);
layerId = m01;
shapes = (
{
closed = 1;
nodes = (
(284,757,l),
(345,757,l),
(362,843,l),
(302,843,l)
);
},
{
closed = 1;
nodes = (
(438,757,l),
(498,757,l),
(516,843,l),
(455,843,l)
);
},
{
closed = 1;
nodes = (
(13,0,l),
(488,0,l),
(500,61,l),
(91,61,l),
(145,342,l),
(505,342,l),
(517,399,l),
(156,399,l),
(206,657,l),
(592,657,l),
(603,715,l),
(151,715,l)
);
}
);
width = 572;
}
);
note = Edieresis;
unicode = 203;
},
{
glyphname = Egrave;
kernRight = E;
layers = (
{
hints = (
{
horizontal = 1;
place = (0, 61);
place = (0, 61);
type = Stem;
},
{
horizontal = 1;
place = (342, 57);
place = (342, 57);
type = Stem;
},
{
horizontal = 1;
place = (657, 58);
place = (657, 58);
type = Stem;
},
{
horizontal = 1;
place = (753, 114);
place = (753, 114);
type = Stem;
},
{
place = (13, 590);
place = (13, 590);
type = Stem;
}
);
layerId = m01;
shapes = (
{
closed = 1;
nodes = (
(425,753,l),
(380,867,l),
(303,867,l),
(372,753,l)
);
},
{
closed = 1;
nodes = (
(13,0,l),
(488,0,l),
(500,61,l),
(91,61,l),
(145,342,l),
(505,342,l),
(517,399,l),
(156,399,l),
(206,657,l),
(592,657,l),
(603,715,l),
(151,715,l)
);
}
);
width = 572;
}
);
note = Egrave;
unicode = 200;
},
{
glyphname = Iacute;
layers = (
{
hints = (
{
horizontal = 1;
place = (0, 21);
target = up;
type = BottomGhost;
},
{
horizontal = 1;
place = (715, -20);
target = down;
type = TopGhost;
},
{
horizontal = 1;
place = (753, 114);
place = (753, 114);
type = Stem;
},
{
place = (16, 300);
place = (16, 300);
type = Stem;
}
);
layerId = m01;
shapes = (
{
closed = 1;
nodes = (
(220,715,l),
(154,715,l),
(16,0,l),
(82,0,l)
);
},
{
closed = 1;
nodes = (
(166,753,l),
(220,753,l),
(316,867,l),
(236,867,l)
);
}
);
width = 198;
}
);
note = Iacute;
unicode = 205;
},
{
glyphname = Icircumflex;
layers = (
{
hints = (
{
horizontal = 1;
place = (0, 21);
target = up;
type = BottomGhost;
},
{
horizontal = 1;
place = (715, -20);
target = down;
type = TopGhost;
},
{
horizontal = 1;
place = (754, 103);
place = (754, 103);
type = Stem;
},
{
place = (16, 302);
place = (16, 302);
type = Stem;
}
);
layerId = m01;
shapes = (
{
closed = 1;
nodes = (
(220,715,l),
(154,715,l),
(16,0,l),
(82,0,l)
);
},
{
closed = 1;
nodes = (
(202,822,l),
(204,822,l),
(253,754,l),
(318,754,l),
(245,857,l),
(171,857,l),
(64,754,l),
(132,754,l)
);
}
);
width = 198;
}
);
note = Icircumflex;
unicode = 206;
},
{
glyphname = Idieresis;
layers = (
{
hints = (
{
horizontal = 1;
place = (0, 21);
target = up;
type = BottomGhost;
},
{
horizontal = 1;
place = (715, -20);
target = down;
type = TopGhost;
},
{
horizontal = 1;
place = (757, 86);
place = (757, 86);
type = Stem;
},
{
place = (16, 299);
place = (16, 299);
type = Stem;
}
);
layerId = m01;
shapes = (
{
closed = 1;
nodes = (
(161,843,l),
(101,843,l),
(84,757,l),
(144,757,l)
);
},
{
closed = 1;
nodes = (
(315,843,l),
(255,843,l),
(238,757,l),
(298,757,l)
);
},
{
closed = 1;
nodes = (
(220,715,l),
(154,715,l),
(16,0,l),
(82,0,l)
);
}
);
width = 198;
}
);
note = Idieresis;
unicode = 207;
},
{
glyphname = Igrave;
layers = (
{
hints = (
{
horizontal = 1;
place = (0, 21);
target = up;
type = BottomGhost;
},
{
horizontal = 1;
place = (715, -20);
target = down;
type = TopGhost;
},
{
horizontal = 1;
place = (753, 114);
place = (753, 114);
type = Stem;
},
{
place = (16, 204);
place = (16, 204);
type = Stem;
}
);
layerId = m01;
shapes = (
{
closed = 1;
nodes = (
(220,715,l),
(154,715,l),
(16,0,l),
(82,0,l)
);
},
{
closed = 1;
nodes = (
(220,753,l),
(175,867,l),
(98,867,l),
(167,753,l)
);
}
);
width = 198;
}
);
note = Igrave;
unicode = 204;
},
{
glyphname = Oacute;
kernLeft = C;
kernRight = O;
layers = (
{
hints = (
{
horizontal = 1;
place = (-14, 59);
place = (-14, 59);
type = Stem;
},
{
horizontal = 1;
place = (671, 59);
place = (671, 59);
type = Stem;
},
{
place = (47, 69);
place = (47, 69);
type = Stem;
},
{
place = (638, 69);
place = (638, 69);
type = Stem;
},
{
horizontal = 1;
place = (753, 114);
place = (753, 114);
type = Stem;
}
);
layerId = m01;
shapes = (
{
closed = 1;
nodes = (
(391,753,l),
(445,753,l),
(541,867,l),
(461,867,l)
);
},
{
closed = 1;
nodes = (
(580,-14,o),
(707,193,o),
(707,412,cs),
(707,611,o),
(578,730,o),
(408,730,cs),
(182,730,o),
(47,520,o),
(47,302,cs),
(47,102,o),
(177,-14,o),
(346,-14,cs)
);
},
{
closed = 1;
nodes = (
(202,45,o),
(116,149,o),
(116,302,cs),
(116,494,o),
(216,671,o),
(405,671,cs),
(551,671,o),
(638,563,o),
(638,412,cs),
(638,221,o),
(539,45,o),
(348,45,cs)
);
}
);
width = 717;
}
);
note = Oacute;
unicode = 211;
},
{
glyphname = Ocircumflex;
kernLeft = C;
kernRight = O;
layers = (
{
hints = (
{
horizontal = 1;
place = (-14, 59);
place = (-14, 59);
type = Stem;
},
{
horizontal = 1;
place = (671, 59);
place = (671, 59);
type = Stem;
},
{
place = (47, 69);
place = (47, 69);
type = Stem;
},
{
place = (638, 69);
place = (638, 69);
type = Stem;
},
{
horizontal = 1;
place = (754, 103);
place = (754, 103);
type = Stem;
}
);
layerId = m01;
shapes = (
{
closed = 1;
nodes = (
(580,-14,o),
(707,193,o),
(707,412,cs),
(707,611,o),
(578,730,o),
(408,730,cs),
(182,730,o),
(47,520,o),
(47,302,cs),
(47,102,o),
(177,-14,o),
(346,-14,cs)
);
},
{
closed = 1;
nodes = (
(202,45,o),
(116,149,o),
(116,302,cs),
(116,494,o),
(216,671,o),
(405,671,cs),
(551,671,o),
(638,563,o),
(638,412,cs),
(638,221,o),
(539,45,o),
(348,45,cs)
);
},
{
closed = 1;
nodes = (
(431,822,l),
(433,822,l),
(482,754,l),
(547,754,l),
(474,857,l),
(400,857,l),
(293,754,l),
(361,754,l)
);
}
);
width = 717;
}
);
note = Ocircumflex;
unicode = 212;
},
{
glyphname = Ograve;
kernLeft = C;
kernRight = O;
layers = (
{
hints = (
{
horizontal = 1;
place = (-14, 59);
place = (-14, 59);
type = Stem;
},
{
horizontal = 1;
place = (671, 59);
place = (671, 59);
type = Stem;
},
{
place = (47, 69);
place = (47, 69);
type = Stem;
},
{
place = (638, 69);
place = (638, 69);
type = Stem;
},
{
horizontal = 1;
place = (753, 114);
place = (753, 114);
type = Stem;
}
);
layerId = m01;
shapes = (
{
closed = 1;
nodes = (
(456,753,l),
(411,867,l),
(334,867,l),
(403,753,l)
);
},
{
closed = 1;
nodes = (
(580,-14,o),
(707,193,o),
(707,412,cs),
(707,611,o),
(578,730,o),
(408,730,cs),
(182,730,o),
(47,520,o),
(47,302,cs),
(47,102,o),
(177,-14,o),
(346,-14,cs)
);
},
{
closed = 1;
nodes = (
(202,45,o),
(116,149,o),
(116,302,cs),
(116,494,o),
(216,671,o),
(405,671,cs),
(551,671,o),
(638,563,o),
(638,412,cs),
(638,221,o),
(539,45,o),
(348,45,cs)
);
}
);
width = 717;
}
);
note = Ograve;
unicode = 210;
},
{
glyphname = Uacute;
kernLeft = U;
kernRight = U;
layers = (
{
hints = (
{
horizontal = 1;
place = (-11, 57);
place = (-11, 57);
type = Stem;
},
{
horizontal = 1;
place = (715, -20);
target = down;
type = TopGhost;
},
{
horizontal = 1;
place = (753, 114);
place = (753, 114);
type = Stem;
},
{
place = (46, 66);
place = (46, 66);
type = Stem;
}
);
layerId = m01;
shapes = (
{
closed = 1;
nodes = (
(366,753,l),
(420,753,l),
(516,867,l),
(436,867,l)
);
},
{
closed = 1;
nodes = (
(143,715,l),
(53,251,ls),
(17,65,o),
(124,-11,o),
(282,-11,cs),
(426,-11,o),
(524,58,o),
(553,209,cs),
(651,715,l),
(585,715,l),
(489,218,ls),
(466,97,o),
(400,46,o),
(286,46,cs),
(145,46,o),
(92,113,o),
(119,251,cs),
(209,715,l)
);
}
);
width = 618;
}
);
note = Uacute;
unicode = 218;
},
{
glyphname = Ucircumflex;
kernLeft = U;
kernRight = U;
layers = (
{
hints = (
{
horizontal = 1;
place = (-11, 57);
place = (-11, 57);
type = Stem;
},
{
horizontal = 1;
place = (715, -20);
target = down;
type = TopGhost;
},
{
horizontal = 1;
place = (754, 103);
place = (754, 103);
type = Stem;
},
{
place = (46, 66);
place = (46, 66);
type = Stem;
}
);
layerId = m01;
shapes = (
{
closed = 1;
nodes = (
(143,715,l),
(53,251,ls),
(17,65,o),
(124,-11,o),
(282,-11,cs),
(426,-11,o),
(524,58,o),
(553,209,cs),
(651,715,l),
(585,715,l),
(489,218,ls),
(466,97,o),
(400,46,o),
(286,46,cs),
(145,46,o),
(92,113,o),
(119,251,cs),
(209,715,l)
);
},
{
closed = 1;
nodes = (
(413,822,l),
(415,822,l),
(464,754,l),
(529,754,l),
(456,857,l),
(382,857,l),
(275,754,l),
(343,754,l)
);
}
);
width = 618;
}
);
note = Ucircumflex;
unicode = 219;
},
{
glyphname = Ugrave;
kernLeft = U;
kernRight = U;
layers = (
{
hints = (
{
horizontal = 1;
place = (-11, 57);
place = (-11, 57);
type = Stem;
},
{
horizontal = 1;
place = (715, -20);
target = down;
type = TopGhost;
},
{
horizontal = 1;
place = (753, 114);
place = (753, 114);
type = Stem;
},
{
place = (46, 66);
place = (46, 66);
type = Stem;
}
);
layerId = m01;
shapes = (
{
closed = 1;
nodes = (
(437,753,l),
(392,867,l),
(315,867,l),
(384,753,l)
);
},
{
closed = 1;
nodes = (
(143,715,l),
(53,251,ls),
(17,65,o),
(124,-11,o),
(282,-11,cs),
(426,-11,o),
(524,58,o),
(553,209,cs),
(651,715,l),
(585,715,l),
(489,218,ls),
(466,97,o),
(400,46,o),
(286,46,cs),
(145,46,o),
(92,113,o),
(119,251,cs),
(209,715,l)
);
}
);
width = 618;
}
);
note = Ugrave;
unicode = 217;
},
{
glyphname = dotlessi;
kernLeft = m;
kernRight = u;
layers = (
{
hints = (
{
horizontal = 1;
place = (0, 21);
target = up;
type = BottomGhost;
},
{
horizontal = 1;
place = (517, -20);
target = down;
type = TopGhost;
},
{
place = (3, 161);
place = (3, 161);
type = Stem;
}
);
layerId = m01;
shapes = (
{
closed = 1;
nodes = (
(164,517,l),
(103,517,l),
(3,0,l),
(64,0,l)
);
}
);
width = 167;
}
);
note = dotlessi;
unicode = 305;
},
{
glyphname = circumflex;
layers = (
{
hints = (
{
horizontal = 1;
place = (596, 106);
place = (596, 106);
type = Stem;
},
{
place = (192, 239);
place = (192, 239);
type = Stem;
}
);
layerId = m01;
shapes = (
{
closed = 1;
nodes = (
(366,702,l),
(292,702,l),
(192,596,l),
(261,596,l),
(323,667,l),
(325,667,l),
(367,596,l),
(431,596,l)
);
}
);
width = 492;
}
);
note = circumflex;
unicode = 710;
},
{
glyphname = tilde;
layers = (
{
hints = (
{
horizontal = 1;
place = (600, 51);
place = (600, 51);
type = Stem;
},
{
place = (182, 277);
place = (182, 277);
type = Stem;
},
{
horizontal = 1;
place = (639, 51);
place = (639, 51);
type = Stem;
}
);
layerId = m01;
shapes = (
{
closed = 1;
nodes = (
(418,600,o),
(449,634,o),
(459,688,c),
(411,688,l),
(407,666,o),
(394,651,o),
(377,651,cs),
(345,651,o),
(311,690,o),
(264,690,cs),
(225,690,o),
(194,659,o),
(182,602,c),
(231,602,l),
(235,625,o),
(248,639,o),
(262,639,cs),
(290,639,o),
(333,600,o),
(375,600,cs)
);
}
);
width = 492;
}
);
note = tilde;
unicode = 732;
},
{
glyphname = macron;
layers = (
{
hints = (
{
horizontal = 1;
place = (628, 55);
place = (628, 55);
type = Stem;
},
{
place = (195, 249);
place = (195, 249);
type = Stem;
}
);
layerId = m01;
shapes = (
{
closed = 1;
nodes = (
(195,628,l),
(433,628,l),
(444,683,l),
(206,683,l)
);
}
);
width = 492;
}
);
note = macron;
unicode = 175;
},
{
glyphname = breve;
layers = (
{
hints = (
{
horizontal = 1;
place = (595, 52);
place = (595, 52);
type = Stem;
},
{
place = (219, 239);
place = (219, 239);
type = Stem;
}
);
layerId = m01;
shapes = (
{
closed = 1;
nodes = (
(401,595,o),
(447,642,o),
(458,703,c),
(408,703,l),
(398,669,o),
(373,647,o),
(333,647,cs),
(292,647,o),
(272,669,o),
(269,703,c),
(219,703,l),
(219,640,o),
(263,595,o),
(331,595,cs)
);
}
);
width = 492;
}
);
note = breve;
unicode = 728;
},
{
glyphname = dotaccent;
layers = (
{
hints = (
{
horizontal = 1;
place = (627, 88);
place = (627, 88);
type = Stem;
},
{
place = (292, 77);
place = (292, 77);
type = Stem;
}
);
layerId = m01;
shapes = (
{
closed = 1;
nodes = (
(292,627,l),
(353,627,l),
(369,715,l),
(309,715,l)
);
}
);
width = 504;
}
);
note = dotaccent;
unicode = 729;
},
{
glyphname = ring;
layers = (
{
hints = (
{
horizontal = 1;
place = (569, 34);
place = (569, 34);
type = Stem;
},
{
horizontal = 1;
place = (705, 34);
place = (705, 34);
type = Stem;
},
{
place = (239, 39);
place = (239, 39);
type = Stem;
},
{
place = (374, 39);
place = (374, 39);
type = Stem;
}
);
layerId = m01;
shapes = (
{
closed = 1;
nodes = (
(374,569,o),
(413,607,o),
(413,654,cs),
(413,701,o),
(374,739,o),
(326,739,cs),
(278,739,o),
(239,701,o),
(239,654,cs),
(239,607,o),
(278,569,o),
(326,569,cs)
);
},
{
closed = 1;
nodes = (
(297,603,o),
(278,626,o),
(278,654,cs),
(278,683,o),
(297,705,o),
(326,705,cs),
(354,705,o),
(374,683,o),
(374,654,cs),
(374,626,o),
(354,603,o),
(326,603,cs)
);
}
);
width = 501;
}
);
note = ring;
unicode = 730;
},
{
glyphname = cedilla;
layers = (
{
hints = (
{
horizontal = 1;
place = (-187, 38);
place = (-187, 38);
type = Stem;
},
{
horizontal = 1;
place = (-86, 33);
place = (-86, 33);
type = Stem;
},
{
place = (191, 54);
place = (191, 54);
type = Stem;
},
{
horizontal = 1;
place = (-51, 51);
place = (-51, 51);
type = Stem;
},
{
horizontal = 1;
place = (-161, 21);
target = up;
type = BottomGhost;
}
);
layerId = m01;
shapes = (
{
closed = 1;
nodes = (
(196,-187,o),
(245,-162,o),
(245,-108,cs),
(245,-68,o),
(209,-48,o),
(166,-53,c),
(166,-51,l),
(222,0,l),
(171,0,l),
(102,-70,l),
(114,-93,l),
(125,-89,o),
(136,-86,o),
(153,-86,cs),
(176,-86,o),
(191,-94,o),
(191,-112,cs),
(191,-141,o),
(162,-149,o),
(132,-149,cs),
(107,-149,o),
(83,-143,o),
(63,-134,c),
(48,-161,l),
(70,-175,o),
(98,-187,o),
(143,-187,cs)
);
}
);
width = 492;
}
);
note = cedilla;
unicode = 184;
},
{
glyphname = hungarumlaut;
layers = (
{
hints = (
{
horizontal = 1;
place = (592, 127);
place = (592, 127);
type = Stem;
},
{
place = (211, 241);
place = (211, 241);
type = Stem;
}
);
layerId = m01;
shapes = (
{
closed = 1;
nodes = (
(211,592,l),
(260,592,l),
(327,719,l),
(260,719,l)
);
},
{
closed = 1;
nodes = (
(336,592,l),
(385,592,l),
(452,719,l),
(385,719,l)
);
}
);
width = 492;
}
);
note = hungarumlaut;
unicode = 733;
},
{
glyphname = ogonek;
layers = (
{
hints = (
{
horizontal = 1;
place = (-174, 46);
place = (-174, 46);
type = Stem;
},
{
place = (68, 61);
place = (68, 61);
type = Stem;
}
);
layerId = m01;
shapes = (
{
closed = 1;
nodes = (
(209,-119,l),
(195,-125,o),
(180,-128,o),
(165,-128,cs),
(141,-128,o),
(129,-117,o),
(129,-98,cs),
(129,-61,o),
(169,-28,o),
(218,0,c),
(156,0,l),
(112,-21,o),
(68,-58,o),
(68,-105,cs),
(68,-147,o),
(99,-174,o),
(155,-174,cs),
(173,-174,o),
(191,-169,o),
(203,-164,c),
(212,-119,l)
);
}
);
width = 492;
}
);
note = ogonek;
unicode = 731;
},
{
glyphname = caron;
layers = (
{
hints = (
{
horizontal = 1;
place = (596, 106);
place = (596, 106);
type = Stem;
},
{
place = (211, 239);
place = (211, 239);
type = Stem;
}
);
layerId = m01;
shapes = (
{
closed = 1;
nodes = (
(277,596,l),
(350,596,l),
(450,702,l),
(381,702,l),
(319,631,l),
(317,631,l),
(276,702,l),
(211,702,l)
);
}
);
width = 492;
}
);
note = caron;
unicode = 711;
},
{
glyphname = Amacron;
kernLeft = A;
kernRight = A;
layers = (
{
hints = (
{
horizontal = 1;
place = (0, 21);
target = up;
type = BottomGhost;
},
{
horizontal = 1;
place = (225, 55);
place = (225, 55);
type = Stem;
},
{
horizontal = 1;
place = (715, -20);
target = down;
type = TopGhost;
},
{
horizontal = 1;
place = (762, 55);
place = (762, 55);
type = Stem;
},
{
place = (-43, 601);
place = (-43, 601);
type = Stem;
},
{
horizontal = 1;
place = (651, 64);
place = (651, 64);
type = Stem;
}
);
layerId = m01;
shapes = (
{
closed = 1;
nodes = (
(489,0,l),
(558,0,l),
(417,715,l),
(342,715,l),
(-43,0,l),
(25,0,l),
(144,225,l),
(447,225,l)
);
},
{
closed = 1;
nodes = (
(316,546,ls),
(340,592,o),
(368,651,o),
(368,651,c),
(370,651,l),
(370,651,o),
(379,587,o),
(387,547,cs),
(437,280,l),
(174,280,l)
);
},
{
closed = 1;
nodes = (
(262,762,l),
(504,762,l),
(514,817,l),
(273,817,l)
);
}
);
width = 616;
}
);
note = Amacron;
unicode = 256;
},
{
glyphname = Abreve;
kernLeft = A;
kernRight = A;
layers = (
{
hints = (
{
horizontal = 1;
place = (0, 21);
target = up;
type = BottomGhost;
},
{
horizontal = 1;
place = (225, 55);
place = (225, 55);
type = Stem;
},
{
horizontal = 1;
place = (715, -20);
target = down;
type = TopGhost;
},
{
horizontal = 1;
place = (755, 53);
place = (755, 53);
type = Stem;
},
{
place = (-43, 601);
place = (-43, 601);
type = Stem;
},
{
horizontal = 1;
place = (651, 64);
place = (651, 64);
type = Stem;
}
);
layerId = m01;
shapes = (
{
closed = 1;
nodes = (
(489,0,l),
(558,0,l),
(417,715,l),
(342,715,l),
(-43,0,l),
(25,0,l),
(144,225,l),
(447,225,l)
);
},
{
closed = 1;
nodes = (
(316,546,ls),
(340,592,o),
(368,651,o),
(368,651,c),
(370,651,l),
(370,651,o),
(379,587,o),
(387,547,cs),
(437,280,l),
(174,280,l)
);
},
{
closed = 1;
nodes = (
(458,755,o),
(504,802,o),
(515,861,c),
(464,861,l),
(454,829,o),
(430,808,o),
(390,808,cs),
(349,808,o),
(329,829,o),
(326,861,c),
(276,861,l),
(276,800,o),
(319,755,o),
(388,755,cs)
);
}
);
width = 616;
}
);
note = Abreve;
unicode = 258;
},
{
glyphname = Aogonek;
kernLeft = A;
kernRight = A;
layers = (
{
hints = (
{
horizontal = 1;
place = (-174, 46);
place = (-174, 46);
type = Stem;
},
{
horizontal = 1;
place = (0, 21);
target = up;
type = BottomGhost;
},
{
horizontal = 1;
place = (225, 55);
place = (225, 55);
type = Stem;
},
{
horizontal = 1;
place = (715, -20);
target = down;
type = TopGhost;
},
{
place = (404, 61);
place = (404, 61);
type = Stem;
},
{
horizontal = 1;
place = (651, 64);
place = (651, 64);
type = Stem;
}
);
layerId = m01;
shapes = (
{
closed = 1;
nodes = (
(404,-147,o),
(435,-174,o),
(490,-174,cs),
(509,-174,o),
(527,-169,o),
(539,-164,c),
(547,-119,l),
(545,-119,l),
(531,-125,o),
(516,-128,o),
(501,-128,cs),
(477,-128,o),
(465,-117,o),
(465,-98,cs),
(465,-61,o),
(504,-28,o),
(557,4,c),
(417,715,l),
(342,715,l),
(-43,0,l),
(25,0,l),
(145,225,l),
(447,225,l),
(488,3,l),
(443,-22,o),
(404,-60,o),
(404,-105,cs)
);
},
{
closed = 1;
nodes = (
(316,546,ls),
(340,592,o),
(368,651,o),
(368,651,c),
(370,651,l),
(370,651,o),
(379,587,o),
(387,547,cs),
(437,280,l),
(174,280,l)
);
}
);
width = 616;
}
);
note = Aogonek;
unicode = 260;
},
